<?xml version="1.0" standalone="no"?>
<!DOCTYPE svg PUBLIC "-//W3C//DTD SVG 1.1//EN" "http://www.w3.org/Graphics/SVG/1.1/DTD/svg11.dtd" >
<svg xmlns="http://www.w3.org/2000/svg" xmlns:xlink="http://www.w3.org/1999/xlink" version="1.1">
<metadata></metadata>
<defs>
<font id="halogen_gas_lightsregular" horiz-adv-x="1433" >
<font-face units-per-em="2048" ascent="1638" descent="-410" />
<missing-glyph horiz-adv-x="409" />
<glyph horiz-adv-x="0" />
<glyph horiz-adv-x="682" />
<glyph unicode=" "  horiz-adv-x="409" />
<glyph unicode="&#x09;" horiz-adv-x="409" />
<glyph unicode="&#xa0;" horiz-adv-x="409" />
<glyph unicode="!" horiz-adv-x="614" d="M51 204q0 64 45 109q44 45 108 45t109 -45t45 -109t-45 -108q-45 -45 -109 -45t-108 45q-45 44 -45 108zM51 819v1024q0 65 45 109q44 44 108 44t109 -44q45 -45 45 -109v-1024q0 -9 4 -19q12 -30 12 -60t-12 -58q-24 -58 -83 -84q-29 -12 -59 -12t-59 12q-58 24 -83 84 q-13 32 -20 66q-7 35 -7 71zM154 204q0 -22 14 -36t36 -14t36 14q16 14 16 36q0 20 -18 36q-16 16 -34 16q-22 0 -36 -16q-14 -14 -14 -36zM154 819q0 -26 4 -51q4 -24 14 -47q8 -20 28 -28q10 -3 20 -3t20 3q20 8 27 28q4 9 4 19t-4 20q-7 14 -9 28q-2 16 -2 31v1024 q0 21 -16 36q-14 15 -36 15t-36 -15t-14 -36v-1024z" />
<glyph unicode="&#x22;" d="M51 1434v409q0 65 45 109q44 44 108 44t109 -44q45 -45 45 -109v-409q0 -64 -45 -109t-109 -45t-108 45q-45 45 -45 109zM154 1434q0 -22 14 -36q14 -16 36 -16t36 16q16 14 16 36v409q0 21 -16 36q-14 15 -36 15t-36 -15t-14 -36v-409zM666 1434v409q0 65 44 109 q45 44 109 44q65 0 109 -44q44 -45 44 -109v-409q0 -64 -44 -109t-109 -45t-109 45t-44 109zM768 1434q0 -22 15 -36q14 -16 36 -16q21 0 36 16q15 14 15 36v409q0 21 -15 36t-36 15q-22 0 -36 -15q-15 -15 -15 -36v-409z" />
<glyph unicode="#" horiz-adv-x="2252" d="M51 614q0 64 45 108q44 46 108 46h206v-102h-206q-22 0 -36 -16q-14 -14 -14 -36q0 -21 14 -36t36 -15h206v-103h-206q-64 0 -108 46q-45 45 -45 108zM51 1434q0 64 45 108q44 45 108 45h206v-103h-206q-22 0 -36 -14t-14 -36t14 -36q14 -16 36 -16h206v-102h-206 q-64 0 -108 45q-45 45 -45 109zM460 204v1639q0 65 46 109q45 44 108 44q64 0 108 -44q46 -45 46 -109v-1639q0 -64 -46 -108q-44 -45 -108 -45t-108 45q-46 44 -46 108zM563 204q0 -22 15 -36t36 -14q22 0 36 14q16 14 16 36v1639q0 21 -16 36q-14 15 -36 15q-21 0 -36 -15 t-15 -36v-1639zM819 460v103h409v-103h-409zM819 666v102h409v-102h-409zM819 1280v102h409v-102h-409zM819 1484v103h409v-103h-409zM1280 204v1639q0 65 45 109t109 44t108 -44q45 -45 45 -109v-1639q0 -64 -45 -108q-44 -45 -108 -45t-109 45q-45 44 -45 108zM1382 204 q0 -22 16 -36q14 -14 36 -14t36 14t14 36v1639q0 21 -14 36t-36 15t-36 -15q-16 -15 -16 -36v-1639zM1638 460v103h205q21 0 36 15t15 36q0 22 -15 36q-15 16 -36 16h-205v102h205q65 0 109 -46q44 -45 44 -108q0 -64 -44 -108q-45 -46 -109 -46h-205zM1638 1280v102h205 q21 0 36 16q15 14 15 36t-15 36t-36 14h-205v103h205q65 0 109 -45q44 -44 44 -108t-44 -109q-45 -45 -109 -45h-205z" />
<glyph unicode="$" d="M51 204q0 64 45 109q44 45 108 45h615q21 0 36 16q15 14 15 36v409h-5q1 21 -15 36q-14 15 -36 15h-404q-148 0 -254 105q-105 105 -105 253v410q0 148 105 254q106 104 254 104h409q36 0 71 -6q34 -6 66 -20q58 -24 84 -84q12 -30 12 -58q0 -30 -12 -60q-24 -58 -84 -82 q-30 -12 -58 -13q-30 1 -60 13q-10 4 -19 4h-409q-22 0 -36 -16q-16 -14 -16 -36v-410q0 -22 16 -36q14 -14 36 -14h409q145 -2 249 -106q104 -106 104 -253h6v-409q0 -148 -106 -254q-106 -105 -253 -105h-615q-64 0 -108 45q-45 44 -45 108zM154 204q0 -22 14 -36t36 -14 h615q106 0 181 74q75 76 75 182v409h-5q0 106 -75 181t-181 75h-404q-64 0 -109 45q-45 44 -45 108v410q0 64 45 108q45 46 109 46h409q15 0 31 -3q14 -3 28 -9q10 -4 20 -4t19 4q19 8 27 28q4 10 4 20t-4 19q-8 20 -27 28q-23 10 -47 14q-24 5 -51 5h-409q-106 0 -182 -75 q-74 -75 -74 -181v-410q0 -106 74 -180q76 -76 182 -76h409q59 -2 103 -44q44 -45 45 -109h5v-409q0 -64 -44 -109q-45 -45 -109 -45h-615q-22 0 -36 -16q-14 -14 -14 -36zM460 0h103q0 -21 15 -36t36 -15q22 0 36 15q16 15 16 36h102q0 -62 -46 -108q-44 -46 -108 -46 t-108 46q-46 46 -46 108zM460 410v409h103v-409h-103zM460 1228v410h103v-410h-103zM460 2048q0 62 46 108q45 46 108 46q64 0 108 -46q46 -46 46 -108h-102q0 21 -16 36q-14 15 -36 15q-21 0 -36 -15t-15 -36h-103zM666 410v409h102v-409h-102zM666 1228v410h102v-410h-102 z" />
<glyph unicode="%" d="M51 1638q0 64 45 108q44 46 108 46t109 -46q45 -45 45 -108q0 -64 -45 -108q-45 -46 -109 -46t-108 46q-45 45 -45 108zM154 1638q0 -21 14 -36t36 -15t36 15q16 15 16 36q0 20 -18 36q-16 16 -34 16q-22 0 -36 -16q-14 -14 -14 -36zM256 204v615h4q0 147 106 253 q104 104 248 106q22 0 36 14q16 14 16 36v615q0 65 44 109q45 44 109 44q65 0 109 -44q44 -45 44 -109v-615q0 -148 -104 -253q-102 -103 -248 -105q-22 0 -36 -15q-16 -15 -16 -36h-5v-615q0 -64 -45 -108q-44 -45 -108 -45t-109 45q-45 44 -45 108zM358 204q0 -22 16 -36 q14 -14 36 -14t36 14t14 36v615h6q0 65 44 109q43 42 104 44q106 0 181 76q75 74 75 180v615q0 21 -15 36t-36 15q-22 0 -36 -15q-15 -15 -15 -36v-615q0 -64 -46 -108q-43 -44 -103 -45q-106 0 -181 -75t-75 -181h-5v-615zM870 410q0 64 45 108q46 45 109 45q62 0 108 -45 q46 -44 46 -108t-46 -109t-108 -45q-64 0 -109 45t-45 109zM972 410q0 -22 16 -36q14 -16 36 -16q21 0 36 16q15 14 15 36q1 20 -17 36q-16 14 -34 14q-22 0 -36 -14q-16 -14 -16 -36z" />
<glyph unicode="&#x26;" d="M51 1024q0 62 45 108q44 46 108 46h206q148 0 253 -106t105 -253v-205q0 -64 -46 -108q-44 -46 -108 -46t-108 46q-46 45 -46 108v205q0 21 -14 36t-36 15h-206q-64 0 -108 45q-45 46 -45 109zM154 1024q0 -22 14 -36q14 -16 36 -16h206q64 0 108 -44q45 -45 45 -109 v-205q0 -21 15 -36t36 -15q22 0 36 15q16 15 16 36v205q0 106 -76 181q-74 75 -180 75h-206q-22 0 -36 -15t-14 -36zM460 1228v206q0 64 46 108q45 45 108 45q64 0 108 -45q46 -44 46 -108v-326q-44 55 -102 94v232q0 22 -16 36q-14 14 -36 14q-21 0 -36 -14t-15 -36v-206 h-103zM819 870v102h205q21 0 36 16q15 15 15 36t-15 36t-36 15h-205v103h205q62 0 108 -46t46 -108q0 -64 -46 -109t-108 -45h-205z" />
<glyph unicode="'" horiz-adv-x="614" d="M51 1434v409q0 65 45 109q44 44 108 44t109 -44q45 -45 45 -109v-409q0 -64 -45 -109t-109 -45t-108 45q-45 45 -45 109zM154 1434q0 -22 14 -36q14 -16 36 -16t36 16q16 14 16 36v409q0 21 -16 36q-14 15 -36 15t-36 -15t-14 -36v-409z" />
<glyph unicode="(" horiz-adv-x="1023" d="M51 410v1228q0 148 105 254q106 104 254 104q10 0 19 4q31 12 59 12q30 0 58 -12q60 -24 84 -82q12 -30 12 -60t-12 -58q-24 -58 -84 -84q-32 -14 -66 -20t-70 -6q-22 0 -36 -16q-16 -14 -16 -36v-1228q0 -22 16 -36q14 -16 36 -16q36 0 70 -7t66 -20q58 -24 84 -83 q12 -30 12 -59q0 -30 -12 -59q-24 -58 -84 -83q-28 -12 -58 -12q-29 0 -59 12q-9 4 -19 4q-148 0 -254 105q-105 106 -105 254zM154 410q0 -106 74 -182q76 -74 182 -74q16 0 30 -4q14 -3 28 -8q10 -4 20 -4t19 4q20 8 28 28q4 10 4 20t-4 18q-8 20 -28 28q-22 10 -47 15 q-24 5 -50 5q-64 0 -109 45t-45 109v1228q0 64 45 108q45 46 109 46q26 0 50 4q24 5 47 15q20 8 28 28q4 9 4 19t-4 20q-8 20 -28 28q-10 4 -19 4q-10 0 -20 -4q-14 -6 -28 -9t-30 -3q-106 0 -182 -75q-74 -75 -74 -181v-1228z" />
<glyph unicode=")" horiz-adv-x="1023" d="M86 189q0 30 12 59q24 58 84 83q32 13 66 20q35 7 71 7q21 0 36 16q15 14 15 36v1228q0 22 -15 36q-15 16 -36 16q-36 0 -71 6q-34 6 -66 20q-58 24 -84 84q-12 30 -12 58q0 30 12 60q24 58 84 82q30 12 58 12q30 0 60 -12q9 -4 19 -4q147 0 253 -104q106 -105 106 -254 v-1228q0 -148 -106 -254q-106 -105 -253 -105q-9 0 -19 -4q-30 -12 -60 -12t-58 12q-58 24 -84 83q-12 30 -12 59zM190 190q0 -10 3 -20q8 -20 28 -28q9 -4 19 -4t20 4q14 6 28 8q16 4 31 4q106 0 181 74q75 76 75 182v1228q0 106 -75 181t-181 75q-15 0 -31 3q-14 3 -28 9 q-10 4 -20 4t-19 -4q-20 -8 -28 -28q-3 -10 -3 -20t3 -19q8 -20 28 -28q23 -11 47 -15q25 -4 51 -4q65 0 109 -46q44 -45 44 -108v-1228q0 -64 -44 -109q-45 -45 -109 -45q-26 0 -51 -5q-24 -5 -47 -15q-20 -8 -28 -28q-3 -10 -3 -18z" />
<glyph unicode="*" d="M51 1434q0 64 45 108q44 45 108 45h206q148 0 253 -105q105 -106 105 -254v-204q0 -64 -46 -109q-44 -45 -108 -45t-108 45q-46 46 -46 109v204q0 22 -14 36q-14 16 -36 16h-206q-64 0 -108 45q-45 45 -45 109zM154 1434q0 -22 14 -36q14 -16 36 -16h206q64 0 108 -45 q45 -45 45 -109v-204q0 -22 15 -36q15 -16 36 -16q22 0 36 16q16 15 16 36v204q0 106 -76 182q-74 74 -180 74h-206q-22 0 -36 -14t-14 -36zM460 1638v205q0 65 46 109q45 44 108 44q64 0 108 -44q46 -45 46 -109v-325q-44 56 -102 94v231q0 21 -16 36q-14 15 -36 15 q-21 0 -36 -15t-15 -36v-205h-103zM819 1280v102h205q21 0 36 16q15 14 15 36t-15 36t-36 14h-205v103h205q62 0 108 -45q46 -44 46 -108t-46 -109t-108 -45h-205z" />
<glyph unicode="+" d="M51 1024q0 62 45 108q44 46 108 46h206q148 0 253 -106t105 -253v-205q0 -64 -46 -108q-44 -46 -108 -46t-108 46q-46 45 -46 108v205q0 21 -14 36t-36 15h-206q-64 0 -108 45q-45 46 -45 109zM154 1024q0 -22 14 -36q14 -16 36 -16h206q64 0 108 -44q45 -45 45 -109 v-205q0 -21 15 -36t36 -15q22 0 36 15q16 15 16 36v205q0 106 -76 181q-74 75 -180 75h-206q-22 0 -36 -15t-14 -36zM460 1228v206q0 64 46 108q45 45 108 45q64 0 108 -45q46 -44 46 -108v-326q-44 55 -102 94v232q0 22 -16 36q-14 14 -36 14q-21 0 -36 -14t-15 -36v-206 h-103zM819 870v102h205q21 0 36 16q15 15 15 36t-15 36t-36 15h-205v103h205q62 0 108 -46t46 -108q0 -64 -46 -109t-108 -45h-205z" />
<glyph unicode="," horiz-adv-x="614" d="M35 -78q0 30 12 58q4 10 4 20v204q0 64 45 109q44 45 108 45t109 -45t45 -109v-204q0 -36 -7 -70t-20 -67q-24 -58 -83 -83q-29 -12 -59 -12t-59 12q-58 24 -83 83q-12 30 -12 59zM138 -78q0 -10 4 -20q8 -20 28 -28q10 -4 20 -4t18 4q20 8 28 28q10 24 15 48q5 25 5 50 v204q0 22 -16 36q-14 16 -36 16t-36 -16q-14 -14 -14 -36v-204q0 -15 -4 -30q-3 -14 -8 -28q-4 -10 -4 -20z" />
<glyph unicode="-" d="M51 1024q0 62 45 108q44 46 108 46h820q62 0 108 -46t46 -108q0 -64 -46 -109t-108 -45h-820q-64 0 -108 45q-45 46 -45 109zM154 1024q0 -22 14 -36q14 -16 36 -16h820q21 0 36 16q15 15 15 36t-15 36t-36 15h-820q-22 0 -36 -15t-14 -36z" />
<glyph unicode="." horiz-adv-x="614" d="M51 204q0 64 45 109q44 45 108 45t109 -45t45 -109t-45 -108q-45 -45 -109 -45t-108 45q-45 44 -45 108zM154 204q0 -22 14 -36t36 -14t36 14q16 14 16 36q0 20 -18 36q-16 16 -34 16q-22 0 -36 -16q-14 -14 -14 -36z" />
<glyph unicode="/" horiz-adv-x="1024" d="M51 204v615h5q0 147 104 253q104 104 250 106q22 0 36 14t14 36v615q0 65 46 109q45 44 108 44q64 0 108 -44q46 -45 46 -109v-615q0 -148 -105 -253q-105 -103 -249 -105q-22 0 -36 -15t-14 -36h-6v-615q0 -64 -45 -108q-45 -45 -109 -45t-108 45q-45 44 -45 108z M154 204q0 -22 14 -36t36 -14t36 14q16 14 16 36v615h5q1 65 45 109q44 42 104 44q106 0 180 76q76 74 76 180v615q0 21 -16 36q-14 15 -36 15q-21 0 -36 -15t-15 -36v-615q0 -64 -45 -108q-44 -44 -104 -45q-106 0 -181 -75t-75 -181h-4v-615z" />
<glyph unicode="0" d="M51 410v1228h5q0 148 104 254q104 104 250 104h204q64 0 108 -44q46 -45 46 -109q0 -65 -46 -109q-45 -44 -108 -44h-200q-22 0 -36 -16q-14 -14 -14 -36h-6v-1228q0 -22 16 -36q14 -16 36 -16h409q21 0 36 16q15 14 15 36v1228q0 10 -4 20q-12 28 -12 58t12 60 q24 58 83 82q30 12 59 12q30 0 59 -12q57 -24 83 -82q12 -32 20 -67t8 -71v-1228q0 -148 -106 -254q-106 -105 -253 -105h-409q-148 0 -254 105q-105 106 -105 254zM154 410q0 -106 74 -182q76 -74 182 -74h409q106 0 181 74q75 76 75 182v1228q0 26 -5 51q-4 24 -14 47 q-8 20 -28 28q-10 4 -20 4t-19 -4q-20 -8 -28 -28q-4 -10 -4 -20t4 -19q7 -15 9 -29q2 -15 2 -30v-1228q0 -64 -44 -109q-45 -45 -109 -45h-409q-64 0 -109 45t-45 109v1228h5q1 64 45 108t104 46h204q22 0 36 15q16 14 16 36q0 21 -16 36q-14 15 -36 15h-200 q-106 0 -181 -75t-75 -181h-4v-1228z" />
<glyph unicode="1" horiz-adv-x="1024" d="M51 1843q0 65 45 109q44 44 108 44h206q145 -2 248 -104q105 -105 105 -254h5v-1434q0 -64 -46 -108q-44 -45 -108 -45t-108 45q-46 44 -46 108v1434h-5q0 22 -15 36q-14 16 -36 16h-200q-64 0 -108 44q-45 45 -45 109zM154 1843q0 -22 14 -36q14 -15 36 -15h206 q60 -2 103 -46q45 -45 45 -108h5v-1434q0 -22 15 -36t36 -14q22 0 36 14q16 14 16 36v1434h-6q0 106 -74 181q-76 75 -182 75h-200q-22 0 -36 -15t-14 -36z" />
<glyph unicode="2" d="M51 410v409q0 147 105 253q106 106 254 106h409q21 0 36 14t15 36v410h-5q1 22 -15 36q-14 16 -36 16h-610q-64 0 -108 44q-45 45 -45 109q0 65 45 109q44 44 108 44h615q145 -2 249 -104q104 -105 104 -254h6v-410q0 -148 -106 -253t-253 -105h-409q-22 0 -36 -15 q-16 -15 -16 -36v-409q0 -22 16 -36q14 -16 36 -16h409q36 0 71 -7q34 -7 66 -20q58 -24 84 -83q12 -30 12 -59q0 -30 -12 -59q-24 -58 -84 -83q-29 -12 -58 -12q-30 0 -60 12q-10 4 -19 4h-409q-148 0 -254 105q-105 106 -105 254zM154 410q0 -106 74 -182q76 -74 182 -74 h409q15 0 31 -4q14 -3 28 -8q10 -4 20 -4t19 4q19 8 27 28q4 10 4 20t-4 18q-8 20 -27 28q-23 10 -47 15t-51 5h-409q-64 0 -109 45t-45 109v409q0 65 45 109t109 44h409q106 0 181 76q75 74 75 180v410h-5q0 106 -75 181t-181 75h-610q-22 0 -36 -15t-14 -36q0 -22 14 -36 q14 -15 36 -15h615q59 -2 103 -46q44 -45 45 -108h5v-410q0 -64 -44 -108q-45 -45 -109 -45h-409q-106 0 -182 -75q-74 -75 -74 -181v-409z" />
<glyph unicode="3" d="M51 204q0 64 45 109q44 45 108 45h615q21 0 36 16q15 14 15 36v409h102v-409q0 -64 -44 -109q-45 -45 -109 -45h-615q-22 0 -36 -16q-14 -14 -14 -36t14 -36t36 -14h615q106 0 181 74q75 76 75 182v409q1 11 -1 25q48 32 88 78q8 -24 12 -50t4 -53v-409q0 -148 -106 -254 q-106 -105 -253 -105h-615q-64 0 -108 45q-45 44 -45 108zM51 1843q0 65 45 109q44 44 108 44h615q145 -2 249 -104q104 -105 104 -254h6v-410q0 -148 -106 -253t-253 -105h-409q-64 0 -109 45q-45 46 -45 109q0 62 45 108t109 46h409q21 0 36 14t15 36v410h-5q1 22 -15 36 q-14 16 -36 16h-610q-64 0 -108 44q-45 45 -45 109zM154 1843q0 -22 14 -36q14 -15 36 -15h615q59 -2 103 -46q44 -45 45 -108h5v-410q0 -64 -44 -108q-45 -45 -109 -45h-409q-22 0 -36 -15q-16 -15 -16 -36q0 -22 16 -36q14 -16 36 -16h409q106 0 181 76q75 74 75 180v410 h-5q0 106 -75 181t-181 75h-610q-22 0 -36 -15t-14 -36z" />
<glyph unicode="4" d="M51 1228v615q0 65 45 109q44 44 108 44t109 -44q45 -45 45 -109v-615q0 -22 16 -36q14 -14 36 -14h409q147 0 253 -106t106 -253v-615q0 -64 -46 -108q-46 -45 -108 -45q-64 0 -109 45q-45 44 -45 108v615q0 21 -15 36t-36 15h-409q-148 0 -254 105q-105 105 -105 253z M154 1228q0 -106 74 -180q76 -76 182 -76h409q65 0 109 -44q44 -45 44 -109v-615q0 -22 16 -36q14 -14 36 -14q21 0 36 14t15 36v615q0 106 -75 181t-181 75h-409q-64 0 -109 45q-45 44 -45 108v615q0 21 -16 36q-14 15 -36 15t-36 -15t-14 -36v-615zM870 1228v615 q0 65 45 109q46 44 109 44q62 0 108 -44q46 -45 46 -109v-735q-44 55 -103 94v641q0 21 -15 36t-36 15q-22 0 -36 -15q-16 -15 -16 -36v-615h-102z" />
<glyph unicode="5" d="M51 1228v410h5q0 148 104 254q104 104 250 104h409q36 0 71 -6q34 -6 66 -20q58 -24 84 -84q12 -30 12 -58q0 -30 -12 -60q-24 -58 -84 -82q-30 -12 -58 -13q-30 1 -60 13q-10 4 -19 4h-405q-22 0 -36 -16q-14 -14 -14 -36h-6v-410q0 -22 16 -36q14 -14 36 -14h409 q147 0 253 -106t106 -253v-409q0 -148 -106 -254q-106 -105 -253 -105h-409q-10 0 -20 -4q-28 -12 -59 -12q-30 0 -59 12q-59 24 -83 83q-12 30 -12 59q0 30 12 59q24 58 83 83q32 13 66 20q36 7 72 7h409q21 0 36 16q15 14 15 36v409q0 21 -15 36t-36 15h-409 q-148 0 -254 105q-105 105 -105 253zM154 1228q0 -106 74 -180q76 -76 182 -76h409q65 0 109 -44q44 -45 44 -109v-409q0 -64 -44 -109q-45 -45 -109 -45h-409q-26 0 -52 -5q-24 -5 -46 -15q-20 -8 -28 -28q-4 -10 -4 -18q0 -10 4 -20q8 -20 28 -28q10 -4 19 -4t19 4 q14 6 29 8q15 4 31 4h409q106 0 181 74q75 76 75 182v409q0 106 -75 181t-181 75h-409q-64 0 -109 45q-45 44 -45 108v410h5q1 64 45 108t104 46h409q15 0 31 -3q14 -3 28 -9q10 -4 20 -4t19 4q19 8 27 28q4 10 4 20t-4 19q-8 20 -27 28q-23 10 -47 14q-24 5 -51 5h-405 q-106 0 -181 -75t-75 -181h-4v-410z" />
<glyph unicode="6" d="M51 410v529q45 -55 103 -93v-436q0 -106 74 -182q76 -74 182 -74h409q106 0 181 74q75 76 75 182v409h-5q0 106 -75 181t-181 75h-404q-64 0 -109 45q-45 44 -45 108v410q0 64 45 108q45 46 109 46h409q15 0 31 -3q14 -3 28 -9q10 -4 20 -4t19 4q19 8 27 28q4 10 4 20 t-4 19q-8 20 -27 28q-23 10 -47 14q-24 5 -51 5h-409q-106 0 -182 -75q-74 -75 -74 -181v-410q0 -106 74 -180q76 -76 182 -76h409q59 -2 103 -44q44 -45 45 -109h5v-409q0 -64 -44 -109q-45 -45 -109 -45h-409q-64 0 -109 45t-45 109v409h102v-409q0 -22 16 -36 q14 -16 36 -16h409q21 0 36 16q15 14 15 36v409h-5q1 21 -15 36q-14 15 -36 15h-404q-148 0 -254 105q-105 105 -105 253v410q0 148 105 254q106 104 254 104h409q36 0 71 -6q34 -6 66 -20q58 -24 84 -84q12 -30 12 -58q0 -30 -12 -60q-24 -58 -84 -82q-30 -12 -58 -13 q-30 1 -60 13q-10 4 -19 4h-409q-22 0 -36 -16q-16 -14 -16 -36v-410q0 -22 16 -36q14 -14 36 -14h409q145 -2 249 -106q104 -106 104 -253h6v-409q0 -148 -106 -254q-106 -105 -253 -105h-409q-148 0 -254 105q-105 106 -105 254z" />
<glyph unicode="7" d="M51 1843q0 65 45 109q44 44 108 44h615q145 -2 249 -104q104 -105 104 -254h6v-1434q0 -64 -46 -108q-46 -45 -108 -45q-64 0 -109 45q-45 44 -45 108v1434h-5q1 22 -15 36q-14 16 -36 16h-610q-64 0 -108 44q-45 45 -45 109zM154 1843q0 -22 14 -36q14 -15 36 -15h615 q59 -2 103 -46q44 -45 45 -108h5v-1434q0 -22 16 -36q14 -14 36 -14q21 0 36 14t15 36v1434h-5q0 106 -75 181t-181 75h-610q-22 0 -36 -15t-14 -36z" />
<glyph unicode="8" d="M51 410v409q0 147 105 253q106 106 254 106h409q21 0 36 14t15 36v410h-5q1 22 -15 36q-14 16 -36 16h-404q-22 0 -36 -16q-16 -14 -16 -36v-410h-102v410q0 64 45 108q45 46 109 46h409q59 -2 103 -46q44 -45 45 -108h5v-410q0 -64 -44 -108q-45 -45 -109 -45h-409 q-106 0 -182 -75q-74 -75 -74 -181v-409q0 -106 74 -182q76 -74 182 -74h409q106 0 181 74q75 76 75 182v409q1 11 -1 25q48 32 88 78q8 -24 12 -50t4 -53v-409q0 -148 -106 -254q-106 -105 -253 -105h-409q-148 0 -254 105q-105 106 -105 254zM51 1228v410q0 148 105 254 q106 104 254 104h409q145 -2 249 -104q104 -105 104 -254h6v-410q0 -148 -106 -253t-253 -105h-409q-22 0 -36 -15q-16 -15 -16 -36v-409q0 -22 16 -36q14 -16 36 -16h409q21 0 36 16q15 14 15 36v409h102v-409q0 -64 -44 -109q-45 -45 -109 -45h-409q-64 0 -109 45t-45 109 v409q0 65 45 109t109 44h409q106 0 181 76q75 74 75 180v410h-5q0 106 -75 181t-181 75h-404q-106 0 -182 -75q-74 -75 -74 -181v-410v-25q-48 -32 -88 -77q-8 24 -12 50t-3 52z" />
<glyph unicode="9" d="M51 1228v410q0 148 105 254q106 104 254 104h409q147 0 253 -104q106 -105 106 -254v-530q-44 55 -103 94v436q0 106 -75 181t-181 75h-409q-106 0 -182 -75q-74 -75 -74 -181v-410h4q0 -106 75 -180q75 -76 181 -76h405q65 0 109 -44q44 -45 44 -109v-409 q0 -64 -44 -109q-45 -45 -109 -45h-409q-16 0 -31 2q-15 3 -29 9q-10 4 -19 4t-19 -4q-20 -7 -28 -27q-4 -10 -4 -20t4 -20q8 -20 28 -28q22 -10 46 -14q26 -4 52 -4h409q106 0 181 74q75 76 75 182v409q0 106 -75 181t-181 75h-409q-60 2 -104 45q-44 44 -45 108h-5v410 q0 64 45 108q45 46 109 46h409q65 0 109 -46q44 -45 44 -108v-410h-102v410q0 22 -15 36q-15 16 -36 16h-409q-22 0 -36 -16q-16 -14 -16 -36v-410h6q0 -22 14 -36t36 -14h405q147 0 253 -106t106 -253v-409q0 -148 -106 -254q-106 -105 -253 -105h-409q-36 0 -72 7 q-34 7 -66 20q-58 24 -83 83q-12 30 -12 59q0 30 12 59q24 58 83 83q30 12 59 12q31 0 59 -12q10 -4 20 -4h409q21 0 36 16q15 14 15 36v409q0 21 -15 36t-36 15h-409q-146 2 -250 105q-104 105 -104 253h-5z" />
<glyph unicode=":" horiz-adv-x="614" d="M51 614q0 64 45 108q44 46 108 46t109 -46q45 -45 45 -108q0 -64 -45 -108q-45 -46 -109 -46t-108 46q-45 45 -45 108zM51 1434q0 64 45 108q44 45 108 45t109 -45q45 -44 45 -108t-45 -109t-109 -45t-108 45q-45 45 -45 109zM154 614q0 -21 14 -36t36 -15t36 15 q16 15 16 36q0 20 -18 36q-16 16 -34 16q-22 0 -36 -16q-14 -14 -14 -36zM154 1434q0 -22 14 -36q14 -16 36 -16t36 16q16 14 16 36q0 20 -18 36q-16 14 -34 14q-22 0 -36 -14t-14 -36z" />
<glyph unicode=";" horiz-adv-x="614" d="M35 331q0 31 12 59q4 10 4 20v204q0 64 45 108q44 46 108 46t109 -46q45 -45 45 -108v-204q0 -36 -7 -72q-7 -34 -20 -66q-24 -58 -83 -83q-29 -12 -59 -12t-59 12q-58 24 -83 83q-12 30 -12 59zM51 1434q0 64 45 108q44 45 108 45t109 -45q45 -44 45 -108t-45 -109 t-109 -45t-108 45q-45 45 -45 109zM138 331q0 -9 4 -19q8 -20 28 -28q10 -4 20 -4t18 4q20 8 28 28q10 22 15 46q5 26 5 52v204q0 22 -16 36q-14 16 -36 16t-36 -16q-14 -14 -14 -36v-204q0 -16 -4 -31q-3 -15 -8 -29q-4 -10 -4 -19zM154 1434q0 -22 14 -36q14 -16 36 -16 t36 16q16 14 16 36q0 20 -18 36q-16 14 -34 14q-22 0 -36 -14t-14 -36z" />
<glyph unicode="&#x3c;" d="M51 1024q0 62 45 108q44 46 108 46q22 0 36 14q16 14 16 36q0 148 104 254q106 105 254 105q10 0 20 4q28 12 58 12t60 -12q58 -24 82 -83q12 -30 12 -59q0 -30 -12 -59q-24 -58 -82 -83q-32 -15 -67 -21t-71 -6q-21 0 -36 -16q-15 -14 -15 -36q0 -148 -105 -253 q-106 -105 -254 -105q-64 0 -108 45q-45 46 -45 109zM154 1024q0 -22 14 -36q14 -16 36 -16q106 0 182 76q74 74 74 180q0 64 46 109q45 45 108 45q26 0 51 5q24 5 47 15q20 8 28 28q4 10 4 18q0 10 -4 20q-8 20 -28 28q-10 4 -20 4t-19 -4q-15 -6 -29 -8q-15 -4 -30 -4 q-106 0 -181 -74q-75 -76 -75 -182q0 -64 -45 -108q-45 -45 -109 -45q-22 0 -36 -15t-14 -36zM256 819h102q0 -106 75 -181t181 -75q16 0 30 -3q14 -2 29 -8q9 -4 19 -4t20 4q20 8 28 28q4 10 4 19q0 10 -4 19q-8 20 -28 28q-23 10 -47 14q-25 6 -51 6q-64 0 -108 44 q-46 45 -46 109v25q48 32 88 78q8 -24 12 -50t3 -53q0 -22 15 -36q15 -15 36 -15q36 0 71 -7t67 -21q58 -24 82 -82q12 -30 12 -60t-12 -58q-24 -58 -82 -84q-30 -12 -60 -12t-58 12q-10 4 -20 4q-148 0 -254 106q-104 105 -104 253z" />
<glyph unicode="=" d="M51 819q0 65 45 109q44 44 108 44h820q62 0 108 -44q46 -45 46 -109q0 -65 -46 -109t-108 -44h-820q-64 0 -108 44q-45 45 -45 109zM51 1228q0 64 45 109q44 45 108 45h820q62 0 108 -45t46 -109t-46 -108q-46 -45 -108 -45h-820q-64 0 -108 45q-45 44 -45 108zM154 819 q0 -22 14 -36q14 -15 36 -15h820q21 0 36 15q15 14 15 36q0 21 -15 36t-36 15h-820q-22 0 -36 -15t-14 -36zM154 1228q0 -22 14 -36t36 -14h820q21 0 36 14t15 36t-15 36q-15 16 -36 16h-820q-22 0 -36 -16q-14 -14 -14 -36z" />
<glyph unicode="&#x3e;" d="M86 598q0 30 12 60q24 58 84 82q32 14 66 21q35 7 71 7q21 0 36 15q15 14 15 36q0 27 4 53t11 50q40 -44 89 -78q-2 -14 -2 -25q0 -65 -44 -109q-45 -44 -109 -44q-26 0 -51 -6q-24 -5 -47 -14q-20 -8 -28 -28q-3 -10 -3 -19t3 -19q8 -20 28 -28q9 -4 19 -4t20 4 q14 6 28 8q16 3 31 3q106 0 181 75t75 181h103q0 -147 -106 -253t-253 -106q-9 0 -19 -4q-30 -12 -60 -12t-58 12q-58 24 -84 84q-12 30 -12 58zM86 1449q0 30 12 59q24 58 84 83q30 12 58 12q30 0 60 -12q9 -4 19 -4q147 0 253 -105q106 -106 106 -254q0 -22 14 -36t36 -14 q64 0 109 -46t45 -108q0 -64 -45 -109t-109 -45q-148 0 -253 105t-105 253q0 22 -15 36q-15 16 -36 16q-36 0 -71 6q-34 7 -66 21q-58 24 -84 83q-12 30 -12 59zM190 1448q0 -10 3 -18q8 -20 28 -28q23 -10 47 -15q25 -5 51 -5q65 0 109 -45t44 -109q0 -106 76 -180 q74 -76 180 -76q22 0 36 16q16 15 16 36t-16 36q-14 15 -36 15q-64 0 -108 45q-45 44 -45 108q0 106 -75 182q-75 74 -181 74q-15 0 -31 4q-14 3 -28 8q-10 4 -20 4t-19 -4q-20 -8 -28 -28q-3 -10 -3 -20z" />
<glyph unicode="?" d="M51 1843q0 65 45 109q44 44 108 44h615q145 -2 249 -104q104 -105 104 -254h6v-410q0 -148 -106 -253t-253 -105q-22 0 -36 -15q-15 -15 -15 -36q0 -9 4 -19q12 -30 12 -60t-12 -58q-24 -58 -84 -84q-28 -12 -58 -12t-60 12q-58 24 -82 84q-12 32 -20 66q-8 35 -8 71 q0 147 106 253q105 106 253 106q21 0 36 14t15 36v410h-5q1 22 -15 36q-14 16 -36 16h-610q-64 0 -108 44q-45 45 -45 109zM154 1843q0 -22 14 -36q14 -15 36 -15h615q59 -2 103 -46q44 -45 45 -108h5v-410q0 -64 -44 -108q-45 -45 -109 -45q-106 0 -181 -75t-75 -181 q0 -26 5 -51q5 -24 14 -47q8 -20 28 -28q10 -3 20 -3t19 3q20 8 28 28q3 9 3 19t-3 20q-6 14 -9 28q-2 16 -2 31q0 65 44 109q45 44 109 44q106 0 181 76q75 74 75 180v410h-5q0 106 -75 181t-181 75h-610q-22 0 -36 -15t-14 -36zM460 204q0 64 46 109q45 45 108 45 q64 0 108 -45q46 -45 46 -109t-46 -108q-44 -45 -108 -45t-108 45q-46 44 -46 108zM563 204q0 -22 15 -36t36 -14q22 0 36 14q16 14 16 36q0 20 -18 36q-16 16 -34 16q-21 0 -36 -16q-15 -14 -15 -36z" />
<glyph unicode="@" d="M51 410v1228q0 148 105 254q106 104 254 104h409q145 -2 249 -104q104 -105 104 -254h6v-819q0 -147 -106 -253t-253 -106t-253 106q-106 105 -106 253v615q0 64 46 108q45 45 108 45q64 0 108 -45q46 -44 46 -108v-615q0 -22 15 -36q14 -15 36 -15q21 0 36 15 q15 14 15 36v819h-5q1 22 -15 36q-14 16 -36 16h-404q-22 0 -36 -16q-16 -14 -16 -36v-1228q0 -22 16 -36q14 -16 36 -16h409q36 0 71 -7q34 -7 66 -20q58 -24 84 -83q12 -30 12 -59q0 -30 -12 -59q-24 -58 -84 -83q-29 -12 -58 -12q-30 0 -60 12q-10 4 -19 4h-409 q-148 0 -254 105q-105 106 -105 254zM154 410q0 -106 74 -182q76 -74 182 -74h409q15 0 31 -4q14 -3 28 -8q10 -4 20 -4t19 4q19 8 27 28q4 10 4 20t-4 18q-8 20 -27 28q-23 10 -47 15t-51 5h-409q-64 0 -109 45t-45 109v1228q0 64 45 108q45 46 109 46h409q59 -2 103 -46 q44 -45 45 -108h5v-819q0 -65 -44 -109q-45 -44 -109 -44q-65 0 -109 44q-44 45 -44 109v615q0 22 -16 36q-14 14 -36 14q-21 0 -36 -14t-15 -36v-615q0 -106 75 -181t181 -75t181 75t75 181v819h-5q0 106 -75 181t-181 75h-404q-106 0 -182 -75q-74 -75 -74 -181v-1228z " />
<glyph unicode="A" d="M35 331q0 31 12 59q4 10 4 20v1228q0 148 105 254q106 104 254 104h409q145 -2 249 -104q104 -105 104 -254h6v-1434q0 -64 -46 -108q-46 -45 -108 -45q-64 0 -109 45q-45 44 -45 108v1434h-5q1 22 -15 36q-14 16 -36 16h-404q-22 0 -36 -16q-16 -14 -16 -36v-1228 q0 -36 -7 -72q-7 -34 -20 -66q-24 -58 -83 -83q-30 -12 -59 -12q-30 0 -59 12q-58 24 -83 83q-12 30 -12 59zM138 331q0 -9 4 -19q8 -20 28 -28q10 -4 20 -4t18 4q20 8 28 28q10 22 15 46q5 26 5 52v1228q0 64 45 108q45 46 109 46h409q59 -2 103 -46q44 -45 45 -108h5 v-1434q0 -22 16 -36q14 -14 36 -14q21 0 36 14t15 36v1434h-5q0 106 -75 181t-181 75h-404q-106 0 -182 -75q-74 -75 -74 -181v-1228q0 -16 -4 -31q-3 -15 -8 -29q-4 -10 -4 -19zM410 870v102h409v-102h-409zM410 1075v103h409v-103h-409z" />
<glyph unicode="B" d="M35 331q0 31 12 59q4 10 4 20v1228q0 148 105 254q106 104 254 104h409q145 -2 249 -104q104 -105 104 -254h6v-410q0 -148 -106 -253t-253 -105h-409v102h409q106 0 181 76q75 74 75 180v410h-5q0 106 -75 181t-181 75h-404q-106 0 -182 -75q-74 -75 -74 -181v-1228 q0 -16 -4 -31q-3 -15 -8 -29q-4 -10 -4 -19t4 -19q8 -20 28 -28q10 -4 20 -4t18 4q20 8 28 28q10 22 15 46q5 26 5 52v1228q0 64 45 108q45 46 109 46h409q59 -2 103 -46q44 -45 45 -108h5v-410q0 -64 -44 -108q-45 -45 -109 -45h-409v103h409q21 0 36 14t15 36v410h-5 q1 22 -15 36q-14 16 -36 16h-404q-22 0 -36 -16q-16 -14 -16 -36v-1228q0 -36 -7 -72q-7 -34 -20 -66q-24 -58 -83 -83q-29 -12 -59 -12t-59 12q-58 24 -83 83q-12 30 -12 59zM460 204q0 64 46 109q45 45 108 45h205q21 0 36 16q15 14 15 36v409h102v-409q0 -64 -44 -109 q-45 -45 -109 -45h-205q-21 0 -36 -16q-15 -14 -15 -36t15 -36t36 -14h205q106 0 181 74q75 76 75 182v409q1 11 -1 25q48 32 88 78q8 -24 12 -50t4 -53v-409q0 -148 -106 -254q-106 -105 -253 -105h-205q-64 0 -108 45q-46 44 -46 108z" />
<glyph unicode="C" d="M51 410v1228q0 148 105 254q106 104 254 104h409q9 0 19 4q30 12 60 12q29 0 58 -12q60 -24 84 -82q12 -30 12 -60t-12 -58q-25 -58 -84 -84q-32 -14 -66 -20q-35 -6 -71 -6h-409q-22 0 -36 -16q-16 -14 -16 -36v-1228q0 -22 16 -36q14 -16 36 -16h614q62 0 108 -45 t46 -109t-46 -108q-46 -45 -108 -45h-614q-148 0 -254 105q-105 106 -105 254zM154 410q0 -106 74 -182q76 -74 182 -74h614q21 0 36 14t15 36t-15 36q-15 16 -36 16h-614q-64 0 -109 45t-45 109v1228q0 64 45 108q45 46 109 46h409q27 0 51 4q24 5 47 15q19 8 27 28 q4 9 4 19t-4 20q-8 20 -27 28q-9 4 -19 4t-20 -4q-14 -6 -28 -9q-16 -3 -31 -3h-409q-106 0 -182 -75q-74 -75 -74 -181v-1228z" />
<glyph unicode="D" d="M35 331q0 31 12 59q4 10 4 20v1228q0 148 105 254q106 104 254 104h409q145 -2 249 -104q104 -105 104 -254h6v-1228q0 -148 -106 -254q-106 -105 -253 -105h-205q-64 0 -108 45q-46 44 -46 108t46 109q45 45 108 45h205q21 0 36 16q15 14 15 36v1228h-5q1 22 -15 36 q-14 16 -36 16h-404q-22 0 -36 -16q-16 -14 -16 -36v-1228q0 -36 -7 -72q-7 -34 -20 -66q-24 -58 -83 -83q-30 -12 -59 -12q-30 0 -59 12q-58 24 -83 83q-12 30 -12 59zM138 331q0 -9 4 -19q8 -20 28 -28q10 -4 20 -4t18 4q20 8 28 28q10 22 15 46q5 26 5 52v1228 q0 64 45 108q45 46 109 46h409q59 -2 103 -46q44 -45 45 -108h5v-1228q0 -64 -44 -109q-45 -45 -109 -45h-205q-21 0 -36 -16q-15 -14 -15 -36t15 -36t36 -14h205q106 0 181 74q75 76 75 182v1228h-5q0 106 -75 181t-181 75h-404q-106 0 -182 -75q-74 -75 -74 -181v-1228 q0 -16 -4 -31q-3 -15 -8 -29q-4 -10 -4 -19z" />
<glyph unicode="E" d="M51 410v1228q0 148 105 254q106 104 254 104h409q9 0 19 4q30 12 60 12q29 0 58 -12q60 -24 84 -82q12 -30 12 -60t-12 -58q-25 -58 -84 -84q-32 -14 -66 -20q-35 -6 -71 -6h-409q-22 0 -36 -16q-16 -14 -16 -36v-1228q0 -22 16 -36q14 -16 36 -16h614q62 0 108 -45 t46 -109t-46 -108q-46 -45 -108 -45h-614q-148 0 -254 105q-105 106 -105 254zM154 410q0 -106 74 -182q76 -74 182 -74h614q21 0 36 14t15 36t-15 36q-15 16 -36 16h-614q-64 0 -109 45t-45 109v1228q0 64 45 108q45 46 109 46h409q27 0 51 4q24 5 47 15q19 8 27 28 q4 9 4 19t-4 20q-8 20 -27 28q-9 4 -19 4t-20 -4q-14 -6 -28 -9q-16 -3 -31 -3h-409q-106 0 -182 -75q-74 -75 -74 -181v-1228zM410 870v102h409q21 0 36 16q15 15 15 36t-15 36t-36 15h-409v103h409q65 0 109 -46t44 -108q0 -64 -44 -109q-45 -45 -109 -45h-409z" />
<glyph unicode="F" d="M51 204v1434q0 148 105 254q106 104 254 104h614q62 0 108 -44q46 -45 46 -109q0 -65 -46 -109t-108 -44h-614q-22 0 -36 -16q-16 -14 -16 -36v-1434q0 -64 -45 -108q-45 -45 -109 -45t-108 45q-45 44 -45 108zM154 204q0 -22 14 -36t36 -14t36 14q16 14 16 36v1434 q0 64 45 108q45 46 109 46h614q21 0 36 15q15 14 15 36q0 21 -15 36t-36 15h-614q-106 0 -182 -75q-74 -75 -74 -181v-1434zM410 870v102h409q21 0 36 16q15 15 15 36t-15 36t-36 15h-409v103h409q65 0 109 -46t44 -108q0 -64 -44 -109q-45 -45 -109 -45h-409z" />
<glyph unicode="G" d="M51 410v1228q0 148 105 254q106 104 254 104h409q36 0 71 -6q34 -6 66 -20q58 -24 84 -84q12 -30 12 -58q0 -30 -12 -60q-24 -58 -84 -82q-30 -12 -58 -13q-30 1 -60 13q-10 4 -19 4h-409q-22 0 -36 -16q-16 -14 -16 -36v-1228q0 -22 16 -36q14 -16 36 -16h409 q21 0 36 16q15 14 15 36v409h-5q1 21 -15 36q-14 15 -36 15q-60 2 -104 45q-44 46 -44 109q0 62 44 108q43 44 104 46h5q145 -2 249 -106q104 -106 104 -253h6v-409q0 -148 -106 -254q-106 -105 -253 -105h-409q-148 0 -254 105q-105 106 -105 254zM154 410q0 -106 74 -182 q76 -74 182 -74h409q106 0 181 74q75 76 75 182v409h-5q0 106 -75 181q-73 74 -177 75q-20 0 -35 -15t-15 -36q0 -22 15 -36q14 -16 36 -16q59 -2 103 -44q44 -45 45 -109h5v-409q0 -64 -44 -109q-45 -45 -109 -45h-409q-64 0 -109 45t-45 109v1228q0 64 45 108 q45 46 109 46h409q15 0 31 -3q14 -3 28 -9q10 -4 20 -4t19 4q19 8 27 28q4 10 4 20t-4 19q-8 20 -27 28q-23 10 -47 14q-24 5 -51 5h-409q-106 0 -182 -75q-74 -75 -74 -181v-1228z" />
<glyph unicode="H" d="M51 204v1639q0 65 45 109q44 44 108 44t109 -44q45 -45 45 -109v-1639q0 -64 -45 -108q-45 -45 -109 -45t-108 45q-45 44 -45 108zM154 204q0 -22 14 -36t36 -14t36 14q16 14 16 36v1639q0 21 -16 36q-14 15 -36 15t-36 -15t-14 -36v-1639zM410 870v102h409v-102h-409z M410 1075v103h409v-103h-409zM870 204v1639q0 65 45 109q46 44 109 44q62 0 108 -44q46 -45 46 -109v-1639q0 -64 -46 -108q-46 -45 -108 -45q-64 0 -109 45q-45 44 -45 108zM972 204q0 -22 16 -36q14 -14 36 -14q21 0 36 14t15 36v1639q0 21 -15 36t-36 15q-22 0 -36 -15 q-16 -15 -16 -36v-1639z" />
<glyph unicode="I" horiz-adv-x="614" d="M51 204v1639q0 65 45 109q44 44 108 44t109 -44q45 -45 45 -109v-1639q0 -64 -45 -108q-45 -45 -109 -45t-108 45q-45 44 -45 108zM154 204q0 -22 14 -36t36 -14t36 14q16 14 16 36v1639q0 21 -16 36q-14 15 -36 15t-36 -15t-14 -36v-1639z" />
<glyph unicode="J" d="M86 220q0 30 12 59q24 58 84 83q30 12 58 12q30 0 60 -12q9 -4 19 -4h409q22 0 36 16q16 14 16 36v1433q0 65 45 109t109 44t108 -44q45 -45 45 -109v-1433q0 -148 -105 -254q-106 -105 -254 -105h-409q-36 0 -71 7q-34 7 -66 20q-58 24 -84 83q-12 30 -12 59zM190 220 q0 -10 3 -20q8 -20 28 -28q23 -10 47 -14q25 -4 51 -4h409q106 0 182 74q74 76 74 182v1433q0 21 -14 36t-36 15t-36 -15q-16 -15 -16 -36v-1433q0 -64 -45 -109t-109 -45h-409q-15 0 -31 2q-14 3 -28 9q-10 4 -20 4t-19 -4q-20 -7 -28 -27q-3 -10 -3 -20z" />
<glyph unicode="K" d="M51 204v615q0 147 105 253q106 106 254 106h409q21 0 36 14t15 36v615q0 65 45 109q46 44 109 44q62 0 108 -44q46 -45 46 -109v-615q0 -148 -106 -253t-253 -105h-409q-22 0 -36 -15q-16 -15 -16 -36v-615q0 -64 -45 -108q-45 -45 -109 -45t-108 45q-45 44 -45 108z M51 1108v735q0 65 45 109q44 44 108 44t109 -44q45 -45 45 -109v-615h-102v615q0 21 -16 36q-14 15 -36 15t-36 -15t-14 -36v-641q-58 -38 -103 -94zM154 204q0 -22 14 -36t36 -14t36 14q16 14 16 36v615q0 65 45 109t109 44h409q106 0 181 76q75 74 75 180v615q0 21 -15 36 t-36 15q-22 0 -36 -15q-16 -15 -16 -36v-615q0 -64 -44 -108q-45 -45 -109 -45h-409q-106 0 -182 -75q-74 -75 -74 -181v-615zM870 204v615h102v-615q0 -22 16 -36q15 -14 36 -14t36 14t15 36v615q1 11 -1 25q48 32 88 78q8 -24 12 -50t4 -53v-615q0 -64 -46 -108 q-46 -45 -108 -45q-64 0 -109 45q-45 44 -45 108z" />
<glyph unicode="L" d="M51 410v1433q0 65 45 109q44 44 108 44t109 -44q45 -45 45 -109v-1433q0 -22 16 -36q14 -16 36 -16h614q62 0 108 -45t46 -109t-46 -108q-46 -45 -108 -45h-614q-148 0 -254 105q-105 106 -105 254zM154 410q0 -106 74 -182q76 -74 182 -74h614q21 0 36 14t15 36t-15 36 q-15 16 -36 16h-614q-64 0 -109 45t-45 109v1433q0 21 -16 36q-14 15 -36 15t-36 -15t-14 -36v-1433z" />
<glyph unicode="M" horiz-adv-x="2252" d="M51 204v1434q0 148 105 254q106 104 254 104h409q147 0 253 -104q106 -105 106 -254v-1024q0 -64 -46 -108q-46 -46 -108 -46q-64 0 -109 46q-45 45 -45 108v1024q0 22 -15 36q-15 16 -36 16h-409q-22 0 -36 -16q-16 -14 -16 -36v-1434q0 -64 -45 -108q-45 -45 -109 -45 t-108 45q-45 44 -45 108zM154 204q0 -22 14 -36t36 -14t36 14q16 14 16 36v1434q0 64 45 108q45 46 109 46h409q65 0 109 -46q44 -45 44 -108v-1024q0 -21 16 -36q15 -15 36 -15t36 15t15 36v1024q0 106 -75 181t-181 75h-409q-106 0 -182 -75q-74 -75 -74 -181v-1434z M1126 1982q24 7 50 11q26 3 52 3h410q146 -2 249 -104q105 -105 105 -254h4v-1434q0 -64 -44 -108q-44 -45 -109 -45t-109 45q-44 44 -44 108v1434h-6q0 22 -15 36q-15 16 -36 16h-405v102h410q60 -2 104 -46q44 -45 44 -108h6v-1434q0 -22 15 -36q14 -14 36 -14q21 0 36 14 t15 36v1434h-5q-1 106 -75 181q-75 75 -181 75h-405q-12 0 -25 -1q-32 48 -77 89z" />
<glyph unicode="N" d="M51 204v1434q0 148 105 254q106 104 254 104h409q145 -2 249 -104q104 -105 104 -254h6v-1434q0 -64 -46 -108q-46 -45 -108 -45q-64 0 -109 45q-45 44 -45 108v1434h-5q1 22 -15 36q-14 16 -36 16h-404q-22 0 -36 -16q-16 -14 -16 -36v-1434q0 -64 -45 -108 q-45 -45 -109 -45t-108 45q-45 44 -45 108zM154 204q0 -22 14 -36t36 -14t36 14q16 14 16 36v1434q0 64 45 108q45 46 109 46h409q59 -2 103 -46q44 -45 45 -108h5v-1434q0 -22 16 -36q14 -14 36 -14q21 0 36 14t15 36v1434h-5q0 106 -75 181t-181 75h-404q-106 0 -182 -75 q-74 -75 -74 -181v-1434z" />
<glyph unicode="O" d="M51 410v1228q0 36 7 71t20 67q24 58 83 82q30 12 59 12q30 0 59 -12q58 -24 83 -82q12 -30 12 -60t-12 -58q-4 -10 -4 -20v-1228q0 -22 16 -36q14 -16 36 -16h409q21 0 36 16q15 14 15 36v1228h-5q1 22 -15 36q-14 16 -36 16h-200q-64 0 -108 44q-46 45 -46 109 q0 65 46 109q45 44 108 44h205q145 -2 249 -104q104 -105 104 -254h6v-1228q0 -148 -106 -254q-106 -105 -253 -105h-409q-148 0 -254 105q-105 106 -105 254zM154 410q0 -106 74 -182q76 -74 182 -74h409q106 0 181 74q75 76 75 182v1228h-5q0 106 -75 181t-181 75h-200 q-21 0 -36 -15t-15 -36q0 -22 15 -36q15 -15 36 -15h205q59 -2 103 -46q44 -45 45 -108h5v-1228q0 -64 -44 -109q-45 -45 -109 -45h-409q-64 0 -109 45t-45 109v1228q0 16 2 30q3 14 9 29q4 9 4 19t-4 20q-7 20 -27 28q-10 4 -20 4t-20 -4q-20 -8 -28 -28q-10 -23 -14 -47 q-4 -25 -4 -51v-1228z" />
<glyph unicode="P" d="M51 204v1434q0 148 105 254q106 104 254 104h409q145 -2 249 -104q104 -105 104 -254h6v-819q0 -147 -106 -253t-253 -106h-205q-64 0 -108 46q-46 45 -46 108q0 64 46 108q45 46 108 46h205q21 0 36 15q15 14 15 36v819h-5q1 22 -15 36q-14 16 -36 16h-404 q-22 0 -36 -16q-16 -14 -16 -36v-1434q0 -64 -45 -108q-45 -45 -109 -45t-108 45q-45 44 -45 108zM154 204q0 -22 14 -36t36 -14t36 14q16 14 16 36v1434q0 64 45 108q45 46 109 46h409q59 -2 103 -46q44 -45 45 -108h5v-819q0 -65 -44 -109q-45 -44 -109 -44h-205 q-21 0 -36 -16q-15 -14 -15 -36q0 -21 15 -36t36 -15h205q106 0 181 75t75 181v819h-5q0 106 -75 181t-181 75h-404q-106 0 -182 -75q-74 -75 -74 -181v-1434z" />
<glyph unicode="Q" d="M51 410v1228q0 36 7 71t20 67q24 58 83 82q30 12 59 12q30 0 59 -12q58 -24 83 -82q12 -30 12 -60t-12 -58q-4 -10 -4 -20v-1228q0 -22 16 -36q14 -16 36 -16h409q147 0 253 -104q106 -106 106 -254v-204q0 -64 -46 -109t-108 -45q-64 0 -109 45t-45 109v204q0 21 -15 36 t-36 15h-409q-148 0 -254 105q-105 106 -105 254zM154 410q0 -106 74 -182q76 -74 182 -74h409q65 0 109 -46t44 -108v-204q0 -22 16 -36q14 -16 36 -16q21 0 36 16q15 14 15 36v204q0 106 -75 181t-181 75h-409q-64 0 -109 45t-45 109v1228q0 16 2 30q3 14 9 29q4 9 4 19 t-4 20q-7 20 -27 28q-10 4 -20 4t-20 -4q-20 -8 -28 -28q-10 -23 -14 -47q-4 -25 -4 -51v-1228zM460 1843q0 65 46 109q45 44 108 44h205q145 -2 249 -104q104 -105 104 -254h6v-1348q-44 54 -103 92v1256h-5q0 106 -75 181t-181 75h-200q-21 0 -36 -15t-15 -36 q0 -22 15 -36q15 -15 36 -15h205q59 -2 103 -46q44 -45 45 -108h5v-1228h-102v1228h-5q1 22 -15 36q-14 16 -36 16h-200q-64 0 -108 44q-46 45 -46 109z" />
<glyph unicode="R" d="M51 204v1434q0 148 105 254q106 104 254 104h409q145 -2 249 -104q104 -105 104 -254h6v-410q0 -148 -106 -253t-253 -105h-205q-64 0 -108 45q-46 46 -46 109q0 62 46 108q45 46 108 46h205q21 0 36 14t15 36v410h-5q1 22 -15 36q-14 16 -36 16h-404q-22 0 -36 -16 q-16 -14 -16 -36v-1434q0 -64 -45 -108q-45 -45 -109 -45t-108 45q-45 44 -45 108zM154 204q0 -22 14 -36t36 -14t36 14q16 14 16 36v1434q0 64 45 108q45 46 109 46h409q59 -2 103 -46q44 -45 45 -108h5v-410q0 -64 -44 -108q-45 -45 -109 -45h-205q-21 0 -36 -15t-15 -36 q0 -22 15 -36q15 -16 36 -16h205q106 0 181 76q75 74 75 180v410h-5q0 106 -75 181t-181 75h-404q-106 0 -182 -75q-74 -75 -74 -181v-1434zM870 204v615h102v-615q0 -22 16 -36q15 -14 36 -14t36 14t15 36v615q1 11 -1 25q48 32 88 78q8 -24 12 -50t4 -53v-615 q0 -64 -46 -108q-46 -45 -108 -45q-64 0 -109 45q-45 44 -45 108z" />
<glyph unicode="S" d="M51 204q0 64 45 109q44 45 108 45h615q21 0 36 16q15 14 15 36v409h-5q1 21 -15 36q-14 15 -36 15h-404q-148 0 -254 105q-105 105 -105 253v410q0 148 105 254q106 104 254 104h409q36 0 71 -6q34 -6 66 -20q58 -24 84 -84q12 -30 12 -58q0 -30 -12 -60q-24 -58 -84 -82 q-30 -12 -58 -13q-30 1 -60 13q-10 4 -19 4h-409q-22 0 -36 -16q-16 -14 -16 -36v-410q0 -22 16 -36q14 -14 36 -14h409q145 -2 249 -106q104 -106 104 -253h6v-409q0 -148 -106 -254q-106 -105 -253 -105h-615q-64 0 -108 45q-45 44 -45 108zM154 204q0 -22 14 -36t36 -14 h615q106 0 181 74q75 76 75 182v409h-5q0 106 -75 181t-181 75h-404q-64 0 -109 45q-45 44 -45 108v410q0 64 45 108q45 46 109 46h409q15 0 31 -3q14 -3 28 -9q10 -4 20 -4t19 4q19 8 27 28q4 10 4 20t-4 19q-8 20 -27 28q-23 10 -47 14q-24 5 -51 5h-409q-106 0 -182 -75 q-74 -75 -74 -181v-410q0 -106 74 -180q76 -76 182 -76h409q59 -2 103 -44q44 -45 45 -109h5v-409q0 -64 -44 -109q-45 -45 -109 -45h-615q-22 0 -36 -16q-14 -14 -14 -36z" />
<glyph unicode="T" d="M51 1843q0 65 45 109q44 44 108 44h326q-55 -44 -94 -102h-232q-22 0 -36 -15t-14 -36q0 -22 14 -36q14 -15 36 -15h206v-102h-206q-64 0 -108 44q-45 45 -45 109zM460 204v1434q0 148 106 254q105 104 253 104h205q62 0 108 -44q46 -45 46 -109q0 -65 -46 -109t-108 -44 h-205q-22 0 -36 -16q-15 -14 -15 -36v-1434q0 -64 -46 -108q-44 -45 -108 -45t-108 45q-46 44 -46 108zM563 204q0 -22 15 -36t36 -14q22 0 36 14q16 14 16 36v1434q0 64 44 108q45 46 109 46h205q21 0 36 15q15 14 15 36q0 21 -15 36t-36 15h-205q-106 0 -181 -75t-75 -181 v-1434z" />
<glyph unicode="U" d="M51 410v1433q0 65 45 109q44 44 108 44t109 -44q45 -45 45 -109v-1433q0 -22 16 -36q14 -16 36 -16h409q21 0 36 16q15 14 15 36v1433q0 65 45 109q46 44 109 44q62 0 108 -44q46 -45 46 -109v-1433q0 -148 -106 -254q-106 -105 -253 -105h-409q-148 0 -254 105 q-105 106 -105 254zM154 410q0 -106 74 -182q76 -74 182 -74h409q106 0 181 74q75 76 75 182v1433q0 21 -15 36t-36 15q-22 0 -36 -15q-16 -15 -16 -36v-1433q0 -64 -44 -109q-45 -45 -109 -45h-409q-64 0 -109 45t-45 109v1433q0 21 -16 36q-14 15 -36 15t-36 -15t-14 -36 v-1433z" />
<glyph unicode="V" d="M51 410v1433q0 65 45 109q44 44 108 44t109 -44q45 -45 45 -109v-1433q0 -10 4 -20q12 -29 12 -59t-12 -59q-24 -59 -83 -83q-29 -12 -59 -12t-59 12q-58 24 -83 83q-13 32 -20 66q-7 36 -7 72zM154 410q0 -26 4 -52q4 -24 14 -46q8 -20 28 -28q10 -4 20 -4t20 4 q20 8 27 28q4 10 4 19t-4 19q-7 14 -9 29t-2 31v1433q0 21 -16 36q-14 15 -36 15t-36 -15t-14 -36v-1433zM460 204q0 64 46 109q45 45 108 45h205q21 0 36 16q15 14 15 36v1433q0 65 45 109q46 44 109 44q62 0 108 -44q46 -45 46 -109v-1433q0 -148 -106 -254 q-106 -105 -253 -105h-205q-64 0 -108 45q-46 44 -46 108zM563 204q0 -22 15 -36t36 -14h205q106 0 181 74q75 76 75 182v1433q0 21 -15 36t-36 15q-22 0 -36 -15q-16 -15 -16 -36v-1433q0 -64 -44 -109q-45 -45 -109 -45h-205q-21 0 -36 -16q-15 -14 -15 -36z" />
<glyph unicode="W" horiz-adv-x="2252" d="M51 410v1433q0 65 45 109q44 44 108 44t109 -44q45 -45 45 -109v-1433h6q0 -22 14 -36q14 -16 36 -16h405v-102h-409q-60 2 -104 45q-44 45 -45 109h-5v1433q0 21 -16 36q-14 15 -36 15t-36 -15t-14 -36v-1433h4q0 -106 75 -182q75 -74 181 -74h405h25q32 -48 78 -88 q-24 -8 -50 -12t-53 -3h-409q-146 2 -250 105q-104 106 -104 254h-5zM870 410v1024q0 64 45 108q46 45 109 45q62 0 108 -45q46 -44 46 -108v-1024q0 -22 14 -36q14 -16 36 -16h410q22 0 36 16q16 14 16 36v1433q0 65 44 109q45 44 109 44q65 0 109 -44q44 -45 44 -109 v-1433q0 -148 -104 -254q-105 -105 -254 -105h-410q-148 0 -253 105q-105 106 -105 254zM972 410q0 -106 76 -182q74 -74 180 -74h410q106 0 181 74q75 76 75 182v1433q0 21 -15 36t-36 15q-22 0 -36 -15q-15 -15 -15 -36v-1433q0 -64 -46 -109q-45 -45 -108 -45h-410 q-64 0 -108 45q-45 45 -45 109v1024q0 22 -15 36t-36 14q-22 0 -36 -14q-16 -14 -16 -36v-1024z" />
<glyph unicode="X" d="M51 204v615q0 147 105 253q106 106 254 106h409q21 0 36 14t15 36v615q0 65 45 109q46 44 109 44q62 0 108 -44q46 -45 46 -109v-615q0 -148 -106 -253t-253 -105h-409q-22 0 -36 -15q-16 -15 -16 -36v-615q0 -64 -45 -108q-45 -45 -109 -45t-108 45q-45 44 -45 108z M51 1228v615q0 65 45 109q44 44 108 44t109 -44q45 -45 45 -109v-615h-102v615q0 21 -16 36q-14 15 -36 15t-36 -15t-14 -36v-615v-25q-48 -33 -88 -77q-8 24 -12 50t-3 52zM154 204q0 -22 14 -36t36 -14t36 14q16 14 16 36v615q0 65 45 109t109 44h409q106 0 181 76 q75 74 75 180v615q0 21 -15 36t-36 15q-22 0 -36 -15q-16 -15 -16 -36v-615q0 -64 -44 -108q-45 -45 -109 -45h-409q-106 0 -182 -75q-74 -75 -74 -181v-615zM870 204v615h102v-615q0 -22 16 -36q15 -14 36 -14t36 14t15 36v615q1 11 -1 25q48 32 88 78q8 -24 12 -50t4 -53 v-615q0 -64 -46 -108q-46 -45 -108 -45q-64 0 -109 45q-45 44 -45 108z" />
<glyph unicode="Y" d="M51 1228v615q0 65 45 109q44 44 108 44t109 -44q45 -45 45 -109v-615q0 -22 16 -36q14 -14 36 -14q148 0 253 -106t105 -253v-615q0 -64 -46 -108q-44 -45 -108 -45t-108 45q-46 44 -46 108v615q0 21 -14 36t-36 15q-148 0 -254 105q-105 105 -105 253zM154 1228 q0 -106 74 -180q76 -76 182 -76q64 0 108 -44q45 -45 45 -109v-615q0 -22 15 -36t36 -14q22 0 36 14q16 14 16 36v615q0 106 -76 181q-74 75 -180 75q-64 0 -109 45q-45 44 -45 108v615q0 21 -16 36q-14 15 -36 15t-36 -15t-14 -36v-615zM716 1162q24 8 50 12t53 4 q21 0 36 14t15 36v615q0 65 45 109q46 44 109 44q62 0 108 -44q46 -45 46 -109v-615q0 -148 -106 -253t-253 -105v102q106 0 181 76q75 74 75 180v615q0 21 -15 36t-36 15q-22 0 -36 -15q-16 -15 -16 -36v-615q0 -64 -44 -108q-45 -45 -109 -45q-11 1 -25 -1q-32 48 -78 88z " />
<glyph unicode="Z" d="M51 410v409h5q0 147 104 253q104 104 250 106h409q21 0 36 14t15 36v410q0 22 -15 36q-15 16 -36 16h-409q-10 0 -20 -4q-29 -12 -59 -13q-30 1 -59 13q-59 24 -83 82q-12 30 -12 60t12 58q24 58 83 84q32 14 66 20q36 6 72 6h409q147 0 253 -104q106 -105 106 -254v-410 q0 -148 -106 -253t-253 -105h-405q-22 0 -36 -15t-14 -36h-6v-409q0 -22 16 -36q14 -16 36 -16h614q62 0 108 -45t46 -109t-46 -108q-46 -45 -108 -45h-614q-148 0 -254 105q-105 106 -105 254zM154 410q0 -106 74 -182q76 -74 182 -74h614q21 0 36 14t15 36t-15 36 q-15 16 -36 16h-614q-64 0 -109 45t-45 109v409h5q1 65 45 109q44 42 104 44h409q106 0 181 76q75 74 75 180v410q0 106 -75 181t-181 75h-409q-26 0 -52 -5q-24 -4 -46 -14q-20 -8 -28 -28q-4 -10 -4 -19q0 -10 4 -20q8 -20 28 -28q10 -4 19 -4t19 4q14 6 29 9t31 3h409 q65 0 109 -46q44 -45 44 -108v-410q0 -64 -44 -108q-45 -45 -109 -45h-405q-106 0 -181 -75t-75 -181h-4v-409z" />
<glyph unicode="[" horiz-adv-x="1023" d="M51 410v1228q0 148 105 254q106 104 254 104q64 0 108 -44q45 -45 45 -109q0 -65 -45 -109q-44 -44 -108 -44q-22 0 -36 -16q-16 -14 -16 -36v-1228q0 -22 16 -36q14 -16 36 -16q64 0 108 -45q45 -45 45 -109t-45 -108q-44 -45 -108 -45q-148 0 -254 105 q-105 106 -105 254zM154 410q0 -106 74 -182q76 -74 182 -74q22 0 36 14t14 36t-14 36q-14 16 -36 16q-64 0 -109 45t-45 109v1228q0 64 45 108q45 46 109 46q22 0 36 15q14 14 14 36q0 21 -14 36t-36 15q-106 0 -182 -75q-74 -75 -74 -181v-1228z" />
<glyph unicode="\" horiz-adv-x="1024" d="M51 1228v615q0 65 45 109q44 44 108 44t109 -44q45 -45 45 -109v-615q0 -22 16 -36q14 -14 36 -14q145 -2 248 -106q105 -106 105 -253h5v-615q0 -64 -46 -108q-44 -45 -108 -45t-108 45q-46 44 -46 108v615h-5q0 21 -15 36q-14 15 -36 15q-145 2 -248 105 q-105 105 -105 253zM154 1228q0 -106 74 -180q76 -76 182 -76q60 -2 103 -44q45 -45 45 -109h5v-615q0 -22 15 -36t36 -14q22 0 36 14q16 14 16 36v615h-6q0 106 -74 181q-76 75 -182 75q-60 2 -103 45q-45 44 -45 108v615q0 21 -16 36q-14 15 -36 15t-36 -15t-14 -36v-615z " />
<glyph unicode="]" horiz-adv-x="1023" d="M102 204q0 64 45 109q46 45 109 45q21 0 36 16q15 14 15 36v1228q0 22 -15 36q-15 16 -36 16q-64 0 -109 44q-45 45 -45 109q0 65 45 109q46 44 109 44q148 0 254 -104q104 -105 104 -254v-1228q0 -148 -104 -254q-106 -105 -254 -105q-64 0 -109 45q-45 44 -45 108z M204 204q0 -22 16 -36q14 -14 36 -14q106 0 181 74q75 76 75 182v1228q0 106 -75 181t-181 75q-22 0 -36 -15q-16 -15 -16 -36q0 -22 16 -36q15 -15 36 -15q62 0 108 -46q46 -45 46 -108v-1228q0 -64 -46 -109t-108 -45q-22 0 -36 -16q-16 -14 -16 -36z" />
<glyph unicode="^" d="M51 1024v614q0 36 7 71t20 67q24 58 83 82q30 12 59 12q30 0 59 -12q58 -24 83 -82q12 -30 12 -60t-12 -58q-4 -10 -4 -20v-614q0 -64 -45 -109t-109 -45t-108 45q-45 46 -45 109zM154 1024q0 -22 14 -36q14 -16 36 -16t36 16q16 15 16 36v614q0 16 2 30q3 14 9 29 q4 9 4 19t-4 20q-7 20 -27 28q-10 4 -20 4t-20 -4q-20 -8 -28 -28q-10 -23 -14 -47q-4 -25 -4 -51v-614zM460 1843q0 65 46 109q45 44 108 44h205q147 0 253 -104q106 -105 106 -254v-614q0 -64 -46 -109t-108 -45q-64 0 -109 45q-45 46 -45 109v614q0 22 -15 36 q-15 16 -36 16h-205q-64 0 -108 44q-46 45 -46 109zM563 1843q0 -22 15 -36q15 -15 36 -15h205q65 0 109 -46q44 -45 44 -108v-614q0 -22 16 -36q14 -16 36 -16q21 0 36 16q15 15 15 36v614q0 106 -75 181t-181 75h-205q-21 0 -36 -15t-15 -36z" />
<glyph unicode="_" d="M51 204q0 64 45 109q44 45 108 45h820q62 0 108 -45t46 -109t-46 -108q-46 -45 -108 -45h-820q-64 0 -108 45q-45 44 -45 108zM154 204q0 -22 14 -36t36 -14h820q21 0 36 14t15 36t-15 36q-15 16 -36 16h-820q-22 0 -36 -16q-14 -14 -14 -36z" />
<glyph unicode="`" horiz-adv-x="1023" d="M394 2268q0 30 12 59q24 58 83 83q30 12 59 12q28 0 58 -12q10 -4 20 -4q36 0 71 -7t67 -20q58 -24 82 -83q12 -30 12 -59q0 -30 -12 -59q-24 -58 -82 -83q-30 -12 -60 -12t-58 12q-10 4 -20 4q-36 0 -70 7t-67 20q-58 24 -83 83q-12 30 -12 59zM496 2268q0 -10 4 -20 q8 -20 28 -28q22 -10 48 -14q25 -4 50 -4q16 0 30 -4q14 -3 29 -8q9 -4 19 -4t20 4q20 8 28 28q4 10 4 20t-4 18q-8 20 -28 28q-23 10 -47 15q-25 5 -51 5q-15 0 -30 2q-15 3 -29 9q-9 4 -19 4t-20 -4q-20 -7 -28 -27q-4 -10 -4 -20z" />
<glyph unicode="a" d="M35 331q0 31 12 59q4 10 4 20v1228q0 148 105 254q106 104 254 104h409q145 -2 249 -104q104 -105 104 -254h6v-1434q0 -64 -46 -108q-46 -45 -108 -45q-64 0 -109 45q-45 44 -45 108v1434h-5q1 22 -15 36q-14 16 -36 16h-404q-22 0 -36 -16q-16 -14 -16 -36v-1228 q0 -36 -7 -72q-7 -34 -20 -66q-24 -58 -83 -83q-30 -12 -59 -12q-30 0 -59 12q-58 24 -83 83q-12 30 -12 59zM138 331q0 -9 4 -19q8 -20 28 -28q10 -4 20 -4t18 4q20 8 28 28q10 22 15 46q5 26 5 52v1228q0 64 45 108q45 46 109 46h409q59 -2 103 -46q44 -45 45 -108h5 v-1434q0 -22 16 -36q14 -14 36 -14q21 0 36 14t15 36v1434h-5q0 106 -75 181t-181 75h-404q-106 0 -182 -75q-74 -75 -74 -181v-1228q0 -16 -4 -31q-3 -15 -8 -29q-4 -10 -4 -19zM410 870v102h409v-102h-409zM410 1075v103h409v-103h-409z" />
<glyph unicode="b" d="M35 331q0 31 12 59q4 10 4 20v1228q0 148 105 254q106 104 254 104h409q145 -2 249 -104q104 -105 104 -254h6v-410q0 -148 -106 -253t-253 -105h-409v102h409q106 0 181 76q75 74 75 180v410h-5q0 106 -75 181t-181 75h-404q-106 0 -182 -75q-74 -75 -74 -181v-1228 q0 -16 -4 -31q-3 -15 -8 -29q-4 -10 -4 -19t4 -19q8 -20 28 -28q10 -4 20 -4t18 4q20 8 28 28q10 22 15 46q5 26 5 52v1228q0 64 45 108q45 46 109 46h409q59 -2 103 -46q44 -45 45 -108h5v-410q0 -64 -44 -108q-45 -45 -109 -45h-409v103h409q21 0 36 14t15 36v410h-5 q1 22 -15 36q-14 16 -36 16h-404q-22 0 -36 -16q-16 -14 -16 -36v-1228q0 -36 -7 -72q-7 -34 -20 -66q-24 -58 -83 -83q-29 -12 -59 -12t-59 12q-58 24 -83 83q-12 30 -12 59zM460 204q0 64 46 109q45 45 108 45h205q21 0 36 16q15 14 15 36v409h102v-409q0 -64 -44 -109 q-45 -45 -109 -45h-205q-21 0 -36 -16q-15 -14 -15 -36t15 -36t36 -14h205q106 0 181 74q75 76 75 182v409q1 11 -1 25q48 32 88 78q8 -24 12 -50t4 -53v-409q0 -148 -106 -254q-106 -105 -253 -105h-205q-64 0 -108 45q-46 44 -46 108z" />
<glyph unicode="c" d="M51 410v1228q0 148 105 254q106 104 254 104h409q9 0 19 4q30 12 60 12q29 0 58 -12q60 -24 84 -82q12 -30 12 -60t-12 -58q-25 -58 -84 -84q-32 -14 -66 -20q-35 -6 -71 -6h-409q-22 0 -36 -16q-16 -14 -16 -36v-1228q0 -22 16 -36q14 -16 36 -16h614q62 0 108 -45 t46 -109t-46 -108q-46 -45 -108 -45h-614q-148 0 -254 105q-105 106 -105 254zM154 410q0 -106 74 -182q76 -74 182 -74h614q21 0 36 14t15 36t-15 36q-15 16 -36 16h-614q-64 0 -109 45t-45 109v1228q0 64 45 108q45 46 109 46h409q27 0 51 4q24 5 47 15q19 8 27 28 q4 9 4 19t-4 20q-8 20 -27 28q-9 4 -19 4t-20 -4q-14 -6 -28 -9q-16 -3 -31 -3h-409q-106 0 -182 -75q-74 -75 -74 -181v-1228z" />
<glyph unicode="d" d="M35 331q0 31 12 59q4 10 4 20v1228q0 148 105 254q106 104 254 104h409q145 -2 249 -104q104 -105 104 -254h6v-1228q0 -148 -106 -254q-106 -105 -253 -105h-205q-64 0 -108 45q-46 44 -46 108t46 109q45 45 108 45h205q21 0 36 16q15 14 15 36v1228h-5q1 22 -15 36 q-14 16 -36 16h-404q-22 0 -36 -16q-16 -14 -16 -36v-1228q0 -36 -7 -72q-7 -34 -20 -66q-24 -58 -83 -83q-30 -12 -59 -12q-30 0 -59 12q-58 24 -83 83q-12 30 -12 59zM138 331q0 -9 4 -19q8 -20 28 -28q10 -4 20 -4t18 4q20 8 28 28q10 22 15 46q5 26 5 52v1228 q0 64 45 108q45 46 109 46h409q59 -2 103 -46q44 -45 45 -108h5v-1228q0 -64 -44 -109q-45 -45 -109 -45h-205q-21 0 -36 -16q-15 -14 -15 -36t15 -36t36 -14h205q106 0 181 74q75 76 75 182v1228h-5q0 106 -75 181t-181 75h-404q-106 0 -182 -75q-74 -75 -74 -181v-1228 q0 -16 -4 -31q-3 -15 -8 -29q-4 -10 -4 -19z" />
<glyph unicode="e" d="M51 410v1228q0 148 105 254q106 104 254 104h409q9 0 19 4q30 12 60 12q29 0 58 -12q60 -24 84 -82q12 -30 12 -60t-12 -58q-25 -58 -84 -84q-32 -14 -66 -20q-35 -6 -71 -6h-409q-22 0 -36 -16q-16 -14 -16 -36v-1228q0 -22 16 -36q14 -16 36 -16h614q62 0 108 -45 t46 -109t-46 -108q-46 -45 -108 -45h-614q-148 0 -254 105q-105 106 -105 254zM154 410q0 -106 74 -182q76 -74 182 -74h614q21 0 36 14t15 36t-15 36q-15 16 -36 16h-614q-64 0 -109 45t-45 109v1228q0 64 45 108q45 46 109 46h409q27 0 51 4q24 5 47 15q19 8 27 28 q4 9 4 19t-4 20q-8 20 -27 28q-9 4 -19 4t-20 -4q-14 -6 -28 -9q-16 -3 -31 -3h-409q-106 0 -182 -75q-74 -75 -74 -181v-1228zM410 870v102h409q21 0 36 16q15 15 15 36t-15 36t-36 15h-409v103h409q65 0 109 -46t44 -108q0 -64 -44 -109q-45 -45 -109 -45h-409z" />
<glyph unicode="f" d="M51 204v1434q0 148 105 254q106 104 254 104h614q62 0 108 -44q46 -45 46 -109q0 -65 -46 -109t-108 -44h-614q-22 0 -36 -16q-16 -14 -16 -36v-1434q0 -64 -45 -108q-45 -45 -109 -45t-108 45q-45 44 -45 108zM154 204q0 -22 14 -36t36 -14t36 14q16 14 16 36v1434 q0 64 45 108q45 46 109 46h614q21 0 36 15q15 14 15 36q0 21 -15 36t-36 15h-614q-106 0 -182 -75q-74 -75 -74 -181v-1434zM410 870v102h409q21 0 36 16q15 15 15 36t-15 36t-36 15h-409v103h409q65 0 109 -46t44 -108q0 -64 -44 -109q-45 -45 -109 -45h-409z" />
<glyph unicode="g" d="M51 410v1228q0 148 105 254q106 104 254 104h409q36 0 71 -6q34 -6 66 -20q58 -24 84 -84q12 -30 12 -58q0 -30 -12 -60q-24 -58 -84 -82q-30 -12 -58 -13q-30 1 -60 13q-10 4 -19 4h-409q-22 0 -36 -16q-16 -14 -16 -36v-1228q0 -22 16 -36q14 -16 36 -16h409 q21 0 36 16q15 14 15 36v409h-5q1 21 -15 36q-14 15 -36 15q-60 2 -104 45q-44 46 -44 109q0 62 44 108q43 44 104 46h5q145 -2 249 -106q104 -106 104 -253h6v-409q0 -148 -106 -254q-106 -105 -253 -105h-409q-148 0 -254 105q-105 106 -105 254zM154 410q0 -106 74 -182 q76 -74 182 -74h409q106 0 181 74q75 76 75 182v409h-5q0 106 -75 181q-73 74 -177 75q-20 0 -35 -15t-15 -36q0 -22 15 -36q14 -16 36 -16q59 -2 103 -44q44 -45 45 -109h5v-409q0 -64 -44 -109q-45 -45 -109 -45h-409q-64 0 -109 45t-45 109v1228q0 64 45 108 q45 46 109 46h409q15 0 31 -3q14 -3 28 -9q10 -4 20 -4t19 4q19 8 27 28q4 10 4 20t-4 19q-8 20 -27 28q-23 10 -47 14q-24 5 -51 5h-409q-106 0 -182 -75q-74 -75 -74 -181v-1228z" />
<glyph unicode="h" d="M51 204v1639q0 65 45 109q44 44 108 44t109 -44q45 -45 45 -109v-1639q0 -64 -45 -108q-45 -45 -109 -45t-108 45q-45 44 -45 108zM154 204q0 -22 14 -36t36 -14t36 14q16 14 16 36v1639q0 21 -16 36q-14 15 -36 15t-36 -15t-14 -36v-1639zM410 870v102h409v-102h-409z M410 1075v103h409v-103h-409zM870 204v1639q0 65 45 109q46 44 109 44q62 0 108 -44q46 -45 46 -109v-1639q0 -64 -46 -108q-46 -45 -108 -45q-64 0 -109 45q-45 44 -45 108zM972 204q0 -22 16 -36q14 -14 36 -14q21 0 36 14t15 36v1639q0 21 -15 36t-36 15q-22 0 -36 -15 q-16 -15 -16 -36v-1639z" />
<glyph unicode="i" horiz-adv-x="614" d="M51 204v1639q0 65 45 109q44 44 108 44t109 -44q45 -45 45 -109v-1639q0 -64 -45 -108q-45 -45 -109 -45t-108 45q-45 44 -45 108zM154 204q0 -22 14 -36t36 -14t36 14q16 14 16 36v1639q0 21 -16 36q-14 15 -36 15t-36 -15t-14 -36v-1639z" />
<glyph unicode="j" d="M86 220q0 30 12 59q24 58 84 83q30 12 58 12q30 0 60 -12q9 -4 19 -4h409q22 0 36 16q16 14 16 36v1433q0 65 45 109t109 44t108 -44q45 -45 45 -109v-1433q0 -148 -105 -254q-106 -105 -254 -105h-409q-36 0 -71 7q-34 7 -66 20q-58 24 -84 83q-12 30 -12 59zM190 220 q0 -10 3 -20q8 -20 28 -28q23 -10 47 -14q25 -4 51 -4h409q106 0 182 74q74 76 74 182v1433q0 21 -14 36t-36 15t-36 -15q-16 -15 -16 -36v-1433q0 -64 -45 -109t-109 -45h-409q-15 0 -31 2q-14 3 -28 9q-10 4 -20 4t-19 -4q-20 -7 -28 -27q-3 -10 -3 -20z" />
<glyph unicode="k" d="M51 204v615q0 147 105 253q106 106 254 106h409q21 0 36 14t15 36v615q0 65 45 109q46 44 109 44q62 0 108 -44q46 -45 46 -109v-615q0 -148 -106 -253t-253 -105h-409q-22 0 -36 -15q-16 -15 -16 -36v-615q0 -64 -45 -108q-45 -45 -109 -45t-108 45q-45 44 -45 108z M51 1108v735q0 65 45 109q44 44 108 44t109 -44q45 -45 45 -109v-615h-102v615q0 21 -16 36q-14 15 -36 15t-36 -15t-14 -36v-641q-58 -38 -103 -94zM154 204q0 -22 14 -36t36 -14t36 14q16 14 16 36v615q0 65 45 109t109 44h409q106 0 181 76q75 74 75 180v615q0 21 -15 36 t-36 15q-22 0 -36 -15q-16 -15 -16 -36v-615q0 -64 -44 -108q-45 -45 -109 -45h-409q-106 0 -182 -75q-74 -75 -74 -181v-615zM870 204v615h102v-615q0 -22 16 -36q15 -14 36 -14t36 14t15 36v615q1 11 -1 25q48 32 88 78q8 -24 12 -50t4 -53v-615q0 -64 -46 -108 q-46 -45 -108 -45q-64 0 -109 45q-45 44 -45 108z" />
<glyph unicode="l" d="M51 410v1433q0 65 45 109q44 44 108 44t109 -44q45 -45 45 -109v-1433q0 -22 16 -36q14 -16 36 -16h614q62 0 108 -45t46 -109t-46 -108q-46 -45 -108 -45h-614q-148 0 -254 105q-105 106 -105 254zM154 410q0 -106 74 -182q76 -74 182 -74h614q21 0 36 14t15 36t-15 36 q-15 16 -36 16h-614q-64 0 -109 45t-45 109v1433q0 21 -16 36q-14 15 -36 15t-36 -15t-14 -36v-1433z" />
<glyph unicode="m" horiz-adv-x="2252" d="M51 204v1434q0 148 105 254q106 104 254 104h409q147 0 253 -104q106 -105 106 -254v-1024q0 -64 -46 -108q-46 -46 -108 -46q-64 0 -109 46q-45 45 -45 108v1024q0 22 -15 36q-15 16 -36 16h-409q-22 0 -36 -16q-16 -14 -16 -36v-1434q0 -64 -45 -108q-45 -45 -109 -45 t-108 45q-45 44 -45 108zM154 204q0 -22 14 -36t36 -14t36 14q16 14 16 36v1434q0 64 45 108q45 46 109 46h409q65 0 109 -46q44 -45 44 -108v-1024q0 -21 16 -36q15 -15 36 -15t36 15t15 36v1024q0 106 -75 181t-181 75h-409q-106 0 -182 -75q-74 -75 -74 -181v-1434z M1126 1982q24 7 50 11q26 3 52 3h410q146 -2 249 -104q105 -105 105 -254h4v-1434q0 -64 -44 -108q-44 -45 -109 -45t-109 45q-44 44 -44 108v1434h-6q0 22 -15 36q-15 16 -36 16h-405v102h410q60 -2 104 -46q44 -45 44 -108h6v-1434q0 -22 15 -36q14 -14 36 -14q21 0 36 14 t15 36v1434h-5q-1 106 -75 181q-75 75 -181 75h-405q-12 0 -25 -1q-32 48 -77 89z" />
<glyph unicode="n" d="M51 204v1434q0 148 105 254q106 104 254 104h409q145 -2 249 -104q104 -105 104 -254h6v-1434q0 -64 -46 -108q-46 -45 -108 -45q-64 0 -109 45q-45 44 -45 108v1434h-5q1 22 -15 36q-14 16 -36 16h-404q-22 0 -36 -16q-16 -14 -16 -36v-1434q0 -64 -45 -108 q-45 -45 -109 -45t-108 45q-45 44 -45 108zM154 204q0 -22 14 -36t36 -14t36 14q16 14 16 36v1434q0 64 45 108q45 46 109 46h409q59 -2 103 -46q44 -45 45 -108h5v-1434q0 -22 16 -36q14 -14 36 -14q21 0 36 14t15 36v1434h-5q0 106 -75 181t-181 75h-404q-106 0 -182 -75 q-74 -75 -74 -181v-1434z" />
<glyph unicode="o" d="M51 410v1228q0 36 7 71t20 67q24 58 83 82q30 12 59 12q30 0 59 -12q58 -24 83 -82q12 -30 12 -60t-12 -58q-4 -10 -4 -20v-1228q0 -22 16 -36q14 -16 36 -16h409q21 0 36 16q15 14 15 36v1228h-5q1 22 -15 36q-14 16 -36 16h-200q-64 0 -108 44q-46 45 -46 109 q0 65 46 109q45 44 108 44h205q145 -2 249 -104q104 -105 104 -254h6v-1228q0 -148 -106 -254q-106 -105 -253 -105h-409q-148 0 -254 105q-105 106 -105 254zM154 410q0 -106 74 -182q76 -74 182 -74h409q106 0 181 74q75 76 75 182v1228h-5q0 106 -75 181t-181 75h-200 q-21 0 -36 -15t-15 -36q0 -22 15 -36q15 -15 36 -15h205q59 -2 103 -46q44 -45 45 -108h5v-1228q0 -64 -44 -109q-45 -45 -109 -45h-409q-64 0 -109 45t-45 109v1228q0 16 2 30q3 14 9 29q4 9 4 19t-4 20q-7 20 -27 28q-10 4 -20 4t-20 -4q-20 -8 -28 -28q-10 -23 -14 -47 q-4 -25 -4 -51v-1228z" />
<glyph unicode="p" d="M51 204v1434q0 148 105 254q106 104 254 104h409q145 -2 249 -104q104 -105 104 -254h6v-819q0 -147 -106 -253t-253 -106h-205q-64 0 -108 46q-46 45 -46 108q0 64 46 108q45 46 108 46h205q21 0 36 15q15 14 15 36v819h-5q1 22 -15 36q-14 16 -36 16h-404 q-22 0 -36 -16q-16 -14 -16 -36v-1434q0 -64 -45 -108q-45 -45 -109 -45t-108 45q-45 44 -45 108zM154 204q0 -22 14 -36t36 -14t36 14q16 14 16 36v1434q0 64 45 108q45 46 109 46h409q59 -2 103 -46q44 -45 45 -108h5v-819q0 -65 -44 -109q-45 -44 -109 -44h-205 q-21 0 -36 -16q-15 -14 -15 -36q0 -21 15 -36t36 -15h205q106 0 181 75t75 181v819h-5q0 106 -75 181t-181 75h-404q-106 0 -182 -75q-74 -75 -74 -181v-1434z" />
<glyph unicode="q" d="M51 410v1228q0 36 7 71t20 67q24 58 83 82q30 12 59 12q30 0 59 -12q58 -24 83 -82q12 -30 12 -60t-12 -58q-4 -10 -4 -20v-1228q0 -22 16 -36q14 -16 36 -16h409q147 0 253 -104q106 -106 106 -254v-204q0 -64 -46 -109t-108 -45q-64 0 -109 45t-45 109v204q0 21 -15 36 t-36 15h-409q-148 0 -254 105q-105 106 -105 254zM154 410q0 -106 74 -182q76 -74 182 -74h409q65 0 109 -46t44 -108v-204q0 -22 16 -36q14 -16 36 -16q21 0 36 16q15 14 15 36v204q0 106 -75 181t-181 75h-409q-64 0 -109 45t-45 109v1228q0 16 2 30q3 14 9 29q4 9 4 19 t-4 20q-7 20 -27 28q-10 4 -20 4t-20 -4q-20 -8 -28 -28q-10 -23 -14 -47q-4 -25 -4 -51v-1228zM460 1843q0 65 46 109q45 44 108 44h205q145 -2 249 -104q104 -105 104 -254h6v-1348q-44 54 -103 92v1256h-5q0 106 -75 181t-181 75h-200q-21 0 -36 -15t-15 -36 q0 -22 15 -36q15 -15 36 -15h205q59 -2 103 -46q44 -45 45 -108h5v-1228h-102v1228h-5q1 22 -15 36q-14 16 -36 16h-200q-64 0 -108 44q-46 45 -46 109z" />
<glyph unicode="r" d="M51 204v1434q0 148 105 254q106 104 254 104h409q145 -2 249 -104q104 -105 104 -254h6v-410q0 -148 -106 -253t-253 -105h-205q-64 0 -108 45q-46 46 -46 109q0 62 46 108q45 46 108 46h205q21 0 36 14t15 36v410h-5q1 22 -15 36q-14 16 -36 16h-404q-22 0 -36 -16 q-16 -14 -16 -36v-1434q0 -64 -45 -108q-45 -45 -109 -45t-108 45q-45 44 -45 108zM154 204q0 -22 14 -36t36 -14t36 14q16 14 16 36v1434q0 64 45 108q45 46 109 46h409q59 -2 103 -46q44 -45 45 -108h5v-410q0 -64 -44 -108q-45 -45 -109 -45h-205q-21 0 -36 -15t-15 -36 q0 -22 15 -36q15 -16 36 -16h205q106 0 181 76q75 74 75 180v410h-5q0 106 -75 181t-181 75h-404q-106 0 -182 -75q-74 -75 -74 -181v-1434zM870 204v615h102v-615q0 -22 16 -36q15 -14 36 -14t36 14t15 36v615q1 11 -1 25q48 32 88 78q8 -24 12 -50t4 -53v-615 q0 -64 -46 -108q-46 -45 -108 -45q-64 0 -109 45q-45 44 -45 108z" />
<glyph unicode="s" d="M51 204q0 64 45 109q44 45 108 45h615q21 0 36 16q15 14 15 36v409h-5q1 21 -15 36q-14 15 -36 15h-404q-148 0 -254 105q-105 105 -105 253v410q0 148 105 254q106 104 254 104h409q36 0 71 -6q34 -6 66 -20q58 -24 84 -84q12 -30 12 -58q0 -30 -12 -60q-24 -58 -84 -82 q-30 -12 -58 -13q-30 1 -60 13q-10 4 -19 4h-409q-22 0 -36 -16q-16 -14 -16 -36v-410q0 -22 16 -36q14 -14 36 -14h409q145 -2 249 -106q104 -106 104 -253h6v-409q0 -148 -106 -254q-106 -105 -253 -105h-615q-64 0 -108 45q-45 44 -45 108zM154 204q0 -22 14 -36t36 -14 h615q106 0 181 74q75 76 75 182v409h-5q0 106 -75 181t-181 75h-404q-64 0 -109 45q-45 44 -45 108v410q0 64 45 108q45 46 109 46h409q15 0 31 -3q14 -3 28 -9q10 -4 20 -4t19 4q19 8 27 28q4 10 4 20t-4 19q-8 20 -27 28q-23 10 -47 14q-24 5 -51 5h-409q-106 0 -182 -75 q-74 -75 -74 -181v-410q0 -106 74 -180q76 -76 182 -76h409q59 -2 103 -44q44 -45 45 -109h5v-409q0 -64 -44 -109q-45 -45 -109 -45h-615q-22 0 -36 -16q-14 -14 -14 -36z" />
<glyph unicode="t" d="M51 1843q0 65 45 109q44 44 108 44h326q-55 -44 -94 -102h-232q-22 0 -36 -15t-14 -36q0 -22 14 -36q14 -15 36 -15h206v-102h-206q-64 0 -108 44q-45 45 -45 109zM460 204v1434q0 148 106 254q105 104 253 104h205q62 0 108 -44q46 -45 46 -109q0 -65 -46 -109t-108 -44 h-205q-22 0 -36 -16q-15 -14 -15 -36v-1434q0 -64 -46 -108q-44 -45 -108 -45t-108 45q-46 44 -46 108zM563 204q0 -22 15 -36t36 -14q22 0 36 14q16 14 16 36v1434q0 64 44 108q45 46 109 46h205q21 0 36 15q15 14 15 36q0 21 -15 36t-36 15h-205q-106 0 -181 -75t-75 -181 v-1434z" />
<glyph unicode="u" d="M51 410v1433q0 65 45 109q44 44 108 44t109 -44q45 -45 45 -109v-1433q0 -22 16 -36q14 -16 36 -16h409q21 0 36 16q15 14 15 36v1433q0 65 45 109q46 44 109 44q62 0 108 -44q46 -45 46 -109v-1433q0 -148 -106 -254q-106 -105 -253 -105h-409q-148 0 -254 105 q-105 106 -105 254zM154 410q0 -106 74 -182q76 -74 182 -74h409q106 0 181 74q75 76 75 182v1433q0 21 -15 36t-36 15q-22 0 -36 -15q-16 -15 -16 -36v-1433q0 -64 -44 -109q-45 -45 -109 -45h-409q-64 0 -109 45t-45 109v1433q0 21 -16 36q-14 15 -36 15t-36 -15t-14 -36 v-1433z" />
<glyph unicode="v" d="M51 410v1433q0 65 45 109q44 44 108 44t109 -44q45 -45 45 -109v-1433q0 -10 4 -20q12 -29 12 -59t-12 -59q-24 -59 -83 -83q-29 -12 -59 -12t-59 12q-58 24 -83 83q-13 32 -20 66q-7 36 -7 72zM154 410q0 -26 4 -52q4 -24 14 -46q8 -20 28 -28q10 -4 20 -4t20 4 q20 8 27 28q4 10 4 19t-4 19q-7 14 -9 29t-2 31v1433q0 21 -16 36q-14 15 -36 15t-36 -15t-14 -36v-1433zM460 204q0 64 46 109q45 45 108 45h205q21 0 36 16q15 14 15 36v1433q0 65 45 109q46 44 109 44q62 0 108 -44q46 -45 46 -109v-1433q0 -148 -106 -254 q-106 -105 -253 -105h-205q-64 0 -108 45q-46 44 -46 108zM563 204q0 -22 15 -36t36 -14h205q106 0 181 74q75 76 75 182v1433q0 21 -15 36t-36 15q-22 0 -36 -15q-16 -15 -16 -36v-1433q0 -64 -44 -109q-45 -45 -109 -45h-205q-21 0 -36 -16q-15 -14 -15 -36z" />
<glyph unicode="w" horiz-adv-x="2252" d="M51 410v1433q0 65 45 109q44 44 108 44t109 -44q45 -45 45 -109v-1433h6q0 -22 14 -36q14 -16 36 -16h405v-102h-409q-60 2 -104 45q-44 45 -45 109h-5v1433q0 21 -16 36q-14 15 -36 15t-36 -15t-14 -36v-1433h4q0 -106 75 -182q75 -74 181 -74h405h25q32 -48 78 -88 q-24 -8 -50 -12t-53 -3h-409q-146 2 -250 105q-104 106 -104 254h-5zM870 410v1024q0 64 45 108q46 45 109 45q62 0 108 -45q46 -44 46 -108v-1024q0 -22 14 -36q14 -16 36 -16h410q22 0 36 16q16 14 16 36v1433q0 65 44 109q45 44 109 44q65 0 109 -44q44 -45 44 -109 v-1433q0 -148 -104 -254q-105 -105 -254 -105h-410q-148 0 -253 105q-105 106 -105 254zM972 410q0 -106 76 -182q74 -74 180 -74h410q106 0 181 74q75 76 75 182v1433q0 21 -15 36t-36 15q-22 0 -36 -15q-15 -15 -15 -36v-1433q0 -64 -46 -109q-45 -45 -108 -45h-410 q-64 0 -108 45q-45 45 -45 109v1024q0 22 -15 36t-36 14q-22 0 -36 -14q-16 -14 -16 -36v-1024z" />
<glyph unicode="x" d="M51 204v615q0 147 105 253q106 106 254 106h409q21 0 36 14t15 36v615q0 65 45 109q46 44 109 44q62 0 108 -44q46 -45 46 -109v-615q0 -148 -106 -253t-253 -105h-409q-22 0 -36 -15q-16 -15 -16 -36v-615q0 -64 -45 -108q-45 -45 -109 -45t-108 45q-45 44 -45 108z M51 1228v615q0 65 45 109q44 44 108 44t109 -44q45 -45 45 -109v-615h-102v615q0 21 -16 36q-14 15 -36 15t-36 -15t-14 -36v-615v-25q-48 -33 -88 -77q-8 24 -12 50t-3 52zM154 204q0 -22 14 -36t36 -14t36 14q16 14 16 36v615q0 65 45 109t109 44h409q106 0 181 76 q75 74 75 180v615q0 21 -15 36t-36 15q-22 0 -36 -15q-16 -15 -16 -36v-615q0 -64 -44 -108q-45 -45 -109 -45h-409q-106 0 -182 -75q-74 -75 -74 -181v-615zM870 204v615h102v-615q0 -22 16 -36q15 -14 36 -14t36 14t15 36v615q1 11 -1 25q48 32 88 78q8 -24 12 -50t4 -53 v-615q0 -64 -46 -108q-46 -45 -108 -45q-64 0 -109 45q-45 44 -45 108z" />
<glyph unicode="y" d="M51 1228v615q0 65 45 109q44 44 108 44t109 -44q45 -45 45 -109v-615q0 -22 16 -36q14 -14 36 -14q148 0 253 -106t105 -253v-615q0 -64 -46 -108q-44 -45 -108 -45t-108 45q-46 44 -46 108v615q0 21 -14 36t-36 15q-148 0 -254 105q-105 105 -105 253zM154 1228 q0 -106 74 -180q76 -76 182 -76q64 0 108 -44q45 -45 45 -109v-615q0 -22 15 -36t36 -14q22 0 36 14q16 14 16 36v615q0 106 -76 181q-74 75 -180 75q-64 0 -109 45q-45 44 -45 108v615q0 21 -16 36q-14 15 -36 15t-36 -15t-14 -36v-615zM716 1162q24 8 50 12t53 4 q21 0 36 14t15 36v615q0 65 45 109q46 44 109 44q62 0 108 -44q46 -45 46 -109v-615q0 -148 -106 -253t-253 -105v102q106 0 181 76q75 74 75 180v615q0 21 -15 36t-36 15q-22 0 -36 -15q-16 -15 -16 -36v-615q0 -64 -44 -108q-45 -45 -109 -45q-11 1 -25 -1q-32 48 -78 88z " />
<glyph unicode="z" d="M51 410v409h5q0 147 104 253q104 104 250 106h409q21 0 36 14t15 36v410q0 22 -15 36q-15 16 -36 16h-409q-10 0 -20 -4q-29 -12 -59 -13q-30 1 -59 13q-59 24 -83 82q-12 30 -12 60t12 58q24 58 83 84q32 14 66 20q36 6 72 6h409q147 0 253 -104q106 -105 106 -254v-410 q0 -148 -106 -253t-253 -105h-405q-22 0 -36 -15t-14 -36h-6v-409q0 -22 16 -36q14 -16 36 -16h614q62 0 108 -45t46 -109t-46 -108q-46 -45 -108 -45h-614q-148 0 -254 105q-105 106 -105 254zM154 410q0 -106 74 -182q76 -74 182 -74h614q21 0 36 14t15 36t-15 36 q-15 16 -36 16h-614q-64 0 -109 45t-45 109v409h5q1 65 45 109q44 42 104 44h409q106 0 181 76q75 74 75 180v410q0 106 -75 181t-181 75h-409q-26 0 -52 -5q-24 -4 -46 -14q-20 -8 -28 -28q-4 -10 -4 -19q0 -10 4 -20q8 -20 28 -28q10 -4 19 -4t19 4q14 6 29 9t31 3h409 q65 0 109 -46q44 -45 44 -108v-410q0 -64 -44 -108q-45 -45 -109 -45h-405q-106 0 -181 -75t-75 -181h-4v-409z" />
<glyph unicode="{" d="M51 1024q0 62 45 108q44 46 108 46q22 0 36 14q16 14 16 36v410q0 148 104 254q106 104 254 104q10 0 20 4q28 12 58 12t60 -12q58 -24 82 -82q12 -30 12 -60t-12 -58q-24 -58 -82 -84q-32 -14 -67 -20t-71 -6q-21 0 -36 -16q-15 -14 -15 -36v-410q0 -148 -105 -253 q-106 -105 -254 -105q-64 0 -108 45q-45 46 -45 109zM154 1024q0 -22 14 -36q14 -16 36 -16q106 0 182 76q74 74 74 180v410q0 64 46 108q45 46 108 46q26 0 51 4q24 5 47 15q20 8 28 28q4 9 4 19t-4 20q-8 20 -28 28q-10 4 -20 4t-19 -4q-15 -6 -29 -9q-15 -3 -30 -3 q-106 0 -181 -75t-75 -181v-410q0 -64 -45 -108q-45 -45 -109 -45q-22 0 -36 -15t-14 -36zM256 410v409h102v-409q0 -106 75 -182q75 -74 181 -74q16 0 30 -4q14 -3 29 -8q9 -4 19 -4t20 4q20 8 28 28q4 10 4 20t-4 18q-8 20 -28 28q-23 10 -47 15q-25 5 -51 5 q-64 0 -108 45q-46 45 -46 109v409v25q48 32 88 78q8 -24 12 -50t3 -53v-409q0 -22 15 -36q15 -16 36 -16q36 0 71 -7t67 -20q58 -24 82 -83q12 -30 12 -59q0 -30 -12 -59q-24 -58 -82 -83q-30 -12 -60 -12t-58 12q-10 4 -20 4q-148 0 -254 105q-104 106 -104 254z" />
<glyph unicode="|" horiz-adv-x="614" d="M51 0v2048q0 62 45 108q44 46 108 46t109 -46t45 -108v-2048q0 -62 -45 -108t-109 -46t-108 46q-45 46 -45 108zM154 0q0 -21 14 -36t36 -15t36 15q16 15 16 36v2048q0 21 -16 36q-14 15 -36 15t-36 -15t-14 -36v-2048z" />
<glyph unicode="}" d="M86 189q0 30 12 59q24 58 84 83q32 13 66 20q35 7 71 7q21 0 36 16q15 14 15 36v409q0 147 105 253t253 106q64 0 109 -46t45 -108q0 -64 -45 -109t-109 -45q-22 0 -36 -15t-14 -36v-409q0 -148 -106 -254q-106 -105 -253 -105q-9 0 -19 -4q-30 -12 -60 -12t-58 12 q-58 24 -84 83q-12 30 -12 59zM86 1858q0 30 12 60q24 58 84 82q30 12 58 12q30 0 60 -12q9 -4 19 -4q147 0 253 -104q106 -105 106 -254v-410h-103v410q0 106 -75 181t-181 75q-15 0 -31 3q-14 3 -28 9q-10 4 -20 4t-19 -4q-20 -8 -28 -28q-3 -10 -3 -20t3 -19 q8 -20 28 -28q23 -11 47 -15q25 -4 51 -4q65 0 109 -46q44 -45 44 -108v-410q0 -12 2 -25q-49 -33 -89 -77q-8 24 -11 50q-4 26 -4 52v410q0 22 -15 36q-15 16 -36 16q-36 0 -71 6q-34 6 -66 20q-58 24 -84 84q-12 30 -12 58zM190 190q0 -10 3 -20q8 -20 28 -28q9 -4 19 -4 t20 4q14 6 28 8q16 4 31 4q106 0 181 74q75 76 75 182v409q0 65 45 109q44 44 108 44q22 0 36 16q16 15 16 36t-16 36q-14 15 -36 15q-106 0 -180 -75q-76 -75 -76 -181v-409q0 -64 -44 -109q-45 -45 -109 -45q-26 0 -51 -5q-24 -5 -47 -15q-20 -8 -28 -28q-3 -10 -3 -18z " />
<glyph unicode="~" d="M189 1008q0 30 12 59q24 57 83 83q32 12 66 20q36 8 72 8h409q9 0 19 4q30 12 60 12q29 0 58 -12q60 -24 84 -84q12 -30 12 -58q0 -30 -12 -60q-25 -58 -84 -83q-32 -13 -66 -20q-35 -7 -71 -7h-409q-10 0 -20 -4q-28 -12 -59 -12q-30 0 -59 12q-59 24 -83 83 q-12 30 -12 59zM292 1008q0 -10 4 -19q8 -20 28 -28q10 -4 19 -4t19 4q14 7 29 9t31 2h409q27 0 51 6q24 5 47 14q19 8 27 28q4 10 4 19t-4 19q-8 20 -27 28q-9 4 -19 4t-20 -4q-14 -6 -28 -8q-16 -3 -31 -3h-409q-26 0 -52 -5q-24 -4 -46 -14q-20 -8 -28 -28q-4 -10 -4 -20 z" />
<glyph unicode="&#xa1;" horiz-adv-x="614" d="M51 204v1024q0 36 7 72q7 34 20 66q24 58 83 83q30 12 59 12q30 0 59 -12q58 -24 83 -83q12 -30 12 -59q0 -30 -12 -59q-4 -10 -4 -20v-1024q0 -64 -45 -108q-45 -45 -109 -45t-108 45q-45 44 -45 108zM51 1843q0 65 45 109q44 44 108 44t109 -44q45 -45 45 -109 q0 -65 -45 -109t-109 -44t-108 44q-45 45 -45 109zM154 204q0 -22 14 -36t36 -14t36 14q16 14 16 36v1024q0 15 2 31q3 15 9 29q4 10 4 19t-4 19q-7 20 -27 28q-10 4 -20 4t-20 -4q-20 -8 -28 -28q-10 -22 -14 -46q-4 -26 -4 -52v-1024zM154 1843q0 -22 14 -36 q14 -15 36 -15q18 0 34 15q18 16 18 36q0 21 -16 36q-14 15 -36 15t-36 -15t-14 -36z" />
<glyph unicode="&#xa2;" d="M51 410v1228q0 148 105 254q106 104 254 104h409q9 0 19 4q30 12 60 12q29 0 58 -12q60 -24 84 -82q12 -30 12 -60t-12 -58q-25 -58 -84 -84q-32 -14 -66 -20q-35 -6 -71 -6h-409q-22 0 -36 -16q-16 -14 -16 -36v-1228q0 -22 16 -36q14 -16 36 -16h614q62 0 108 -45 t46 -109t-46 -108q-46 -45 -108 -45h-614q-148 0 -254 105q-105 106 -105 254zM154 410q0 -106 74 -182q76 -74 182 -74h614q21 0 36 14t15 36t-15 36q-15 16 -36 16h-614q-64 0 -109 45t-45 109v1228q0 64 45 108q45 46 109 46h409q27 0 51 4q24 5 47 15q19 8 27 28 q4 9 4 19t-4 20q-8 20 -27 28q-9 4 -19 4t-20 -4q-14 -6 -28 -9q-16 -3 -31 -3h-409q-106 0 -182 -75q-74 -75 -74 -181v-1228zM460 0h103q0 -21 15 -36t36 -15q22 0 36 15q16 15 16 36h102q0 -62 -46 -108q-44 -46 -108 -46t-108 46q-46 46 -46 108zM460 410v1228h103 v-1228h-103zM460 2048q0 62 46 108q45 46 108 46q64 0 108 -46q46 -46 46 -108h-102q0 21 -16 36q-14 15 -36 15q-21 0 -36 -15t-15 -36h-103zM666 410v1228h102v-1228h-102z" />
<glyph unicode="&#xa3;" d="M51 1024q0 62 45 108q44 46 108 46v-103q-22 0 -36 -15t-14 -36q0 -22 14 -36q14 -16 36 -16v-102q-64 0 -108 45q-45 46 -45 109zM256 410v1228q0 148 104 254q106 104 254 104h410q36 0 70 -6t67 -20q58 -24 83 -84q12 -30 12 -58q0 -30 -12 -60q-24 -58 -83 -82 q-30 -12 -59 -13q-30 1 -58 13q-10 4 -20 4h-410q-21 0 -36 -16q-15 -14 -15 -36v-1228q0 -22 15 -36q15 -16 36 -16h614q64 0 109 -45t45 -109t-45 -108q-45 -45 -109 -45h-614q-148 0 -254 105q-104 106 -104 254zM358 410q0 -106 75 -182q75 -74 181 -74h614q22 0 36 14 q16 14 16 36t-16 36q-14 16 -36 16h-614q-64 0 -108 45q-46 45 -46 109v1228q0 64 46 108q45 46 108 46h410q15 0 30 -3q14 -3 28 -9q10 -4 20 -4t20 4q20 8 28 28q4 10 4 20t-4 19q-8 20 -28 28q-24 10 -48 14q-25 5 -50 5h-410q-106 0 -181 -75t-75 -181v-1228zM614 870 v102h205q21 0 36 16q15 15 15 36t-15 36t-36 15h-205v103h205q65 0 109 -46t44 -108q0 -64 -44 -109q-45 -45 -109 -45h-205z" />
<glyph unicode="&#xa4;" d="M51 410v1228q0 148 105 254q106 104 254 104h409q145 -2 249 -104q104 -105 104 -254h6v-1228q0 -148 -106 -254q-106 -105 -253 -105h-409q-148 0 -254 105q-105 106 -105 254zM154 410q0 -106 74 -182q76 -74 182 -74h409q106 0 181 74q75 76 75 182v1228h-5 q0 106 -75 181t-181 75h-404q-106 0 -182 -75q-74 -75 -74 -181v-1228zM256 410v1228q0 64 45 108q45 46 109 46h409q59 -2 103 -46q44 -45 45 -108h5v-1228q0 -64 -44 -109q-45 -45 -109 -45h-409q-64 0 -109 45t-45 109zM358 410q0 -22 16 -36q14 -16 36 -16h409 q21 0 36 16q15 14 15 36v1228h-5q1 22 -15 36q-14 16 -36 16h-404q-22 0 -36 -16q-16 -14 -16 -36v-1228z" />
<glyph unicode="&#xa5;" d="M51 614q0 64 45 108q44 46 108 46h206v-102h-206q-22 0 -36 -16q-14 -14 -14 -36q0 -21 14 -36t36 -15h206v-103h-206q-64 0 -108 46q-45 45 -45 108zM51 1228v615q0 65 45 109q44 44 108 44t109 -44q45 -45 45 -109v-615q0 -22 16 -36q14 -14 36 -14q148 0 253 -106 t105 -253v-615q0 -64 -46 -108q-44 -45 -108 -45t-108 45q-46 44 -46 108v615q0 21 -14 36t-36 15q-148 0 -254 105q-105 105 -105 253zM154 1228q0 -106 74 -180q76 -76 182 -76q64 0 108 -44q45 -45 45 -109v-615q0 -22 15 -36t36 -14q22 0 36 14q16 14 16 36v615 q0 106 -76 181q-74 75 -180 75q-64 0 -109 45q-45 44 -45 108v615q0 21 -16 36q-14 15 -36 15t-36 -15t-14 -36v-615zM716 1162q24 8 50 12t53 4q21 0 36 14t15 36v615q0 65 45 109q46 44 109 44q62 0 108 -44q46 -45 46 -109v-615q0 -148 -106 -253t-253 -105v102 q106 0 181 76q75 74 75 180v615q0 21 -15 36t-36 15q-22 0 -36 -15q-16 -15 -16 -36v-615q0 -64 -44 -108q-45 -45 -109 -45q-11 1 -25 -1q-32 48 -78 88zM819 460v103h205q21 0 36 15t15 36q0 22 -15 36q-15 16 -36 16h-205v102h205q62 0 108 -46q46 -45 46 -108 q0 -64 -46 -108q-46 -46 -108 -46h-205z" />
<glyph unicode="&#xa6;" horiz-adv-x="614" d="M51 0v614q0 64 45 108q44 46 108 46t109 -46q45 -45 45 -108v-614q0 -62 -45 -108t-109 -46t-108 46q-45 46 -45 108zM51 1434v614q0 62 45 108q44 46 108 46t109 -46t45 -108v-614q0 -64 -45 -109t-109 -45t-108 45q-45 45 -45 109zM154 0q0 -21 14 -36t36 -15t36 15 q16 15 16 36v614q0 22 -16 36q-14 16 -36 16t-36 -16q-14 -14 -14 -36v-614zM154 1434q0 -22 14 -36q14 -16 36 -16t36 16q16 14 16 36v614q0 21 -16 36q-14 15 -36 15t-36 -15t-14 -36v-614z" />
<glyph unicode="&#xa7;" d="M51 410v1228q0 148 105 254q106 104 254 104h409q145 -2 249 -104q104 -105 104 -254h6v-1228q0 -148 -106 -254q-106 -105 -253 -105h-409q-148 0 -254 105q-105 106 -105 254zM154 410q0 -106 74 -182q76 -74 182 -74h409q106 0 181 74q75 76 75 182v1228h-5 q0 106 -75 181t-181 75h-404q-106 0 -182 -75q-74 -75 -74 -181v-1228zM256 410v1228q0 64 45 108q45 46 109 46h409q59 -2 103 -46q44 -45 45 -108h5v-1228q0 -64 -44 -109q-45 -45 -109 -45h-409q-64 0 -109 45t-45 109zM358 410q0 -22 16 -36q14 -16 36 -16h409 q21 0 36 16q15 14 15 36v1228h-5q1 22 -15 36q-14 16 -36 16h-404q-22 0 -36 -16q-16 -14 -16 -36v-1228z" />
<glyph unicode="&#xa8;" d="M256 2252q0 64 45 109t109 45t108 -45q45 -45 45 -109t-45 -108q-44 -45 -108 -45t-109 45q-45 44 -45 108zM358 2252q0 -22 16 -36q14 -14 36 -14t36 14t14 36q0 20 -17 36q-15 16 -33 16q-22 0 -36 -16q-16 -14 -16 -36zM666 2252q0 64 44 109q45 45 109 45 q65 0 109 -45t44 -109t-44 -108q-44 -45 -109 -45t-109 45q-44 44 -44 108zM768 2252q0 -22 15 -36q14 -14 36 -14q21 0 36 14t15 36q0 20 -18 36q-16 16 -33 16q-22 0 -36 -16q-15 -14 -15 -36z" />
<glyph unicode="&#xa9;" d="M51 410v1228q0 148 105 254q106 104 254 104h409q145 -2 249 -104q104 -105 104 -254h6v-1228q0 -148 -106 -254q-106 -105 -253 -105h-409q-148 0 -254 105q-105 106 -105 254zM154 410q0 -106 74 -182q76 -74 182 -74h409q106 0 181 74q75 76 75 182v1228h-5 q0 106 -75 181t-181 75h-404q-106 0 -182 -75q-74 -75 -74 -181v-1228zM256 410v1228q0 64 45 108q45 46 109 46h409q59 -2 103 -46q44 -45 45 -108h5v-1228q0 -64 -44 -109q-45 -45 -109 -45h-409q-64 0 -109 45t-45 109zM358 410q0 -22 16 -36q14 -16 36 -16h409 q21 0 36 16q15 14 15 36v1228h-5q1 22 -15 36q-14 16 -36 16h-404q-22 0 -36 -16q-16 -14 -16 -36v-1228z" />
<glyph unicode="&#xaa;" d="M35 331q0 31 12 59q4 10 4 20v1228q0 148 105 254q106 104 254 104h409q145 -2 249 -104q104 -105 104 -254h6v-1434q0 -64 -46 -108q-46 -45 -108 -45q-64 0 -109 45q-45 44 -45 108v1434h-5q1 22 -15 36q-14 16 -36 16h-404q-22 0 -36 -16q-16 -14 -16 -36v-1228 q0 -36 -7 -72q-7 -34 -20 -66q-24 -58 -83 -83q-30 -12 -59 -12q-30 0 -59 12q-58 24 -83 83q-12 30 -12 59zM138 331q0 -9 4 -19q8 -20 28 -28q10 -4 20 -4t18 4q20 8 28 28q10 22 15 46q5 26 5 52v1228q0 64 45 108q45 46 109 46h409q59 -2 103 -46q44 -45 45 -108h5 v-1434q0 -22 16 -36q14 -14 36 -14q21 0 36 14t15 36v1434h-5q0 106 -75 181t-181 75h-404q-106 0 -182 -75q-74 -75 -74 -181v-1228q0 -16 -4 -31q-3 -15 -8 -29q-4 -10 -4 -19zM410 870v102h409v-102h-409zM410 1075v103h409v-103h-409z" />
<glyph unicode="&#xab;" horiz-adv-x="1843" d="M51 1024q0 62 45 108q44 46 108 46q148 0 254 -106q105 -106 105 -253q0 -22 15 -36q15 -15 36 -15q36 0 71 -7t67 -21q58 -24 82 -82q12 -30 12 -60t-12 -58q-24 -58 -82 -84q-30 -12 -60 -12t-58 12q-10 4 -20 4q-148 0 -254 106q-104 105 -104 253q0 21 -16 36 q-14 15 -36 15q-64 0 -108 45q-45 46 -45 109zM154 1024q0 -22 14 -36q14 -16 36 -16q64 0 109 -44q45 -45 45 -109q0 -106 75 -181t181 -75q16 0 30 -3q14 -2 29 -8q9 -4 19 -4t20 4q20 8 28 28q4 10 4 19q0 10 -4 19q-8 20 -28 28q-23 10 -47 14q-25 6 -51 6 q-64 0 -108 44q-46 45 -46 109q0 106 -74 181q-76 75 -182 75q-22 0 -36 -15t-14 -36zM256 1228q0 148 104 254q106 105 254 105q10 0 20 4q28 12 58 12t60 -12q58 -24 82 -83q12 -30 12 -59q0 -30 -12 -59q-24 -58 -82 -83q-32 -15 -67 -21t-71 -6q-21 0 -36 -16 q-15 -14 -15 -36q1 -26 -3 -52t-12 -50q-40 44 -88 77v25q0 64 46 109q45 45 108 45q26 0 51 5q24 5 47 15q20 8 28 28q4 10 4 18q0 10 -4 20q-8 20 -28 28q-10 4 -20 4t-19 -4q-15 -6 -29 -8q-15 -4 -30 -4q-106 0 -181 -74q-75 -76 -75 -182h-102zM768 1024q0 62 45 108 t109 46q148 0 253 -106t105 -253q0 -22 15 -36q14 -15 36 -15q36 0 71 -7q34 -7 66 -21q58 -24 84 -82q12 -30 12 -60t-12 -58q-24 -58 -84 -84q-29 -12 -58 -12q-30 0 -60 12q-10 4 -19 4q-147 0 -253 106q-106 105 -106 253q0 21 -14 36t-36 15q-64 0 -109 45 q-45 46 -45 109zM870 1024q0 -22 16 -36q14 -16 36 -16q64 0 108 -44q45 -45 45 -109q0 -106 75 -181t181 -75q15 0 31 -3q14 -2 28 -8q10 -4 20 -4t19 4q19 8 27 28q4 10 4 19q0 10 -4 19q-8 20 -27 28q-23 10 -47 14q-24 6 -51 6q-65 0 -109 44q-44 45 -44 109 q0 106 -76 181q-74 75 -180 75q-22 0 -36 -15q-16 -15 -16 -36zM972 1228q0 148 106 254q105 105 253 105q9 0 19 4q30 12 60 12q29 0 58 -12q60 -24 84 -83q12 -30 12 -59q0 -30 -12 -59q-25 -58 -84 -83q-32 -15 -66 -21q-35 -6 -71 -6q-22 0 -36 -16q-15 -14 -15 -36 q0 -26 -4 -52q-3 -26 -11 -50q-40 44 -89 77q2 13 2 25q0 64 44 109q45 45 109 45q27 0 51 5t47 15q19 8 27 28q4 10 4 18q0 10 -4 20q-8 20 -27 28q-9 4 -19 4t-20 -4q-14 -6 -28 -8q-16 -4 -31 -4q-106 0 -181 -74q-75 -76 -75 -182h-103z" />
<glyph unicode="&#xac;" d="M51 1024q0 62 45 108q44 46 108 46h615q145 -2 249 -106q104 -106 104 -253h6v-205q0 -64 -46 -108q-46 -46 -108 -46q-64 0 -109 46q-45 45 -45 108v205h-5q1 21 -15 36q-14 15 -36 15h-610q-64 0 -108 45q-45 46 -45 109zM154 1024q0 -22 14 -36q14 -16 36 -16h615 q59 -2 103 -44q44 -45 45 -109h5v-205q0 -21 16 -36q14 -15 36 -15q21 0 36 15t15 36v205h-5q0 106 -75 181t-181 75h-610q-22 0 -36 -15t-14 -36z" />
<glyph unicode="&#xad;" d="M51 1434q0 64 45 108q44 45 108 45h820q62 0 108 -45q46 -44 46 -108t-46 -109t-108 -45h-820q-64 0 -108 45q-45 45 -45 109zM154 1434q0 -22 14 -36q14 -16 36 -16h820q21 0 36 16q15 14 15 36t-15 36t-36 14h-820q-22 0 -36 -14t-14 -36z" />
<glyph unicode="&#xae;" d="M51 410v1228q0 148 105 254q106 104 254 104h409q145 -2 249 -104q104 -105 104 -254h6v-1228q0 -148 -106 -254q-106 -105 -253 -105h-409q-148 0 -254 105q-105 106 -105 254zM154 410q0 -106 74 -182q76 -74 182 -74h409q106 0 181 74q75 76 75 182v1228h-5 q0 106 -75 181t-181 75h-404q-106 0 -182 -75q-74 -75 -74 -181v-1228zM256 410v1228q0 64 45 108q45 46 109 46h409q59 -2 103 -46q44 -45 45 -108h5v-1228q0 -64 -44 -109q-45 -45 -109 -45h-409q-64 0 -109 45t-45 109zM358 410q0 -22 16 -36q14 -16 36 -16h409 q21 0 36 16q15 14 15 36v1228h-5q1 22 -15 36q-14 16 -36 16h-404q-22 0 -36 -16q-16 -14 -16 -36v-1228z" />
<glyph unicode="&#xaf;" d="M51 1843q0 65 45 109q44 44 108 44h820q62 0 108 -44q46 -45 46 -109q0 -65 -46 -109t-108 -44h-820q-64 0 -108 44q-45 45 -45 109zM154 1843q0 -22 14 -36q14 -15 36 -15h820q21 0 36 15q15 14 15 36q0 21 -15 36t-36 15h-820q-22 0 -36 -15t-14 -36z" />
<glyph unicode="&#xb0;" d="M51 1228v410q0 36 7 71t20 67q24 58 83 82q30 12 59 12q30 0 59 -12q58 -24 83 -82q12 -30 12 -60t-12 -58q-4 -10 -4 -20v-410q0 -22 16 -36q14 -14 36 -14h409q21 0 36 14t15 36v410h-5q1 22 -15 36q-14 16 -36 16h-200q-64 0 -108 44q-46 45 -46 109q0 65 46 109 q45 44 108 44h205q145 -2 249 -104q104 -105 104 -254h6v-410q0 -148 -106 -253t-253 -105h-409q-148 0 -254 105q-105 105 -105 253zM154 1228q0 -106 74 -180q76 -76 182 -76h409q106 0 181 76q75 74 75 180v410h-5q0 106 -75 181t-181 75h-200q-21 0 -36 -15t-15 -36 q0 -22 15 -36q15 -15 36 -15h205q59 -2 103 -46q44 -45 45 -108h5v-410q0 -64 -44 -108q-45 -45 -109 -45h-409q-64 0 -109 45q-45 44 -45 108v410q0 16 2 30q3 14 9 29q4 9 4 19t-4 20q-7 20 -27 28q-10 4 -20 4t-20 -4q-20 -8 -28 -28q-10 -23 -14 -47q-4 -25 -4 -51v-410 z" />
<glyph unicode="&#xb1;" d="M51 204q0 64 45 109q44 45 108 45h820q62 0 108 -45t46 -109t-46 -108q-46 -45 -108 -45h-820q-64 0 -108 45q-45 44 -45 108zM51 1024q0 62 45 108q44 46 108 46h206q148 0 253 -106t105 -253v-205q0 -64 -46 -108q-44 -46 -108 -46t-108 46q-46 45 -46 108v205 q0 21 -14 36t-36 15h-206q-64 0 -108 45q-45 46 -45 109zM154 204q0 -22 14 -36t36 -14h820q21 0 36 14t15 36t-15 36q-15 16 -36 16h-820q-22 0 -36 -16q-14 -14 -14 -36zM154 1024q0 -22 14 -36q14 -16 36 -16h206q64 0 108 -44q45 -45 45 -109v-205q0 -21 15 -36t36 -15 q22 0 36 15q16 15 16 36v205q0 106 -76 181q-74 75 -180 75h-206q-22 0 -36 -15t-14 -36zM460 1228v206q0 64 46 108q45 45 108 45q64 0 108 -45q46 -44 46 -108v-326q-44 55 -102 94v232q0 22 -16 36q-14 14 -36 14q-21 0 -36 -14t-15 -36v-206h-103zM819 870v102h205 q21 0 36 16q15 15 15 36t-15 36t-36 15h-205v103h205q62 0 108 -46t46 -108q0 -64 -46 -109t-108 -45h-205z" />
<glyph unicode="&#xb2;" d="M51 1228q0 148 105 254q106 105 254 105h409q21 0 36 15t15 36h-5q1 22 -15 36q-14 16 -36 16h-610q-64 0 -108 44q-45 45 -45 109q0 65 45 109q44 44 108 44h615q145 -2 249 -104q104 -105 104 -254h6q0 -148 -106 -254q-106 -104 -253 -104h-409q-22 0 -36 -16 q-16 -14 -16 -36t16 -36q14 -14 36 -14h409q36 0 71 -8q34 -8 66 -20q58 -25 84 -83q12 -30 12 -59q0 -30 -12 -59q-24 -58 -84 -83q-29 -12 -58 -12q-30 0 -60 12q-10 4 -19 4h-409q-148 0 -254 105q-105 105 -105 253zM154 1228q0 -106 74 -180q76 -76 182 -76h409 q15 0 31 -2q14 -2 28 -9q10 -4 20 -4t19 4q19 8 27 28q4 9 4 19t-4 20q-8 20 -27 28q-23 10 -47 14q-24 5 -51 5h-409q-64 0 -109 45q-45 44 -45 108t45 109t109 45h409q106 0 181 75t75 181h-5q0 106 -75 181t-181 75h-610q-22 0 -36 -15t-14 -36q0 -22 14 -36 q14 -15 36 -15h615q59 -2 103 -46q44 -45 45 -108h5q0 -64 -44 -108q-45 -46 -109 -46h-409q-106 0 -182 -74q-74 -76 -74 -182z" />
<glyph unicode="&#xb3;" d="M51 1024q0 62 45 108q44 46 108 46h615q21 0 36 14t15 36h102q0 -64 -44 -108q-45 -45 -109 -45h-615q-22 0 -36 -15t-14 -36q0 -22 14 -36q14 -16 36 -16h615q106 0 181 76q75 74 75 180q1 12 -1 26q48 32 88 77q8 -24 12 -50q4 -27 4 -53q0 -148 -106 -253t-253 -105 h-615q-64 0 -108 45q-45 46 -45 109zM51 1843q0 65 45 109q44 44 108 44h615q145 -2 249 -104q104 -105 104 -254h6q0 -148 -106 -254q-106 -104 -253 -104h-409q-64 0 -109 45t-45 109t45 108q45 45 109 45h409q21 0 36 15t15 36h-5q1 22 -15 36q-14 16 -36 16h-610 q-64 0 -108 44q-45 45 -45 109zM154 1843q0 -22 14 -36q14 -15 36 -15h615q59 -2 103 -46q44 -45 45 -108h5q0 -64 -44 -108q-45 -46 -109 -46h-409q-22 0 -36 -14q-16 -14 -16 -36t16 -36q14 -16 36 -16h409q106 0 181 75t75 181h-5q0 106 -75 181t-181 75h-610 q-22 0 -36 -15t-14 -36z" />
<glyph unicode="&#xb4;" horiz-adv-x="1023" d="M394 2237q0 30 12 59q24 58 83 83q33 13 67 20t70 7q10 0 20 4q28 12 58 12t60 -12q58 -24 82 -83q12 -30 12 -59q0 -30 -12 -59q-24 -58 -82 -83q-32 -13 -67 -20t-71 -7q-10 0 -20 -4q-30 -12 -58 -12q-30 0 -59 12q-59 24 -83 83q-12 30 -12 59zM496 2238q0 -10 4 -20 q8 -20 28 -28q10 -4 20 -4t19 4q14 6 29 8q15 4 30 4q26 0 51 4q24 4 47 14q20 8 28 28q4 10 4 20t-4 20q-8 20 -28 27q-10 4 -20 4t-19 -4q-15 -7 -29 -9q-15 -2 -30 -2q-26 0 -50 -5t-48 -15q-20 -8 -28 -28q-4 -10 -4 -18z" />
<glyph unicode="&#xb5;" d="M51 204v206q0 148 105 253q106 105 254 105h409q21 0 36 15q15 14 15 36v1024q0 65 45 109q46 44 109 44q62 0 108 -44q46 -45 46 -109v-1024q0 -147 -106 -253t-253 -106h-409q-22 0 -36 -14q-16 -14 -16 -36v-206q0 -64 -45 -108q-45 -45 -109 -45t-108 45 q-45 44 -45 108zM51 819v1024q0 65 45 109q44 44 108 44t109 -44q45 -45 45 -109v-1024h-102v1024q0 21 -16 36q-14 15 -36 15t-36 -15t-14 -36v-1024v-25q-48 -34 -88 -78q-8 24 -12 50t-3 53zM154 204q0 -22 14 -36t36 -14t36 14q16 14 16 36v206q0 64 45 108 q45 45 109 45h409q106 0 181 75t75 181v1024q0 21 -15 36t-36 15q-22 0 -36 -15q-16 -15 -16 -36v-1024q0 -65 -44 -109q-45 -44 -109 -44h-409q-106 0 -182 -76q-74 -74 -74 -180v-206z" />
<glyph unicode="&#xb6;" horiz-adv-x="2252" d="M51 819v819h5q0 148 104 254q104 104 250 104h409q145 -2 249 -104q104 -105 104 -254h6v-1434q0 -64 -46 -108q-46 -45 -108 -45q-64 0 -109 45q-45 44 -45 108v1434h-5q1 22 -15 36q-14 16 -36 16h-400q-22 0 -36 -16q-14 -14 -14 -36h-6v-819q0 -22 16 -36 q14 -15 36 -15h204q64 0 108 -46q46 -45 46 -108q0 -64 -46 -108q-45 -46 -108 -46h-204q-148 0 -254 106q-105 105 -105 253zM154 819q0 -106 74 -181q76 -75 182 -75h204q22 0 36 15q16 15 16 36q0 22 -16 36q-14 16 -36 16h-204q-64 0 -109 44q-45 45 -45 109v819h5 q1 64 45 108t104 46h409q59 -2 103 -46q44 -45 45 -108h5v-1434q0 -22 16 -36q14 -14 36 -14q21 0 36 14t15 36v1434h-5q0 106 -75 181t-181 75h-400q-106 0 -181 -75t-75 -181h-4v-819zM1280 204v1434q0 148 104 254q106 104 254 104q64 0 108 -44q46 -45 46 -109 q0 -65 -46 -109q-45 -44 -108 -44q-21 0 -36 -16q-15 -14 -15 -36v-1434q0 -64 -45 -108q-44 -45 -108 -45t-109 45q-45 44 -45 108zM1382 204q0 -22 16 -36q14 -14 36 -14t36 14t14 36v1434q0 64 46 108q45 46 108 46q22 0 36 15q16 14 16 36q0 21 -16 36q-14 15 -36 15 q-106 0 -181 -75t-75 -181v-1434z" />
<glyph unicode="&#xb7;" horiz-adv-x="614" d="M51 1024q0 62 45 108q44 46 108 46t109 -46t45 -108q0 -64 -45 -109t-109 -45t-108 45q-45 46 -45 109zM154 1024q0 -22 14 -36q14 -16 36 -16t36 16q16 15 16 36q0 20 -18 36q-16 15 -34 15q-22 0 -36 -15t-14 -36z" />
<glyph unicode="&#xb8;" horiz-adv-x="614" d="M35 -78q0 30 12 58q4 10 4 20v204q0 64 45 109q44 45 108 45t109 -45t45 -109v-204q0 -36 -7 -70t-20 -67q-24 -58 -83 -83q-29 -12 -59 -12t-59 12q-58 24 -83 83q-12 30 -12 59zM138 -78q0 -10 4 -20q8 -20 28 -28q10 -4 20 -4t18 4q20 8 28 28q10 24 15 48q5 25 5 50 v204q0 22 -16 36q-14 16 -36 16t-36 -16q-14 -14 -14 -36v-204q0 -15 -4 -30q-3 -14 -8 -28q-4 -10 -4 -20z" />
<glyph unicode="&#xb9;" horiz-adv-x="1024" d="M51 1843q0 65 45 109q44 44 108 44h206q145 -2 248 -104q105 -105 105 -254h5v-614q0 -64 -46 -109q-44 -45 -108 -45t-108 45q-46 46 -46 109v614h-5q0 22 -15 36q-14 16 -36 16h-200q-64 0 -108 44q-45 45 -45 109zM154 1843q0 -22 14 -36q14 -15 36 -15h206 q60 -2 103 -46q45 -45 45 -108h5v-614q0 -22 15 -36q15 -16 36 -16q22 0 36 16q16 15 16 36v614h-6q0 106 -74 181q-76 75 -182 75h-200q-22 0 -36 -15t-14 -36z" />
<glyph unicode="&#xba;" d="M51 410v1228q0 36 7 71t20 67q24 58 83 82q30 12 59 12q30 0 59 -12q58 -24 83 -82q12 -30 12 -60t-12 -58q-4 -10 -4 -20v-1228q0 -22 16 -36q14 -16 36 -16h409q21 0 36 16q15 14 15 36v1228h-5q1 22 -15 36q-14 16 -36 16h-200q-64 0 -108 44q-46 45 -46 109 q0 65 46 109q45 44 108 44h205q145 -2 249 -104q104 -105 104 -254h6v-1228q0 -148 -106 -254q-106 -105 -253 -105h-409q-148 0 -254 105q-105 106 -105 254zM154 410q0 -106 74 -182q76 -74 182 -74h409q106 0 181 74q75 76 75 182v1228h-5q0 106 -75 181t-181 75h-200 q-21 0 -36 -15t-15 -36q0 -22 15 -36q15 -15 36 -15h205q59 -2 103 -46q44 -45 45 -108h5v-1228q0 -64 -44 -109q-45 -45 -109 -45h-409q-64 0 -109 45t-45 109v1228q0 16 2 30q3 14 9 29q4 9 4 19t-4 20q-7 20 -27 28q-10 4 -20 4t-20 -4q-20 -8 -28 -28q-10 -23 -14 -47 q-4 -25 -4 -51v-1228z" />
<glyph unicode="&#xbb;" horiz-adv-x="2252" d="M86 598q0 30 12 60q24 58 84 82q32 14 66 21q35 7 71 7q21 0 36 15q15 14 15 36q0 147 105 253t253 106q64 0 109 -46t45 -108q0 -64 -45 -109t-109 -45q-22 0 -36 -15t-14 -36q0 -147 -106 -253t-253 -106q-9 0 -19 -4q-30 -12 -60 -12t-58 12q-58 24 -84 84 q-12 30 -12 58zM86 1449q0 30 12 59q24 58 84 83q30 12 58 12q30 0 60 -12q9 -4 19 -4q147 0 253 -105q106 -106 106 -254h-103q0 106 -75 182q-75 74 -181 74q-15 0 -31 4q-14 3 -28 8q-10 4 -20 4t-19 -4q-20 -8 -28 -28q-3 -10 -3 -20t3 -18q8 -20 28 -28q23 -10 47 -15 q25 -5 51 -5q65 0 109 -45t44 -109q0 -12 2 -25q-49 -33 -89 -77q-8 24 -11 50q-4 26 -4 52q0 22 -15 36q-15 16 -36 16q-36 0 -71 6q-34 7 -66 21q-58 24 -84 83q-12 30 -12 59zM190 599q0 -9 3 -19q8 -20 28 -28q9 -4 19 -4t20 4q14 6 28 8q16 3 31 3q106 0 181 75t75 181 q0 65 45 109q44 44 108 44q22 0 36 16q16 15 16 36t-16 36q-14 15 -36 15q-106 0 -180 -75q-76 -75 -76 -181q0 -65 -44 -109q-45 -44 -109 -44q-26 0 -51 -6q-24 -5 -47 -14q-20 -8 -28 -28q-3 -10 -3 -19zM804 598q0 30 12 60q24 58 82 82q32 14 67 21q34 7 71 7 q21 0 36 15q15 14 15 36q0 147 105 253q106 106 254 106q64 0 108 -46q45 -46 45 -108q0 -64 -45 -109q-44 -45 -108 -45q-22 0 -36 -15q-16 -15 -16 -36q0 -147 -104 -253q-106 -106 -254 -106q-10 0 -20 -4q-28 -12 -58 -12t-60 12q-58 24 -82 84q-12 30 -12 58zM804 1449 q0 30 12 59q24 58 82 83q30 12 60 12t58 -12q10 -4 20 -4q148 0 254 -105q104 -106 104 -254h-102q0 106 -75 182q-75 74 -181 74q-16 0 -30 4q-15 3 -29 8q-10 4 -20 4t-19 -4q-20 -8 -28 -28q-4 -10 -4 -20t4 -18q8 -20 28 -28q23 -10 47 -15q25 -5 51 -5q62 0 108 -45 t46 -109v-25q-48 -33 -88 -77q-8 24 -12 50t-3 52q0 22 -15 36q-15 16 -36 16q-36 0 -71 6q-35 7 -67 21q-58 24 -82 83q-12 30 -12 59zM906 599q0 -9 4 -19q8 -20 28 -28q9 -4 19 -4t20 4q15 6 29 8q15 3 30 3q106 0 181 75t75 181q0 65 45 109t109 44q22 0 36 16 q14 15 14 36t-14 36t-36 15q-106 0 -182 -75q-74 -75 -74 -181q0 -65 -46 -109t-108 -44q-26 0 -51 -6q-24 -5 -47 -14q-20 -8 -28 -28q-4 -10 -4 -19z" />
<glyph unicode="&#xbc;" d="M51 410v1228q0 148 105 254q106 104 254 104h409q145 -2 249 -104q104 -105 104 -254h6v-1228q0 -148 -106 -254q-106 -105 -253 -105h-409q-148 0 -254 105q-105 106 -105 254zM154 410q0 -106 74 -182q76 -74 182 -74h409q106 0 181 74q75 76 75 182v1228h-5 q0 106 -75 181t-181 75h-404q-106 0 -182 -75q-74 -75 -74 -181v-1228zM256 410v1228q0 64 45 108q45 46 109 46h409q59 -2 103 -46q44 -45 45 -108h5v-1228q0 -64 -44 -109q-45 -45 -109 -45h-409q-64 0 -109 45t-45 109zM358 410q0 -22 16 -36q14 -16 36 -16h409 q21 0 36 16q15 14 15 36v1228h-5q1 22 -15 36q-14 16 -36 16h-404q-22 0 -36 -16q-16 -14 -16 -36v-1228z" />
<glyph unicode="&#xbd;" d="M51 410v1228q0 148 105 254q106 104 254 104h409q145 -2 249 -104q104 -105 104 -254h6v-1228q0 -148 -106 -254q-106 -105 -253 -105h-409q-148 0 -254 105q-105 106 -105 254zM154 410q0 -106 74 -182q76 -74 182 -74h409q106 0 181 74q75 76 75 182v1228h-5 q0 106 -75 181t-181 75h-404q-106 0 -182 -75q-74 -75 -74 -181v-1228zM256 410v1228q0 64 45 108q45 46 109 46h409q59 -2 103 -46q44 -45 45 -108h5v-1228q0 -64 -44 -109q-45 -45 -109 -45h-409q-64 0 -109 45t-45 109zM358 410q0 -22 16 -36q14 -16 36 -16h409 q21 0 36 16q15 14 15 36v1228h-5q1 22 -15 36q-14 16 -36 16h-404q-22 0 -36 -16q-16 -14 -16 -36v-1228z" />
<glyph unicode="&#xbe;" d="M51 410v1228q0 148 105 254q106 104 254 104h409q145 -2 249 -104q104 -105 104 -254h6v-1228q0 -148 -106 -254q-106 -105 -253 -105h-409q-148 0 -254 105q-105 106 -105 254zM154 410q0 -106 74 -182q76 -74 182 -74h409q106 0 181 74q75 76 75 182v1228h-5 q0 106 -75 181t-181 75h-404q-106 0 -182 -75q-74 -75 -74 -181v-1228zM256 410v1228q0 64 45 108q45 46 109 46h409q59 -2 103 -46q44 -45 45 -108h5v-1228q0 -64 -44 -109q-45 -45 -109 -45h-409q-64 0 -109 45t-45 109zM358 410q0 -22 16 -36q14 -16 36 -16h409 q21 0 36 16q15 14 15 36v1228h-5q1 22 -15 36q-14 16 -36 16h-404q-22 0 -36 -16q-16 -14 -16 -36v-1228z" />
<glyph unicode="&#xbf;" d="M51 410v409q0 147 105 253q106 106 254 106q22 0 36 14t14 36q0 10 -4 20q-12 30 -12 59q0 30 12 59q24 58 84 83q30 12 58 12q30 0 60 -12q58 -24 82 -83q14 -32 21 -66q7 -36 7 -72q0 -148 -105 -253t-253 -105q-22 0 -36 -15q-16 -15 -16 -36v-409h6q0 -22 14 -36 q14 -16 36 -16h610q62 0 108 -45t46 -109t-46 -108q-46 -45 -108 -45h-614q-146 2 -250 105q-104 106 -104 254h-5zM154 410h4q0 -106 75 -182q75 -74 181 -74h610q21 0 36 14t15 36t-15 36q-15 16 -36 16h-614q-60 2 -104 45q-44 45 -45 109h-5v409q0 65 45 109t109 44 q106 0 180 76q76 74 76 180q0 26 -6 52q-5 24 -14 46q-8 20 -28 28q-10 4 -19 4t-19 -4q-20 -8 -28 -28q-4 -10 -4 -19t4 -19q6 -14 8 -29q3 -17 3 -31q0 -64 -45 -108q-44 -45 -108 -45q-106 0 -182 -75q-74 -75 -74 -181v-409zM460 1843q0 65 46 109q45 44 108 44 q64 0 108 -44q46 -45 46 -109q0 -65 -46 -109q-44 -44 -108 -44t-108 44q-46 45 -46 109zM563 1843q-1 -20 17 -36q16 -15 34 -15q22 0 36 15q16 14 16 36q0 21 -16 36q-14 15 -36 15q-21 0 -36 -15t-15 -36z" />
<glyph unicode="&#xc0;" d="M35 331q0 31 12 59q4 10 4 20v1228q0 148 105 254q106 104 254 104h409q145 -2 249 -104q104 -105 104 -254h6v-1434q0 -64 -46 -108q-46 -45 -108 -45q-64 0 -109 45q-45 44 -45 108v1434h-5q1 22 -15 36q-14 16 -36 16h-404q-22 0 -36 -16q-16 -14 -16 -36v-1228 q0 -36 -7 -72q-7 -34 -20 -66q-24 -58 -83 -83q-30 -12 -59 -12q-30 0 -59 12q-58 24 -83 83q-12 30 -12 59zM138 331q0 -9 4 -19q8 -20 28 -28q10 -4 20 -4t18 4q20 8 28 28q10 22 15 46q5 26 5 52v1228q0 64 45 108q45 46 109 46h409q59 -2 103 -46q44 -45 45 -108h5 v-1434q0 -22 16 -36q14 -14 36 -14q21 0 36 14t15 36v1434h-5q0 106 -75 181t-181 75h-404q-106 0 -182 -75q-74 -75 -74 -181v-1228q0 -16 -4 -31q-3 -15 -8 -29q-4 -10 -4 -19zM382 2268q0 30 12 59q24 58 83 83q30 12 59 12q28 0 58 -12q10 -4 20 -4q36 0 71 -7t67 -20 q58 -24 82 -83q12 -30 12 -59q0 -30 -12 -59q-24 -58 -82 -83q-30 -12 -60 -12t-58 12q-10 4 -20 4q-36 0 -70 7t-67 20q-58 24 -83 83q-12 30 -12 59zM410 870v102h409v-102h-409zM410 1075v103h409v-103h-409zM484 2268q0 -10 4 -20q8 -20 28 -28q22 -10 48 -14 q25 -4 50 -4q16 0 30 -4q14 -3 29 -8q9 -4 19 -4t20 4q20 8 28 28q4 10 4 20t-4 18q-8 20 -28 28q-23 10 -47 15q-25 5 -51 5q-15 0 -30 2q-15 3 -29 9q-9 4 -19 4t-20 -4q-20 -7 -28 -27q-4 -10 -4 -20z" />
<glyph unicode="&#xc1;" d="M35 331q0 31 12 59q4 10 4 20v1228q0 148 105 254q106 104 254 104h409q145 -2 249 -104q104 -105 104 -254h6v-1434q0 -64 -46 -108q-46 -45 -108 -45q-64 0 -109 45q-45 44 -45 108v1434h-5q1 22 -15 36q-14 16 -36 16h-404q-22 0 -36 -16q-16 -14 -16 -36v-1228 q0 -36 -7 -72q-7 -34 -20 -66q-24 -58 -83 -83q-30 -12 -59 -12q-30 0 -59 12q-58 24 -83 83q-12 30 -12 59zM138 331q0 -9 4 -19q8 -20 28 -28q10 -4 20 -4t18 4q20 8 28 28q10 22 15 46q5 26 5 52v1228q0 64 45 108q45 46 109 46h409q59 -2 103 -46q44 -45 45 -108h5 v-1434q0 -22 16 -36q14 -14 36 -14q21 0 36 14t15 36v1434h-5q0 106 -75 181t-181 75h-404q-106 0 -182 -75q-74 -75 -74 -181v-1228q0 -16 -4 -31q-3 -15 -8 -29q-4 -10 -4 -19zM382 2237q0 30 12 59q24 58 83 83q33 13 67 20t70 7q10 0 20 4q28 12 58 12t60 -12 q58 -24 82 -83q12 -30 12 -59q0 -30 -12 -59q-24 -58 -82 -83q-32 -13 -67 -20t-71 -7q-10 0 -20 -4q-30 -12 -58 -12q-30 0 -59 12q-59 24 -83 83q-12 30 -12 59zM410 870v102h409v-102h-409zM410 1075v103h409v-103h-409zM484 2238q0 -10 4 -20q8 -20 28 -28q10 -4 20 -4 t19 4q14 6 29 8q15 4 30 4q26 0 51 4q24 4 47 14q20 8 28 28q4 10 4 20t-4 20q-8 20 -28 27q-10 4 -20 4t-19 -4q-15 -7 -29 -9q-15 -2 -30 -2q-26 0 -50 -5t-48 -15q-20 -8 -28 -28q-4 -10 -4 -18z" />
<glyph unicode="&#xc2;" d="M35 331q0 31 12 59q4 10 4 20v1228q0 148 105 254q106 104 254 104h409q145 -2 249 -104q104 -105 104 -254h6v-1434q0 -64 -46 -108q-46 -45 -108 -45q-64 0 -109 45q-45 44 -45 108v1434h-5q1 22 -15 36q-14 16 -36 16h-404q-22 0 -36 -16q-16 -14 -16 -36v-1228 q0 -36 -7 -72q-7 -34 -20 -66q-24 -58 -83 -83q-30 -12 -59 -12q-30 0 -59 12q-58 24 -83 83q-12 30 -12 59zM138 331q0 -9 4 -19q8 -20 28 -28q10 -4 20 -4t18 4q20 8 28 28q10 22 15 46q5 26 5 52v1228q0 64 45 108q45 46 109 46h409q59 -2 103 -46q44 -45 45 -108h5 v-1434q0 -22 16 -36q14 -14 36 -14q21 0 36 14t15 36v1434h-5q0 106 -75 181t-181 75h-404q-106 0 -182 -75q-74 -75 -74 -181v-1228q0 -16 -4 -31q-3 -15 -8 -29q-4 -10 -4 -19zM382 2237q0 30 12 59q24 58 83 83q33 13 67 20t70 7t71 -7t67 -20q58 -24 82 -83 q12 -30 12 -59q0 -30 -12 -59q-24 -58 -82 -83q-30 -12 -60 -12t-58 12q-10 4 -20 4t-20 -4q-30 -12 -58 -12q-30 0 -59 12q-59 24 -83 83q-12 30 -12 59zM410 870v102h409v-102h-409zM410 1075v103h409v-103h-409zM484 2238q0 -10 4 -20q8 -20 28 -28q10 -4 20 -4t19 4 q14 6 29 8q15 4 30 4q16 0 30 -4q14 -3 29 -8q9 -4 19 -4t20 4q20 8 28 28q4 10 4 20t-4 18q-8 20 -28 28q-23 10 -47 15q-25 5 -51 5t-50 -5t-48 -15q-20 -8 -28 -28q-4 -10 -4 -18z" />
<glyph unicode="&#xc3;" d="M35 331q0 31 12 59q4 10 4 20v1228q0 148 105 254q106 104 254 104h409q145 -2 249 -104q104 -105 104 -254h6v-1434q0 -64 -46 -108q-46 -45 -108 -45q-64 0 -109 45q-45 44 -45 108v1434h-5q1 22 -15 36q-14 16 -36 16h-404q-22 0 -36 -16q-16 -14 -16 -36v-1228 q0 -36 -7 -72q-7 -34 -20 -66q-24 -58 -83 -83q-30 -12 -59 -12q-30 0 -59 12q-58 24 -83 83q-12 30 -12 59zM138 331q0 -9 4 -19q8 -20 28 -28q10 -4 20 -4t18 4q20 8 28 28q10 22 15 46q5 26 5 52v1228q0 64 45 108q45 46 109 46h409q59 -2 103 -46q44 -45 45 -108h5 v-1434q0 -22 16 -36q14 -14 36 -14q21 0 36 14t15 36v1434h-5q0 106 -75 181t-181 75h-404q-106 0 -182 -75q-74 -75 -74 -181v-1228q0 -16 -4 -31q-3 -15 -8 -29q-4 -10 -4 -19zM177 2237q0 30 12 59q24 58 83 83q32 13 66 20q36 7 72 7h409q9 0 19 4q30 12 60 12 q29 0 58 -12q60 -24 84 -83q12 -30 12 -59q0 -30 -12 -59q-25 -58 -84 -83q-32 -13 -66 -20q-35 -7 -71 -7h-409q-10 0 -20 -4q-28 -12 -59 -12q-30 0 -59 12q-59 24 -83 83q-12 30 -12 59zM280 2238q0 -10 4 -20q8 -20 28 -28q10 -4 19 -4t19 4q14 6 29 8q15 4 31 4h409 q27 0 51 4t47 14q19 8 27 28q4 10 4 20t-4 20q-8 20 -27 27q-9 4 -19 4t-20 -4q-14 -7 -28 -9q-16 -2 -31 -2h-409q-26 0 -52 -5q-24 -5 -46 -15q-20 -8 -28 -28q-4 -10 -4 -18zM410 870v102h409v-102h-409zM410 1075v103h409v-103h-409z" />
<glyph unicode="&#xc4;" d="M35 331q0 31 12 59q4 10 4 20v1228q0 148 105 254q106 104 254 104h409q145 -2 249 -104q104 -105 104 -254h6v-1434q0 -64 -46 -108q-46 -45 -108 -45q-64 0 -109 45q-45 44 -45 108v1434h-5q1 22 -15 36q-14 16 -36 16h-404q-22 0 -36 -16q-16 -14 -16 -36v-1228 q0 -36 -7 -72q-7 -34 -20 -66q-24 -58 -83 -83q-30 -12 -59 -12q-30 0 -59 12q-58 24 -83 83q-12 30 -12 59zM138 331q0 -9 4 -19q8 -20 28 -28q10 -4 20 -4t18 4q20 8 28 28q10 22 15 46q5 26 5 52v1228q0 64 45 108q45 46 109 46h409q59 -2 103 -46q44 -45 45 -108h5 v-1434q0 -22 16 -36q14 -14 36 -14q21 0 36 14t15 36v1434h-5q0 106 -75 181t-181 75h-404q-106 0 -182 -75q-74 -75 -74 -181v-1228q0 -16 -4 -31q-3 -15 -8 -29q-4 -10 -4 -19zM256 2252q0 64 45 109t109 45t108 -45q45 -45 45 -109t-45 -108q-44 -45 -108 -45t-109 45 q-45 44 -45 108zM358 2252q0 -22 16 -36q14 -14 36 -14t36 14t14 36q0 20 -17 36q-15 16 -33 16q-22 0 -36 -16q-16 -14 -16 -36zM410 870v102h409v-102h-409zM410 1075v103h409v-103h-409zM666 2252q0 64 44 109q45 45 109 45q65 0 109 -45t44 -109t-44 -108 q-44 -45 -109 -45t-109 45q-44 44 -44 108zM768 2252q0 -22 15 -36q14 -14 36 -14q21 0 36 14t15 36q0 20 -18 36q-16 16 -33 16q-22 0 -36 -16q-15 -14 -15 -36z" />
<glyph unicode="&#xc5;" d="M35 331q0 31 12 59q4 10 4 20v1228q0 148 105 254q106 104 254 104h409q21 0 36 16q15 15 15 36h-5q1 21 -15 36q-14 15 -36 15h-404q-22 0 -36 -15q-16 -15 -16 -36h-102q0 62 45 108t109 46h409q59 -2 103 -46q44 -46 45 -108h5q0 -64 -44 -109q-45 -45 -109 -45h-409 q-106 0 -182 -75q-74 -75 -74 -181v-1228q0 -16 -4 -31q-3 -15 -8 -29q-4 -10 -4 -19t4 -19q8 -20 28 -28q10 -4 20 -4t18 4q20 8 28 28q10 22 15 46q5 26 5 52v1228q0 64 45 108q45 46 109 46h409q106 0 181 74q75 75 75 182h-5q0 106 -75 181t-181 75h-404 q-106 0 -182 -75q-74 -75 -74 -181v-26q-48 -32 -88 -76q-8 24 -12 50t-3 52q0 148 105 254q106 104 254 104h409q145 -2 249 -104q104 -106 104 -254h6q0 -148 -106 -254q-106 -104 -253 -104h-409q-22 0 -36 -16q-16 -14 -16 -36v-1228q0 -36 -7 -72q-7 -34 -20 -66 q-24 -58 -83 -83q-29 -12 -59 -12t-59 12q-58 24 -83 83q-12 30 -12 59zM410 870v102h409v-102h-409zM410 1075v103h409v-103h-409zM870 204v1434h102v-1434q0 -22 16 -36q15 -14 36 -14t36 14t15 36v1434q1 12 -1 26q48 32 88 76q8 -24 12 -50t4 -52v-1434q0 -64 -46 -108 q-46 -45 -108 -45q-64 0 -109 45q-45 44 -45 108z" />
<glyph unicode="&#xc6;" horiz-adv-x="2252" d="M35 331q0 31 12 59q4 10 4 20v1228q0 148 105 254q106 104 254 104h409q147 0 253 -104q106 -105 106 -254v-1228q0 -22 14 -36q14 -16 36 -16h615q65 0 109 -45t44 -109t-44 -108q-45 -45 -109 -45h-615q-148 0 -253 105q-105 106 -105 254v1228q0 22 -15 36 q-15 16 -36 16h-409q-22 0 -36 -16q-16 -14 -16 -36v-1228q0 -36 -7 -72q-7 -34 -20 -66q-24 -58 -83 -83q-30 -12 -59 -12q-30 0 -59 12q-58 24 -83 83q-12 30 -12 59zM138 331q0 -9 4 -19q8 -20 28 -28q10 -4 20 -4t18 4q20 8 28 28q10 22 15 46q5 26 5 52v1228 q0 64 45 108q45 46 109 46h409q65 0 109 -46q44 -45 44 -108v-1228q0 -106 76 -182q74 -74 180 -74h615q21 0 36 14t15 36t-15 36q-15 16 -36 16h-615q-64 0 -108 45q-45 45 -45 109v1228q0 106 -75 181t-181 75h-409q-106 0 -182 -75q-74 -75 -74 -181v-1228q0 -16 -4 -31 q-3 -15 -8 -29q-4 -10 -4 -19zM410 870v102h409v-102h-409zM410 1075v103h409v-103h-409zM1126 1982q24 7 50 11q26 3 52 3h410q10 0 20 4q28 12 58 12t60 -12q58 -24 82 -82q12 -30 12 -60t-12 -58q-24 -58 -82 -84q-32 -14 -67 -20t-71 -6h-410v102h410q26 0 51 4 q24 5 47 15q20 8 28 28q4 9 4 19t-4 20q-8 20 -28 28q-10 4 -20 4t-19 -4q-15 -6 -29 -9q-15 -3 -30 -3h-410q-12 0 -25 -1q-32 48 -77 89zM1228 870v102h410q22 0 36 16q16 15 16 36t-16 36q-14 15 -36 15h-410v103h410q64 0 108 -46q46 -46 46 -108q0 -64 -46 -109 q-45 -45 -108 -45h-410z" />
<glyph unicode="&#xc7;" d="M51 410v1228q0 148 105 254q106 104 254 104h409q9 0 19 4q30 12 60 12q29 0 58 -12q60 -24 84 -82q12 -30 12 -60t-12 -58q-25 -58 -84 -84q-32 -14 -66 -20q-35 -6 -71 -6h-409q-22 0 -36 -16q-16 -14 -16 -36v-1228q0 -22 16 -36q14 -16 36 -16q148 0 253 -104 q105 -106 105 -254q0 -36 -7 -70t-21 -67q-24 -58 -82 -83q-30 -12 -60 -12t-58 12q-58 24 -84 83q-12 30 -12 59q0 30 12 58q4 10 4 20q0 21 -14 36t-36 15q-148 0 -254 105q-105 106 -105 254zM154 410q0 -106 74 -182q76 -74 182 -74q64 0 108 -46q45 -46 45 -108 q0 -15 -3 -30q-2 -14 -8 -28q-4 -10 -4 -20t4 -20q8 -20 28 -28q10 -4 19 -4q10 0 19 4q20 8 28 28q10 24 14 48q6 25 6 50q0 106 -76 181q-74 75 -180 75q-64 0 -109 45t-45 109v1228q0 64 45 108q45 46 109 46h409q27 0 51 4q24 5 47 15q19 8 27 28q4 9 4 19t-4 20 q-8 20 -27 28q-9 4 -19 4t-20 -4q-14 -6 -28 -9q-16 -3 -31 -3h-409q-106 0 -182 -75q-74 -75 -74 -181v-1228zM716 344q24 8 50 10q26 4 53 4h205q62 0 108 -45t46 -109t-46 -108q-46 -45 -108 -45h-205v103h205q21 0 36 14t15 36t-15 36q-15 16 -36 16h-205q-11 0 -25 -2 q-32 50 -78 90z" />
<glyph unicode="&#xc8;" d="M51 410v1228q0 148 105 254q106 104 254 104h409q9 0 19 4q30 12 60 12q29 0 58 -12q60 -24 84 -82q12 -30 12 -60t-12 -58q-25 -58 -84 -84q-32 -14 -66 -20q-35 -6 -71 -6h-409q-22 0 -36 -16q-16 -14 -16 -36v-1228q0 -22 16 -36q14 -16 36 -16h614q62 0 108 -45 t46 -109t-46 -108q-46 -45 -108 -45h-614q-148 0 -254 105q-105 106 -105 254zM154 410q0 -106 74 -182q76 -74 182 -74h614q21 0 36 14t15 36t-15 36q-15 16 -36 16h-614q-64 0 -109 45t-45 109v1228q0 64 45 108q45 46 109 46h409q27 0 51 4q24 5 47 15q19 8 27 28 q4 9 4 19t-4 20q-8 20 -27 28q-9 4 -19 4t-20 -4q-14 -6 -28 -9q-16 -3 -31 -3h-409q-106 0 -182 -75q-74 -75 -74 -181v-1228zM382 2268q0 30 12 59q24 58 83 83q30 12 59 12q28 0 58 -12q10 -4 20 -4q36 0 71 -7t67 -20q58 -24 82 -83q12 -30 12 -59q0 -30 -12 -59 q-24 -58 -82 -83q-30 -12 -60 -12t-58 12q-10 4 -20 4q-36 0 -70 7t-67 20q-58 24 -83 83q-12 30 -12 59zM410 870v102h409q21 0 36 16q15 15 15 36t-15 36t-36 15h-409v103h409q65 0 109 -46t44 -108q0 -64 -44 -109q-45 -45 -109 -45h-409zM484 2268q0 -10 4 -20 q8 -20 28 -28q22 -10 48 -14q25 -4 50 -4q16 0 30 -4q14 -3 29 -8q9 -4 19 -4t20 4q20 8 28 28q4 10 4 20t-4 18q-8 20 -28 28q-23 10 -47 15q-25 5 -51 5q-15 0 -30 2q-15 3 -29 9q-9 4 -19 4t-20 -4q-20 -7 -28 -27q-4 -10 -4 -20z" />
<glyph unicode="&#xc9;" d="M51 410v1228q0 148 105 254q106 104 254 104h409q9 0 19 4q30 12 60 12q29 0 58 -12q60 -24 84 -82q12 -30 12 -60t-12 -58q-25 -58 -84 -84q-32 -14 -66 -20q-35 -6 -71 -6h-409q-22 0 -36 -16q-16 -14 -16 -36v-1228q0 -22 16 -36q14 -16 36 -16h614q62 0 108 -45 t46 -109t-46 -108q-46 -45 -108 -45h-614q-148 0 -254 105q-105 106 -105 254zM154 410q0 -106 74 -182q76 -74 182 -74h614q21 0 36 14t15 36t-15 36q-15 16 -36 16h-614q-64 0 -109 45t-45 109v1228q0 64 45 108q45 46 109 46h409q27 0 51 4q24 5 47 15q19 8 27 28 q4 9 4 19t-4 20q-8 20 -27 28q-9 4 -19 4t-20 -4q-14 -6 -28 -9q-16 -3 -31 -3h-409q-106 0 -182 -75q-74 -75 -74 -181v-1228zM382 2237q0 30 12 59q24 58 83 83q33 13 67 20t70 7q10 0 20 4q28 12 58 12t60 -12q58 -24 82 -83q12 -30 12 -59q0 -30 -12 -59 q-24 -58 -82 -83q-32 -13 -67 -20t-71 -7q-10 0 -20 -4q-30 -12 -58 -12q-30 0 -59 12q-59 24 -83 83q-12 30 -12 59zM410 870v102h409q21 0 36 16q15 15 15 36t-15 36t-36 15h-409v103h409q65 0 109 -46t44 -108q0 -64 -44 -109q-45 -45 -109 -45h-409zM484 2238 q0 -10 4 -20q8 -20 28 -28q10 -4 20 -4t19 4q14 6 29 8q15 4 30 4q26 0 51 4q24 4 47 14q20 8 28 28q4 10 4 20t-4 20q-8 20 -28 27q-10 4 -20 4t-19 -4q-15 -7 -29 -9q-15 -2 -30 -2q-26 0 -50 -5t-48 -15q-20 -8 -28 -28q-4 -10 -4 -18z" />
<glyph unicode="&#xca;" d="M51 410v1228q0 148 105 254q106 104 254 104h409q9 0 19 4q30 12 60 12q29 0 58 -12q60 -24 84 -82q12 -30 12 -60t-12 -58q-25 -58 -84 -84q-32 -14 -66 -20q-35 -6 -71 -6h-409q-22 0 -36 -16q-16 -14 -16 -36v-1228q0 -22 16 -36q14 -16 36 -16h614q62 0 108 -45 t46 -109t-46 -108q-46 -45 -108 -45h-614q-148 0 -254 105q-105 106 -105 254zM154 410q0 -106 74 -182q76 -74 182 -74h614q21 0 36 14t15 36t-15 36q-15 16 -36 16h-614q-64 0 -109 45t-45 109v1228q0 64 45 108q45 46 109 46h409q27 0 51 4q24 5 47 15q19 8 27 28 q4 9 4 19t-4 20q-8 20 -27 28q-9 4 -19 4t-20 -4q-14 -6 -28 -9q-16 -3 -31 -3h-409q-106 0 -182 -75q-74 -75 -74 -181v-1228zM382 2237q0 30 12 59q24 58 83 83q33 13 67 20t70 7t71 -7t67 -20q58 -24 82 -83q12 -30 12 -59q0 -30 -12 -59q-24 -58 -82 -83 q-30 -12 -60 -12t-58 12q-10 4 -20 4t-20 -4q-30 -12 -58 -12q-30 0 -59 12q-59 24 -83 83q-12 30 -12 59zM410 870v102h409q21 0 36 16q15 15 15 36t-15 36t-36 15h-409v103h409q65 0 109 -46t44 -108q0 -64 -44 -109q-45 -45 -109 -45h-409zM484 2238q0 -10 4 -20 q8 -20 28 -28q10 -4 20 -4t19 4q14 6 29 8q15 4 30 4q16 0 30 -4q14 -3 29 -8q9 -4 19 -4t20 4q20 8 28 28q4 10 4 20t-4 18q-8 20 -28 28q-23 10 -47 15q-25 5 -51 5t-50 -5t-48 -15q-20 -8 -28 -28q-4 -10 -4 -18z" />
<glyph unicode="&#xcb;" d="M51 410v1228q0 148 105 254q106 104 254 104h409q9 0 19 4q30 12 60 12q29 0 58 -12q60 -24 84 -82q12 -30 12 -60t-12 -58q-25 -58 -84 -84q-32 -14 -66 -20q-35 -6 -71 -6h-409q-22 0 -36 -16q-16 -14 -16 -36v-1228q0 -22 16 -36q14 -16 36 -16h614q62 0 108 -45 t46 -109t-46 -108q-46 -45 -108 -45h-614q-148 0 -254 105q-105 106 -105 254zM154 410q0 -106 74 -182q76 -74 182 -74h614q21 0 36 14t15 36t-15 36q-15 16 -36 16h-614q-64 0 -109 45t-45 109v1228q0 64 45 108q45 46 109 46h409q27 0 51 4q24 5 47 15q19 8 27 28 q4 9 4 19t-4 20q-8 20 -27 28q-9 4 -19 4t-20 -4q-14 -6 -28 -9q-16 -3 -31 -3h-409q-106 0 -182 -75q-74 -75 -74 -181v-1228zM256 2252q0 64 45 109t109 45t108 -45q45 -45 45 -109t-45 -108q-44 -45 -108 -45t-109 45q-45 44 -45 108zM358 2252q0 -22 16 -36 q14 -14 36 -14t36 14t14 36q0 20 -17 36q-15 16 -33 16q-22 0 -36 -16q-16 -14 -16 -36zM410 870v102h409q21 0 36 16q15 15 15 36t-15 36t-36 15h-409v103h409q65 0 109 -46t44 -108q0 -64 -44 -109q-45 -45 -109 -45h-409zM666 2252q0 64 44 109q45 45 109 45 q65 0 109 -45t44 -109t-44 -108q-44 -45 -109 -45t-109 45q-44 44 -44 108zM768 2252q0 -22 15 -36q14 -14 36 -14q21 0 36 14t15 36q0 20 -18 36q-16 16 -33 16q-22 0 -36 -16q-15 -14 -15 -36z" />
<glyph unicode="&#xcc;" horiz-adv-x="614" d="M-16 2268q0 30 12 59q24 58 84 83q30 12 58 12q30 0 59 -12q9 -4 19 -4q36 0 72 -7q34 -7 66 -20q58 -24 83 -83q12 -30 12 -59q0 -30 -12 -59q-24 -58 -83 -83q-29 -12 -59 -12t-59 12q-10 4 -20 4q-36 0 -70 7t-66 20q-58 24 -84 83q-12 30 -12 59zM63 204v1639 q0 65 45 109q44 44 108 44t109 -44q45 -45 45 -109v-1639q0 -64 -45 -108q-45 -45 -109 -45t-108 45q-45 44 -45 108zM87 2268q0 -10 4 -20q7 -20 27 -28q23 -10 48 -14q24 -4 50 -4q15 0 31 -4q15 -3 29 -8q10 -4 19 -4t19 4q20 8 28 28q4 10 4 20t-4 18q-8 20 -28 28 q-22 10 -46 15q-26 5 -52 5q-15 0 -30 2q-14 3 -28 9q-10 4 -20 4t-20 -4q-20 -7 -27 -27q-4 -10 -4 -20zM166 204q0 -22 14 -36t36 -14t36 14q16 14 16 36v1639q0 21 -16 36q-14 15 -36 15t-36 -15t-14 -36v-1639z" />
<glyph unicode="&#xcd;" horiz-adv-x="614" d="M-16 2237q0 30 12 59q24 58 84 83q32 13 66 20t70 7q10 0 20 4q30 12 59 12q30 0 59 -12q58 -24 83 -83q12 -30 12 -59q0 -30 -12 -59q-24 -58 -83 -83q-32 -13 -66 -20q-36 -7 -72 -7q-10 0 -19 -4q-29 -12 -59 -12q-28 0 -58 12q-60 24 -84 83q-12 30 -12 59zM63 204 v1639q0 65 45 109q44 44 108 44t109 -44q45 -45 45 -109v-1639q0 -64 -45 -108q-45 -45 -109 -45t-108 45q-45 44 -45 108zM87 2238q0 -10 4 -20q7 -20 27 -28q10 -4 20 -4t20 4q14 6 28 8q16 4 30 4q26 0 52 4q24 4 46 14q20 8 28 28q4 10 4 20t-4 20q-8 20 -28 27 q-10 4 -19 4t-19 -4q-14 -7 -29 -9q-17 -2 -31 -2q-26 0 -50 -5t-48 -15q-20 -8 -27 -28q-4 -10 -4 -18zM166 204q0 -22 14 -36t36 -14t36 14q16 14 16 36v1639q0 21 -16 36q-14 15 -36 15t-36 -15t-14 -36v-1639z" />
<glyph unicode="&#xce;" horiz-adv-x="614" d="M-16 2237q0 30 12 59q24 58 84 83q32 13 66 20t70 7t72 -7q34 -7 66 -20q58 -24 83 -83q12 -30 12 -59q0 -30 -12 -59q-24 -58 -83 -83q-30 -12 -59 -12q-30 0 -59 12q-10 4 -20 4t-19 -4q-29 -12 -59 -12q-28 0 -58 12q-60 24 -84 83q-12 30 -12 59zM63 204v1639 q0 65 45 109q44 44 108 44t109 -44q45 -45 45 -109v-1639q0 -64 -45 -108q-45 -45 -109 -45t-108 45q-45 44 -45 108zM87 2238q0 -10 4 -20q7 -20 27 -28q10 -4 20 -4t20 4q14 6 28 8q16 4 30 4q15 0 31 -4q15 -3 29 -8q10 -4 19 -4t19 4q20 8 28 28q4 10 4 20t-4 18 q-8 20 -28 28q-22 10 -46 15q-26 5 -52 5t-50 -5t-48 -15q-20 -8 -27 -28q-4 -10 -4 -18zM166 204q0 -22 14 -36t36 -14t36 14q16 14 16 36v1639q0 21 -16 36q-14 15 -36 15t-36 -15t-14 -36v-1639z" />
<glyph unicode="&#xcf;" horiz-adv-x="614" d="M-154 2252q0 64 46 109t108 45t108 -45t46 -109t-46 -108q-46 -45 -108 -45t-108 45q-46 44 -46 108zM-51 2252q0 -22 15 -36t36 -14t36 14t15 36q1 20 -17 36q-16 16 -34 16q-21 0 -36 -16q-15 -14 -15 -36zM51 204v1639q0 65 45 109q44 44 108 44t109 -44 q45 -45 45 -109v-1639q0 -64 -45 -108q-45 -45 -109 -45t-108 45q-45 44 -45 108zM154 204q0 -22 14 -36t36 -14t36 14q16 14 16 36v1639q0 21 -16 36q-14 15 -36 15t-36 -15t-14 -36v-1639zM256 2252q0 64 45 109t109 45t108 -45q45 -45 45 -109t-45 -108q-44 -45 -108 -45 t-109 45q-45 44 -45 108zM358 2252q0 -22 16 -36q14 -14 36 -14t36 14t14 36q0 20 -17 36q-15 16 -33 16q-22 0 -36 -16q-16 -14 -16 -36z" />
<glyph unicode="&#xd0;" d="M35 331q0 31 12 59q4 10 4 20v529q45 -55 103 -93v-436q0 -16 -4 -31q-3 -15 -8 -29q-4 -10 -4 -19t4 -19q8 -20 28 -28q10 -4 20 -4t18 4q20 8 28 28q10 22 15 46q5 26 5 52v409h102v-409q0 -36 -7 -72q-7 -34 -20 -66q-24 -58 -83 -83q-29 -12 -59 -12t-59 12 q-58 24 -83 83q-12 30 -12 59zM51 1228v410q0 148 105 254q106 104 254 104h409q145 -2 249 -104q104 -105 104 -254h6v-1228q0 -148 -106 -254q-106 -105 -253 -105h-205q-64 0 -108 45q-46 44 -46 108t46 109q45 45 108 45h205q21 0 36 16q15 14 15 36v1228h-5 q1 22 -15 36q-14 16 -36 16h-404q-22 0 -36 -16q-16 -14 -16 -36v-410q0 -22 16 -36q14 -14 36 -14h204q64 0 108 -46q46 -46 46 -108q0 -64 -46 -109q-45 -45 -108 -45h-204q-148 0 -254 105q-105 105 -105 253zM154 1228q0 -106 74 -180q76 -76 182 -76h204q22 0 36 16 q16 15 16 36t-16 36q-14 15 -36 15h-204q-64 0 -109 45q-45 44 -45 108v410q0 64 45 108q45 46 109 46h409q59 -2 103 -46q44 -45 45 -108h5v-1228q0 -64 -44 -109q-45 -45 -109 -45h-205q-21 0 -36 -16q-15 -14 -15 -36t15 -36t36 -14h205q106 0 181 74q75 76 75 182v1228 h-5q0 106 -75 181t-181 75h-404q-106 0 -182 -75q-74 -75 -74 -181v-410z" />
<glyph unicode="&#xd1;" d="M51 204v1434q0 148 105 254q106 104 254 104h409q145 -2 249 -104q104 -105 104 -254h6v-1434q0 -64 -46 -108q-46 -45 -108 -45q-64 0 -109 45q-45 44 -45 108v1434h-5q1 22 -15 36q-14 16 -36 16h-404q-22 0 -36 -16q-16 -14 -16 -36v-1434q0 -64 -45 -108 q-45 -45 -109 -45t-108 45q-45 44 -45 108zM154 204q0 -22 14 -36t36 -14t36 14q16 14 16 36v1434q0 64 45 108q45 46 109 46h409q59 -2 103 -46q44 -45 45 -108h5v-1434q0 -22 16 -36q14 -14 36 -14q21 0 36 14t15 36v1434h-5q0 106 -75 181t-181 75h-404q-106 0 -182 -75 q-74 -75 -74 -181v-1434zM177 2237q0 30 12 59q24 58 83 83q32 13 66 20q36 7 72 7h409q9 0 19 4q30 12 60 12q29 0 58 -12q60 -24 84 -83q12 -30 12 -59q0 -30 -12 -59q-25 -58 -84 -83q-32 -13 -66 -20q-35 -7 -71 -7h-409q-10 0 -20 -4q-28 -12 -59 -12q-30 0 -59 12 q-59 24 -83 83q-12 30 -12 59zM280 2238q0 -10 4 -20q8 -20 28 -28q10 -4 19 -4t19 4q14 6 29 8q15 4 31 4h409q27 0 51 4t47 14q19 8 27 28q4 10 4 20t-4 20q-8 20 -27 27q-9 4 -19 4t-20 -4q-14 -7 -28 -9q-16 -2 -31 -2h-409q-26 0 -52 -5q-24 -5 -46 -15q-20 -8 -28 -28 q-4 -10 -4 -18z" />
<glyph unicode="&#xd2;" d="M51 410v1228q0 36 7 71t20 67q24 58 83 82q30 12 59 12q30 0 59 -12q58 -24 83 -82q12 -30 12 -60t-12 -58q-4 -10 -4 -20v-1228q0 -22 16 -36q14 -16 36 -16h409q21 0 36 16q15 14 15 36v1228h-5q1 22 -15 36q-14 16 -36 16h-200q-64 0 -108 44q-46 45 -46 109 q0 65 46 109q45 44 108 44h205q145 -2 249 -104q104 -105 104 -254h6v-1228q0 -148 -106 -254q-106 -105 -253 -105h-409q-148 0 -254 105q-105 106 -105 254zM154 410q0 -106 74 -182q76 -74 182 -74h409q106 0 181 74q75 76 75 182v1228h-5q0 106 -75 181t-181 75h-200 q-21 0 -36 -15t-15 -36q0 -22 15 -36q15 -15 36 -15h205q59 -2 103 -46q44 -45 45 -108h5v-1228q0 -64 -44 -109q-45 -45 -109 -45h-409q-64 0 -109 45t-45 109v1228q0 16 2 30q3 14 9 29q4 9 4 19t-4 20q-7 20 -27 28q-10 4 -20 4t-20 -4q-20 -8 -28 -28q-10 -23 -14 -47 q-4 -25 -4 -51v-1228zM382 2268q0 30 12 59q24 58 83 83q30 12 59 12q28 0 58 -12q10 -4 20 -4q36 0 71 -7t67 -20q58 -24 82 -83q12 -30 12 -59q0 -30 -12 -59q-24 -58 -82 -83q-30 -12 -60 -12t-58 12q-10 4 -20 4q-36 0 -70 7t-67 20q-58 24 -83 83q-12 30 -12 59z M484 2268q0 -10 4 -20q8 -20 28 -28q22 -10 48 -14q25 -4 50 -4q16 0 30 -4q14 -3 29 -8q9 -4 19 -4t20 4q20 8 28 28q4 10 4 20t-4 18q-8 20 -28 28q-23 10 -47 15q-25 5 -51 5q-15 0 -30 2q-15 3 -29 9q-9 4 -19 4t-20 -4q-20 -7 -28 -27q-4 -10 -4 -20z" />
<glyph unicode="&#xd3;" d="M51 410v1228q0 36 7 71t20 67q24 58 83 82q30 12 59 12q30 0 59 -12q58 -24 83 -82q12 -30 12 -60t-12 -58q-4 -10 -4 -20v-1228q0 -22 16 -36q14 -16 36 -16h409q21 0 36 16q15 14 15 36v1228h-5q1 22 -15 36q-14 16 -36 16h-200q-64 0 -108 44q-46 45 -46 109 q0 65 46 109q45 44 108 44h205q145 -2 249 -104q104 -105 104 -254h6v-1228q0 -148 -106 -254q-106 -105 -253 -105h-409q-148 0 -254 105q-105 106 -105 254zM154 410q0 -106 74 -182q76 -74 182 -74h409q106 0 181 74q75 76 75 182v1228h-5q0 106 -75 181t-181 75h-200 q-21 0 -36 -15t-15 -36q0 -22 15 -36q15 -15 36 -15h205q59 -2 103 -46q44 -45 45 -108h5v-1228q0 -64 -44 -109q-45 -45 -109 -45h-409q-64 0 -109 45t-45 109v1228q0 16 2 30q3 14 9 29q4 9 4 19t-4 20q-7 20 -27 28q-10 4 -20 4t-20 -4q-20 -8 -28 -28q-10 -23 -14 -47 q-4 -25 -4 -51v-1228zM382 2237q0 30 12 59q24 58 83 83q33 13 67 20t70 7q10 0 20 4q28 12 58 12t60 -12q58 -24 82 -83q12 -30 12 -59q0 -30 -12 -59q-24 -58 -82 -83q-32 -13 -67 -20t-71 -7q-10 0 -20 -4q-30 -12 -58 -12q-30 0 -59 12q-59 24 -83 83q-12 30 -12 59z M484 2238q0 -10 4 -20q8 -20 28 -28q10 -4 20 -4t19 4q14 6 29 8q15 4 30 4q26 0 51 4q24 4 47 14q20 8 28 28q4 10 4 20t-4 20q-8 20 -28 27q-10 4 -20 4t-19 -4q-15 -7 -29 -9q-15 -2 -30 -2q-26 0 -50 -5t-48 -15q-20 -8 -28 -28q-4 -10 -4 -18z" />
<glyph unicode="&#xd4;" d="M51 410v1228q0 36 7 71t20 67q24 58 83 82q30 12 59 12q30 0 59 -12q58 -24 83 -82q12 -30 12 -60t-12 -58q-4 -10 -4 -20v-1228q0 -22 16 -36q14 -16 36 -16h409q21 0 36 16q15 14 15 36v1228h-5q1 22 -15 36q-14 16 -36 16h-200q-64 0 -108 44q-46 45 -46 109 q0 65 46 109q45 44 108 44h205q145 -2 249 -104q104 -105 104 -254h6v-1228q0 -148 -106 -254q-106 -105 -253 -105h-409q-148 0 -254 105q-105 106 -105 254zM154 410q0 -106 74 -182q76 -74 182 -74h409q106 0 181 74q75 76 75 182v1228h-5q0 106 -75 181t-181 75h-200 q-21 0 -36 -15t-15 -36q0 -22 15 -36q15 -15 36 -15h205q59 -2 103 -46q44 -45 45 -108h5v-1228q0 -64 -44 -109q-45 -45 -109 -45h-409q-64 0 -109 45t-45 109v1228q0 16 2 30q3 14 9 29q4 9 4 19t-4 20q-7 20 -27 28q-10 4 -20 4t-20 -4q-20 -8 -28 -28q-10 -23 -14 -47 q-4 -25 -4 -51v-1228zM382 2237q0 30 12 59q24 58 83 83q33 13 67 20t70 7t71 -7t67 -20q58 -24 82 -83q12 -30 12 -59q0 -30 -12 -59q-24 -58 -82 -83q-30 -12 -60 -12t-58 12q-10 4 -20 4t-20 -4q-30 -12 -58 -12q-30 0 -59 12q-59 24 -83 83q-12 30 -12 59zM484 2238 q0 -10 4 -20q8 -20 28 -28q10 -4 20 -4t19 4q14 6 29 8q15 4 30 4q16 0 30 -4q14 -3 29 -8q9 -4 19 -4t20 4q20 8 28 28q4 10 4 20t-4 18q-8 20 -28 28q-23 10 -47 15q-25 5 -51 5t-50 -5t-48 -15q-20 -8 -28 -28q-4 -10 -4 -18z" />
<glyph unicode="&#xd5;" d="M51 410v1228q0 36 7 71t20 67q24 58 83 82q30 12 59 12q30 0 59 -12q58 -24 83 -82q12 -30 12 -60t-12 -58q-4 -10 -4 -20v-1228q0 -22 16 -36q14 -16 36 -16h409q21 0 36 16q15 14 15 36v1228h-5q1 22 -15 36q-14 16 -36 16h-200q-64 0 -108 44q-46 45 -46 109 q0 65 46 109q45 44 108 44h205q145 -2 249 -104q104 -105 104 -254h6v-1228q0 -148 -106 -254q-106 -105 -253 -105h-409q-148 0 -254 105q-105 106 -105 254zM154 410q0 -106 74 -182q76 -74 182 -74h409q106 0 181 74q75 76 75 182v1228h-5q0 106 -75 181t-181 75h-200 q-21 0 -36 -15t-15 -36q0 -22 15 -36q15 -15 36 -15h205q59 -2 103 -46q44 -45 45 -108h5v-1228q0 -64 -44 -109q-45 -45 -109 -45h-409q-64 0 -109 45t-45 109v1228q0 16 2 30q3 14 9 29q4 9 4 19t-4 20q-7 20 -27 28q-10 4 -20 4t-20 -4q-20 -8 -28 -28q-10 -23 -14 -47 q-4 -25 -4 -51v-1228zM177 2237q0 30 12 59q24 58 83 83q32 13 66 20q36 7 72 7h409q9 0 19 4q30 12 60 12q29 0 58 -12q60 -24 84 -83q12 -30 12 -59q0 -30 -12 -59q-25 -58 -84 -83q-32 -13 -66 -20q-35 -7 -71 -7h-409q-10 0 -20 -4q-28 -12 -59 -12q-30 0 -59 12 q-59 24 -83 83q-12 30 -12 59zM280 2238q0 -10 4 -20q8 -20 28 -28q10 -4 19 -4t19 4q14 6 29 8q15 4 31 4h409q27 0 51 4t47 14q19 8 27 28q4 10 4 20t-4 20q-8 20 -27 27q-9 4 -19 4t-20 -4q-14 -7 -28 -9q-16 -2 -31 -2h-409q-26 0 -52 -5q-24 -5 -46 -15q-20 -8 -28 -28 q-4 -10 -4 -18z" />
<glyph unicode="&#xd6;" d="M51 410v1228q0 36 7 71t20 67q24 58 83 82q30 12 59 12q30 0 59 -12q58 -24 83 -82q12 -30 12 -60t-12 -58q-4 -10 -4 -20v-1228q0 -22 16 -36q14 -16 36 -16h409q21 0 36 16q15 14 15 36v1228h-5q1 22 -15 36q-14 16 -36 16h-200q-64 0 -108 44q-46 45 -46 109 q0 65 46 109q45 44 108 44h205q145 -2 249 -104q104 -105 104 -254h6v-1228q0 -148 -106 -254q-106 -105 -253 -105h-409q-148 0 -254 105q-105 106 -105 254zM154 410q0 -106 74 -182q76 -74 182 -74h409q106 0 181 74q75 76 75 182v1228h-5q0 106 -75 181t-181 75h-200 q-21 0 -36 -15t-15 -36q0 -22 15 -36q15 -15 36 -15h205q59 -2 103 -46q44 -45 45 -108h5v-1228q0 -64 -44 -109q-45 -45 -109 -45h-409q-64 0 -109 45t-45 109v1228q0 16 2 30q3 14 9 29q4 9 4 19t-4 20q-7 20 -27 28q-10 4 -20 4t-20 -4q-20 -8 -28 -28q-10 -23 -14 -47 q-4 -25 -4 -51v-1228zM256 2252q0 64 45 109t109 45t108 -45q45 -45 45 -109t-45 -108q-44 -45 -108 -45t-109 45q-45 44 -45 108zM358 2252q0 -22 16 -36q14 -14 36 -14t36 14t14 36q0 20 -17 36q-15 16 -33 16q-22 0 -36 -16q-16 -14 -16 -36zM666 2252q0 64 44 109 q45 45 109 45q65 0 109 -45t44 -109t-44 -108q-44 -45 -109 -45t-109 45q-44 44 -44 108zM768 2252q0 -22 15 -36q14 -14 36 -14q21 0 36 14t15 36q0 20 -18 36q-16 16 -33 16q-22 0 -36 -16q-15 -14 -15 -36z" />
<glyph unicode="&#xd7;" d="M51 614v205q0 147 105 253q106 106 254 106h409q21 0 36 14t15 36v206q0 64 45 108q46 45 109 45q62 0 108 -45q46 -44 46 -108v-206q0 -148 -106 -253t-253 -105h-409q-22 0 -36 -15q-16 -15 -16 -36v-205q0 -64 -45 -108q-45 -46 -109 -46t-108 46q-45 45 -45 108z M51 1228v206q0 64 45 108q44 45 108 45t109 -45q45 -44 45 -108v-206h-102v206q0 22 -16 36q-14 14 -36 14t-36 -14t-14 -36v-206v-25q-48 -33 -88 -77q-8 24 -12 50t-3 52zM154 614q0 -21 14 -36t36 -15t36 15q16 15 16 36v205q0 65 45 109t109 44h409q106 0 181 76 q75 74 75 180v206q0 22 -15 36t-36 14q-22 0 -36 -14q-16 -14 -16 -36v-206q0 -64 -44 -108q-45 -45 -109 -45h-409q-106 0 -182 -75q-74 -75 -74 -181v-205zM870 614v205h102v-205q0 -21 16 -36q15 -15 36 -15t36 15t15 36v205q1 11 -1 25q48 32 88 78q8 -24 12 -50t4 -53 v-205q0 -64 -46 -108q-46 -46 -108 -46q-64 0 -109 46q-45 45 -45 108z" />
<glyph unicode="&#xd8;" d="M51 410v409q0 147 105 253q106 106 254 106h409q21 0 36 14t15 36v410h-5q1 22 -15 36q-14 16 -36 16h-200q-64 0 -108 44q-46 45 -46 109q0 65 46 109q45 44 108 44h205q145 -2 249 -104q104 -105 104 -254h6v-410q0 -148 -106 -253t-253 -105h-409q-22 0 -36 -15 q-16 -15 -16 -36v-409q0 -22 16 -36q14 -16 36 -16h409q21 0 36 16q15 14 15 36v409h102v-409q0 -64 -44 -109q-45 -45 -109 -45h-409q-64 0 -109 45t-45 109v409q0 65 45 109t109 44h409q106 0 181 76q75 74 75 180v410h-5q0 106 -75 181t-181 75h-200q-21 0 -36 -15 t-15 -36q0 -22 15 -36q15 -15 36 -15h205q59 -2 103 -46q44 -45 45 -108h5v-410q0 -64 -44 -108q-45 -45 -109 -45h-409q-106 0 -182 -75q-74 -75 -74 -181v-409q0 -106 74 -182q76 -74 182 -74h409q106 0 181 74q75 76 75 182v409q1 11 -1 25q48 32 88 78q8 -24 12 -50 t4 -53v-409q0 -148 -106 -254q-106 -105 -253 -105h-409q-148 0 -254 105q-105 106 -105 254zM51 1228v410q0 36 7 71t20 67q24 58 83 82q30 12 59 12q30 0 59 -12q58 -24 83 -82q12 -30 12 -60t-12 -58q-4 -10 -4 -20v-410h-102v410q0 16 2 30q3 14 9 29q4 9 4 19t-4 20 q-7 20 -27 28q-10 4 -20 4t-20 -4q-20 -8 -28 -28q-10 -23 -14 -47q-4 -25 -4 -51v-410v-25q-48 -33 -88 -77q-8 24 -12 50t-3 52z" />
<glyph unicode="&#xd9;" d="M51 410v1433q0 65 45 109q44 44 108 44t109 -44q45 -45 45 -109v-1433q0 -22 16 -36q14 -16 36 -16h409q21 0 36 16q15 14 15 36v1433q0 65 45 109q46 44 109 44q62 0 108 -44q46 -45 46 -109v-1433q0 -148 -106 -254q-106 -105 -253 -105h-409q-148 0 -254 105 q-105 106 -105 254zM154 410q0 -106 74 -182q76 -74 182 -74h409q106 0 181 74q75 76 75 182v1433q0 21 -15 36t-36 15q-22 0 -36 -15q-16 -15 -16 -36v-1433q0 -64 -44 -109q-45 -45 -109 -45h-409q-64 0 -109 45t-45 109v1433q0 21 -16 36q-14 15 -36 15t-36 -15t-14 -36 v-1433zM382 2268q0 30 12 59q24 58 83 83q30 12 59 12q28 0 58 -12q10 -4 20 -4q36 0 71 -7t67 -20q58 -24 82 -83q12 -30 12 -59q0 -30 -12 -59q-24 -58 -82 -83q-30 -12 -60 -12t-58 12q-10 4 -20 4q-36 0 -70 7t-67 20q-58 24 -83 83q-12 30 -12 59zM484 2268 q0 -10 4 -20q8 -20 28 -28q22 -10 48 -14q25 -4 50 -4q16 0 30 -4q14 -3 29 -8q9 -4 19 -4t20 4q20 8 28 28q4 10 4 20t-4 18q-8 20 -28 28q-23 10 -47 15q-25 5 -51 5q-15 0 -30 2q-15 3 -29 9q-9 4 -19 4t-20 -4q-20 -7 -28 -27q-4 -10 -4 -20z" />
<glyph unicode="&#xda;" d="M51 410v1433q0 65 45 109q44 44 108 44t109 -44q45 -45 45 -109v-1433q0 -22 16 -36q14 -16 36 -16h409q21 0 36 16q15 14 15 36v1433q0 65 45 109q46 44 109 44q62 0 108 -44q46 -45 46 -109v-1433q0 -148 -106 -254q-106 -105 -253 -105h-409q-148 0 -254 105 q-105 106 -105 254zM154 410q0 -106 74 -182q76 -74 182 -74h409q106 0 181 74q75 76 75 182v1433q0 21 -15 36t-36 15q-22 0 -36 -15q-16 -15 -16 -36v-1433q0 -64 -44 -109q-45 -45 -109 -45h-409q-64 0 -109 45t-45 109v1433q0 21 -16 36q-14 15 -36 15t-36 -15t-14 -36 v-1433zM382 2237q0 30 12 59q24 58 83 83q33 13 67 20t70 7q10 0 20 4q28 12 58 12t60 -12q58 -24 82 -83q12 -30 12 -59q0 -30 -12 -59q-24 -58 -82 -83q-32 -13 -67 -20t-71 -7q-10 0 -20 -4q-30 -12 -58 -12q-30 0 -59 12q-59 24 -83 83q-12 30 -12 59zM484 2238 q0 -10 4 -20q8 -20 28 -28q10 -4 20 -4t19 4q14 6 29 8q15 4 30 4q26 0 51 4q24 4 47 14q20 8 28 28q4 10 4 20t-4 20q-8 20 -28 27q-10 4 -20 4t-19 -4q-15 -7 -29 -9q-15 -2 -30 -2q-26 0 -50 -5t-48 -15q-20 -8 -28 -28q-4 -10 -4 -18z" />
<glyph unicode="&#xdb;" d="M51 410v1433q0 65 45 109q44 44 108 44t109 -44q45 -45 45 -109v-1433q0 -22 16 -36q14 -16 36 -16h409q21 0 36 16q15 14 15 36v1433q0 65 45 109q46 44 109 44q62 0 108 -44q46 -45 46 -109v-1433q0 -148 -106 -254q-106 -105 -253 -105h-409q-148 0 -254 105 q-105 106 -105 254zM154 410q0 -106 74 -182q76 -74 182 -74h409q106 0 181 74q75 76 75 182v1433q0 21 -15 36t-36 15q-22 0 -36 -15q-16 -15 -16 -36v-1433q0 -64 -44 -109q-45 -45 -109 -45h-409q-64 0 -109 45t-45 109v1433q0 21 -16 36q-14 15 -36 15t-36 -15t-14 -36 v-1433zM382 2237q0 30 12 59q24 58 83 83q33 13 67 20t70 7t71 -7t67 -20q58 -24 82 -83q12 -30 12 -59q0 -30 -12 -59q-24 -58 -82 -83q-30 -12 -60 -12t-58 12q-10 4 -20 4t-20 -4q-30 -12 -58 -12q-30 0 -59 12q-59 24 -83 83q-12 30 -12 59zM484 2238q0 -10 4 -20 q8 -20 28 -28q10 -4 20 -4t19 4q14 6 29 8q15 4 30 4q16 0 30 -4q14 -3 29 -8q9 -4 19 -4t20 4q20 8 28 28q4 10 4 20t-4 18q-8 20 -28 28q-23 10 -47 15q-25 5 -51 5t-50 -5t-48 -15q-20 -8 -28 -28q-4 -10 -4 -18z" />
<glyph unicode="&#xdc;" d="M51 410v1433q0 65 45 109q44 44 108 44t109 -44q45 -45 45 -109v-1433q0 -22 16 -36q14 -16 36 -16h409q21 0 36 16q15 14 15 36v1433q0 65 45 109q46 44 109 44q62 0 108 -44q46 -45 46 -109v-1433q0 -148 -106 -254q-106 -105 -253 -105h-409q-148 0 -254 105 q-105 106 -105 254zM154 410q0 -106 74 -182q76 -74 182 -74h409q106 0 181 74q75 76 75 182v1433q0 21 -15 36t-36 15q-22 0 -36 -15q-16 -15 -16 -36v-1433q0 -64 -44 -109q-45 -45 -109 -45h-409q-64 0 -109 45t-45 109v1433q0 21 -16 36q-14 15 -36 15t-36 -15t-14 -36 v-1433zM256 2252q0 64 45 109t109 45t108 -45q45 -45 45 -109t-45 -108q-44 -45 -108 -45t-109 45q-45 44 -45 108zM358 2252q0 -22 16 -36q14 -14 36 -14t36 14t14 36q0 20 -17 36q-15 16 -33 16q-22 0 -36 -16q-16 -14 -16 -36zM666 2252q0 64 44 109q45 45 109 45 q65 0 109 -45t44 -109t-44 -108q-44 -45 -109 -45t-109 45q-44 44 -44 108zM768 2252q0 -22 15 -36q14 -14 36 -14q21 0 36 14t15 36q0 20 -18 36q-16 16 -33 16q-22 0 -36 -16q-15 -14 -15 -36z" />
<glyph unicode="&#xdd;" d="M51 1228v615q0 65 45 109q44 44 108 44t109 -44q45 -45 45 -109v-615q0 -22 16 -36q14 -14 36 -14q148 0 253 -106t105 -253v-615q0 -64 -46 -108q-44 -45 -108 -45t-108 45q-46 44 -46 108v615q0 21 -14 36t-36 15q-148 0 -254 105q-105 105 -105 253zM154 1228 q0 -106 74 -180q76 -76 182 -76q64 0 108 -44q45 -45 45 -109v-615q0 -22 15 -36t36 -14q22 0 36 14q16 14 16 36v615q0 106 -76 181q-74 75 -180 75q-64 0 -109 45q-45 44 -45 108v615q0 21 -16 36q-14 15 -36 15t-36 -15t-14 -36v-615zM382 2237q0 30 12 59q24 58 83 83 q33 13 67 20t70 7q10 0 20 4q28 12 58 12t60 -12q58 -24 82 -83q12 -30 12 -59q0 -30 -12 -59q-24 -58 -82 -83q-32 -13 -67 -20t-71 -7q-10 0 -20 -4q-30 -12 -58 -12q-30 0 -59 12q-59 24 -83 83q-12 30 -12 59zM484 2238q0 -10 4 -20q8 -20 28 -28q10 -4 20 -4t19 4 q14 6 29 8q15 4 30 4q26 0 51 4q24 4 47 14q20 8 28 28q4 10 4 20t-4 20q-8 20 -28 27q-10 4 -20 4t-19 -4q-15 -7 -29 -9q-15 -2 -30 -2q-26 0 -50 -5t-48 -15q-20 -8 -28 -28q-4 -10 -4 -18zM716 1162q24 8 50 12t53 4q21 0 36 14t15 36v615q0 65 45 109q46 44 109 44 q62 0 108 -44q46 -45 46 -109v-615q0 -148 -106 -253t-253 -105v102q106 0 181 76q75 74 75 180v615q0 21 -15 36t-36 15q-22 0 -36 -15q-16 -15 -16 -36v-615q0 -64 -44 -108q-45 -45 -109 -45q-11 1 -25 -1q-32 48 -78 88z" />
<glyph unicode="&#xde;" d="M51 204v1639q0 65 45 109q44 44 108 44t109 -44q45 -45 45 -109v-1639q0 -64 -45 -108q-45 -45 -109 -45t-108 45q-45 44 -45 108zM154 204q0 -22 14 -36t36 -14t36 14q16 14 16 36v1639q0 21 -16 36q-14 15 -36 15t-36 -15t-14 -36v-1639zM410 460v103h409q106 0 181 75 t75 181v409h-5q0 106 -75 182q-75 74 -181 74h-404v103h409q145 -2 249 -105q104 -106 104 -254h6v-409q0 -147 -106 -253t-253 -106h-409zM410 666v102h409q21 0 36 15q15 14 15 36v409h-5q1 22 -15 36q-14 16 -36 16h-404v102h409q59 -2 103 -45q44 -45 45 -109h5v-409 q0 -65 -44 -109q-45 -44 -109 -44h-409z" />
<glyph unicode="&#xdf;" d="M51 204v1434q0 148 105 254q106 104 254 104h409q145 -2 249 -104q104 -105 104 -254h6v-410q0 -56 -18 -109q-16 -51 -47 -95q31 -44 47 -96q18 -54 18 -109v-409q0 -148 -106 -254q-106 -105 -253 -105q-9 0 -19 -4q-30 -12 -60 -12t-58 12q-58 24 -84 83 q-12 30 -12 59q0 30 12 59q24 58 84 83q32 13 66 20q35 7 71 7q21 0 36 16q15 14 15 36v409q0 21 -15 36t-36 15h-205q-64 0 -108 45q-46 46 -46 109q0 62 46 108q45 46 108 46h205q21 0 36 14t15 36v410h-5q1 22 -15 36q-14 16 -36 16h-404q-22 0 -36 -16q-16 -14 -16 -36 v-1434q0 -64 -45 -108q-45 -45 -109 -45t-108 45q-45 44 -45 108zM154 204q0 -22 14 -36t36 -14t36 14q16 14 16 36v1434q0 64 45 108q45 46 109 46h409q59 -2 103 -46q44 -45 45 -108h5v-410q0 -64 -44 -108q-45 -45 -109 -45h-205q-21 0 -36 -15t-15 -36q0 -22 15 -36 q15 -16 36 -16h205q65 0 109 -44q44 -45 44 -109v-409q0 -64 -44 -109q-45 -45 -109 -45q-26 0 -51 -5q-24 -5 -47 -15q-20 -8 -28 -28q-3 -10 -3 -18q0 -10 3 -20q8 -20 28 -28q9 -4 19 -4t20 4q14 6 28 8q16 4 31 4q106 0 181 74q75 76 75 182v409q0 34 -9 67 q-8 32 -26 60q-26 46 -68 78q42 32 68 76q17 29 26 61q9 33 9 67v410h-5q0 106 -75 181t-181 75h-404q-106 0 -182 -75q-74 -75 -74 -181v-1434z" />
<glyph unicode="&#xe0;" d="M35 331q0 31 12 59q4 10 4 20v1228q0 148 105 254q106 104 254 104h409q145 -2 249 -104q104 -105 104 -254h6v-1434q0 -64 -46 -108q-46 -45 -108 -45q-64 0 -109 45q-45 44 -45 108v1434h-5q1 22 -15 36q-14 16 -36 16h-404q-22 0 -36 -16q-16 -14 -16 -36v-1228 q0 -36 -7 -72q-7 -34 -20 -66q-24 -58 -83 -83q-30 -12 -59 -12q-30 0 -59 12q-58 24 -83 83q-12 30 -12 59zM138 331q0 -9 4 -19q8 -20 28 -28q10 -4 20 -4t18 4q20 8 28 28q10 22 15 46q5 26 5 52v1228q0 64 45 108q45 46 109 46h409q59 -2 103 -46q44 -45 45 -108h5 v-1434q0 -22 16 -36q14 -14 36 -14q21 0 36 14t15 36v1434h-5q0 106 -75 181t-181 75h-404q-106 0 -182 -75q-74 -75 -74 -181v-1228q0 -16 -4 -31q-3 -15 -8 -29q-4 -10 -4 -19zM382 2268q0 30 12 59q24 58 83 83q30 12 59 12q28 0 58 -12q10 -4 20 -4q36 0 71 -7t67 -20 q58 -24 82 -83q12 -30 12 -59q0 -30 -12 -59q-24 -58 -82 -83q-30 -12 -60 -12t-58 12q-10 4 -20 4q-36 0 -70 7t-67 20q-58 24 -83 83q-12 30 -12 59zM410 870v102h409v-102h-409zM410 1075v103h409v-103h-409zM484 2268q0 -10 4 -20q8 -20 28 -28q22 -10 48 -14 q25 -4 50 -4q16 0 30 -4q14 -3 29 -8q9 -4 19 -4t20 4q20 8 28 28q4 10 4 20t-4 18q-8 20 -28 28q-23 10 -47 15q-25 5 -51 5q-15 0 -30 2q-15 3 -29 9q-9 4 -19 4t-20 -4q-20 -7 -28 -27q-4 -10 -4 -20z" />
<glyph unicode="&#xe1;" d="M35 331q0 31 12 59q4 10 4 20v1228q0 148 105 254q106 104 254 104h409q145 -2 249 -104q104 -105 104 -254h6v-1434q0 -64 -46 -108q-46 -45 -108 -45q-64 0 -109 45q-45 44 -45 108v1434h-5q1 22 -15 36q-14 16 -36 16h-404q-22 0 -36 -16q-16 -14 -16 -36v-1228 q0 -36 -7 -72q-7 -34 -20 -66q-24 -58 -83 -83q-30 -12 -59 -12q-30 0 -59 12q-58 24 -83 83q-12 30 -12 59zM138 331q0 -9 4 -19q8 -20 28 -28q10 -4 20 -4t18 4q20 8 28 28q10 22 15 46q5 26 5 52v1228q0 64 45 108q45 46 109 46h409q59 -2 103 -46q44 -45 45 -108h5 v-1434q0 -22 16 -36q14 -14 36 -14q21 0 36 14t15 36v1434h-5q0 106 -75 181t-181 75h-404q-106 0 -182 -75q-74 -75 -74 -181v-1228q0 -16 -4 -31q-3 -15 -8 -29q-4 -10 -4 -19zM382 2237q0 30 12 59q24 58 83 83q33 13 67 20t70 7q10 0 20 4q28 12 58 12t60 -12 q58 -24 82 -83q12 -30 12 -59q0 -30 -12 -59q-24 -58 -82 -83q-32 -13 -67 -20t-71 -7q-10 0 -20 -4q-30 -12 -58 -12q-30 0 -59 12q-59 24 -83 83q-12 30 -12 59zM410 870v102h409v-102h-409zM410 1075v103h409v-103h-409zM484 2238q0 -10 4 -20q8 -20 28 -28q10 -4 20 -4 t19 4q14 6 29 8q15 4 30 4q26 0 51 4q24 4 47 14q20 8 28 28q4 10 4 20t-4 20q-8 20 -28 27q-10 4 -20 4t-19 -4q-15 -7 -29 -9q-15 -2 -30 -2q-26 0 -50 -5t-48 -15q-20 -8 -28 -28q-4 -10 -4 -18z" />
<glyph unicode="&#xe2;" d="M35 331q0 31 12 59q4 10 4 20v1228q0 148 105 254q106 104 254 104h409q145 -2 249 -104q104 -105 104 -254h6v-1434q0 -64 -46 -108q-46 -45 -108 -45q-64 0 -109 45q-45 44 -45 108v1434h-5q1 22 -15 36q-14 16 -36 16h-404q-22 0 -36 -16q-16 -14 -16 -36v-1228 q0 -36 -7 -72q-7 -34 -20 -66q-24 -58 -83 -83q-30 -12 -59 -12q-30 0 -59 12q-58 24 -83 83q-12 30 -12 59zM138 331q0 -9 4 -19q8 -20 28 -28q10 -4 20 -4t18 4q20 8 28 28q10 22 15 46q5 26 5 52v1228q0 64 45 108q45 46 109 46h409q59 -2 103 -46q44 -45 45 -108h5 v-1434q0 -22 16 -36q14 -14 36 -14q21 0 36 14t15 36v1434h-5q0 106 -75 181t-181 75h-404q-106 0 -182 -75q-74 -75 -74 -181v-1228q0 -16 -4 -31q-3 -15 -8 -29q-4 -10 -4 -19zM382 2237q0 30 12 59q24 58 83 83q33 13 67 20t70 7t71 -7t67 -20q58 -24 82 -83 q12 -30 12 -59q0 -30 -12 -59q-24 -58 -82 -83q-30 -12 -60 -12t-58 12q-10 4 -20 4t-20 -4q-30 -12 -58 -12q-30 0 -59 12q-59 24 -83 83q-12 30 -12 59zM410 870v102h409v-102h-409zM410 1075v103h409v-103h-409zM484 2238q0 -10 4 -20q8 -20 28 -28q10 -4 20 -4t19 4 q14 6 29 8q15 4 30 4q16 0 30 -4q14 -3 29 -8q9 -4 19 -4t20 4q20 8 28 28q4 10 4 20t-4 18q-8 20 -28 28q-23 10 -47 15q-25 5 -51 5t-50 -5t-48 -15q-20 -8 -28 -28q-4 -10 -4 -18z" />
<glyph unicode="&#xe3;" d="M35 331q0 31 12 59q4 10 4 20v1228q0 148 105 254q106 104 254 104h409q145 -2 249 -104q104 -105 104 -254h6v-1434q0 -64 -46 -108q-46 -45 -108 -45q-64 0 -109 45q-45 44 -45 108v1434h-5q1 22 -15 36q-14 16 -36 16h-404q-22 0 -36 -16q-16 -14 -16 -36v-1228 q0 -36 -7 -72q-7 -34 -20 -66q-24 -58 -83 -83q-30 -12 -59 -12q-30 0 -59 12q-58 24 -83 83q-12 30 -12 59zM138 331q0 -9 4 -19q8 -20 28 -28q10 -4 20 -4t18 4q20 8 28 28q10 22 15 46q5 26 5 52v1228q0 64 45 108q45 46 109 46h409q59 -2 103 -46q44 -45 45 -108h5 v-1434q0 -22 16 -36q14 -14 36 -14q21 0 36 14t15 36v1434h-5q0 106 -75 181t-181 75h-404q-106 0 -182 -75q-74 -75 -74 -181v-1228q0 -16 -4 -31q-3 -15 -8 -29q-4 -10 -4 -19zM177 2237q0 30 12 59q24 58 83 83q32 13 66 20q36 7 72 7h409q9 0 19 4q30 12 60 12 q29 0 58 -12q60 -24 84 -83q12 -30 12 -59q0 -30 -12 -59q-25 -58 -84 -83q-32 -13 -66 -20q-35 -7 -71 -7h-409q-10 0 -20 -4q-28 -12 -59 -12q-30 0 -59 12q-59 24 -83 83q-12 30 -12 59zM280 2238q0 -10 4 -20q8 -20 28 -28q10 -4 19 -4t19 4q14 6 29 8q15 4 31 4h409 q27 0 51 4t47 14q19 8 27 28q4 10 4 20t-4 20q-8 20 -27 27q-9 4 -19 4t-20 -4q-14 -7 -28 -9q-16 -2 -31 -2h-409q-26 0 -52 -5q-24 -5 -46 -15q-20 -8 -28 -28q-4 -10 -4 -18zM410 870v102h409v-102h-409zM410 1075v103h409v-103h-409z" />
<glyph unicode="&#xe4;" d="M35 331q0 31 12 59q4 10 4 20v1228q0 148 105 254q106 104 254 104h409q145 -2 249 -104q104 -105 104 -254h6v-1434q0 -64 -46 -108q-46 -45 -108 -45q-64 0 -109 45q-45 44 -45 108v1434h-5q1 22 -15 36q-14 16 -36 16h-404q-22 0 -36 -16q-16 -14 -16 -36v-1228 q0 -36 -7 -72q-7 -34 -20 -66q-24 -58 -83 -83q-30 -12 -59 -12q-30 0 -59 12q-58 24 -83 83q-12 30 -12 59zM138 331q0 -9 4 -19q8 -20 28 -28q10 -4 20 -4t18 4q20 8 28 28q10 22 15 46q5 26 5 52v1228q0 64 45 108q45 46 109 46h409q59 -2 103 -46q44 -45 45 -108h5 v-1434q0 -22 16 -36q14 -14 36 -14q21 0 36 14t15 36v1434h-5q0 106 -75 181t-181 75h-404q-106 0 -182 -75q-74 -75 -74 -181v-1228q0 -16 -4 -31q-3 -15 -8 -29q-4 -10 -4 -19zM256 2252q0 64 45 109t109 45t108 -45q45 -45 45 -109t-45 -108q-44 -45 -108 -45t-109 45 q-45 44 -45 108zM358 2252q0 -22 16 -36q14 -14 36 -14t36 14t14 36q0 20 -17 36q-15 16 -33 16q-22 0 -36 -16q-16 -14 -16 -36zM410 870v102h409v-102h-409zM410 1075v103h409v-103h-409zM666 2252q0 64 44 109q45 45 109 45q65 0 109 -45t44 -109t-44 -108 q-44 -45 -109 -45t-109 45q-44 44 -44 108zM768 2252q0 -22 15 -36q14 -14 36 -14q21 0 36 14t15 36q0 20 -18 36q-16 16 -33 16q-22 0 -36 -16q-15 -14 -15 -36z" />
<glyph unicode="&#xe5;" d="M35 331q0 31 12 59q4 10 4 20v1228q0 148 105 254q106 104 254 104h409q21 0 36 16q15 15 15 36h-5q1 21 -15 36q-14 15 -36 15h-404q-22 0 -36 -15q-16 -15 -16 -36h-102q0 62 45 108t109 46h409q59 -2 103 -46q44 -46 45 -108h5q0 -64 -44 -109q-45 -45 -109 -45h-409 q-106 0 -182 -75q-74 -75 -74 -181v-1228q0 -16 -4 -31q-3 -15 -8 -29q-4 -10 -4 -19t4 -19q8 -20 28 -28q10 -4 20 -4t18 4q20 8 28 28q10 22 15 46q5 26 5 52v1228q0 64 45 108q45 46 109 46h409q106 0 181 74q75 75 75 182h-5q0 106 -75 181t-181 75h-404 q-106 0 -182 -75q-74 -75 -74 -181v-26q-48 -32 -88 -76q-8 24 -12 50t-3 52q0 148 105 254q106 104 254 104h409q145 -2 249 -104q104 -106 104 -254h6q0 -148 -106 -254q-106 -104 -253 -104h-409q-22 0 -36 -16q-16 -14 -16 -36v-1228q0 -36 -7 -72q-7 -34 -20 -66 q-24 -58 -83 -83q-29 -12 -59 -12t-59 12q-58 24 -83 83q-12 30 -12 59zM410 870v102h409v-102h-409zM410 1075v103h409v-103h-409zM870 204v1434h102v-1434q0 -22 16 -36q15 -14 36 -14t36 14t15 36v1434q1 12 -1 26q48 32 88 76q8 -24 12 -50t4 -52v-1434q0 -64 -46 -108 q-46 -45 -108 -45q-64 0 -109 45q-45 44 -45 108z" />
<glyph unicode="&#xe6;" horiz-adv-x="2252" d="M35 331q0 31 12 59q4 10 4 20v1228q0 148 105 254q106 104 254 104h409q147 0 253 -104q106 -105 106 -254v-1228q0 -22 14 -36q14 -16 36 -16h615q65 0 109 -45t44 -109t-44 -108q-45 -45 -109 -45h-615q-148 0 -253 105q-105 106 -105 254v1228q0 22 -15 36 q-15 16 -36 16h-409q-22 0 -36 -16q-16 -14 -16 -36v-1228q0 -36 -7 -72q-7 -34 -20 -66q-24 -58 -83 -83q-30 -12 -59 -12q-30 0 -59 12q-58 24 -83 83q-12 30 -12 59zM138 331q0 -9 4 -19q8 -20 28 -28q10 -4 20 -4t18 4q20 8 28 28q10 22 15 46q5 26 5 52v1228 q0 64 45 108q45 46 109 46h409q65 0 109 -46q44 -45 44 -108v-1228q0 -106 76 -182q74 -74 180 -74h615q21 0 36 14t15 36t-15 36q-15 16 -36 16h-615q-64 0 -108 45q-45 45 -45 109v1228q0 106 -75 181t-181 75h-409q-106 0 -182 -75q-74 -75 -74 -181v-1228q0 -16 -4 -31 q-3 -15 -8 -29q-4 -10 -4 -19zM410 870v102h409v-102h-409zM410 1075v103h409v-103h-409zM1126 1982q24 7 50 11q26 3 52 3h410q10 0 20 4q28 12 58 12t60 -12q58 -24 82 -82q12 -30 12 -60t-12 -58q-24 -58 -82 -84q-32 -14 -67 -20t-71 -6h-410v102h410q26 0 51 4 q24 5 47 15q20 8 28 28q4 9 4 19t-4 20q-8 20 -28 28q-10 4 -20 4t-19 -4q-15 -6 -29 -9q-15 -3 -30 -3h-410q-12 0 -25 -1q-32 48 -77 89zM1228 870v102h410q22 0 36 16q16 15 16 36t-16 36q-14 15 -36 15h-410v103h410q64 0 108 -46q46 -46 46 -108q0 -64 -46 -109 q-45 -45 -108 -45h-410z" />
<glyph unicode="&#xe7;" d="M51 410v1228q0 148 105 254q106 104 254 104h409q9 0 19 4q30 12 60 12q29 0 58 -12q60 -24 84 -82q12 -30 12 -60t-12 -58q-25 -58 -84 -84q-32 -14 -66 -20q-35 -6 -71 -6h-409q-22 0 -36 -16q-16 -14 -16 -36v-1228q0 -22 16 -36q14 -16 36 -16q148 0 253 -104 q105 -106 105 -254q0 -36 -7 -70t-21 -67q-24 -58 -82 -83q-30 -12 -60 -12t-58 12q-58 24 -84 83q-12 30 -12 59q0 30 12 58q4 10 4 20q0 21 -14 36t-36 15q-148 0 -254 105q-105 106 -105 254zM154 410q0 -106 74 -182q76 -74 182 -74q64 0 108 -46q45 -46 45 -108 q0 -15 -3 -30q-2 -14 -8 -28q-4 -10 -4 -20t4 -20q8 -20 28 -28q10 -4 19 -4q10 0 19 4q20 8 28 28q10 24 14 48q6 25 6 50q0 106 -76 181q-74 75 -180 75q-64 0 -109 45t-45 109v1228q0 64 45 108q45 46 109 46h409q27 0 51 4q24 5 47 15q19 8 27 28q4 9 4 19t-4 20 q-8 20 -27 28q-9 4 -19 4t-20 -4q-14 -6 -28 -9q-16 -3 -31 -3h-409q-106 0 -182 -75q-74 -75 -74 -181v-1228zM716 344q24 8 50 10q26 4 53 4h205q62 0 108 -45t46 -109t-46 -108q-46 -45 -108 -45h-205v103h205q21 0 36 14t15 36t-15 36q-15 16 -36 16h-205q-11 0 -25 -2 q-32 50 -78 90z" />
<glyph unicode="&#xe8;" d="M51 410v1228q0 148 105 254q106 104 254 104h409q9 0 19 4q30 12 60 12q29 0 58 -12q60 -24 84 -82q12 -30 12 -60t-12 -58q-25 -58 -84 -84q-32 -14 -66 -20q-35 -6 -71 -6h-409q-22 0 -36 -16q-16 -14 -16 -36v-1228q0 -22 16 -36q14 -16 36 -16h614q62 0 108 -45 t46 -109t-46 -108q-46 -45 -108 -45h-614q-148 0 -254 105q-105 106 -105 254zM154 410q0 -106 74 -182q76 -74 182 -74h614q21 0 36 14t15 36t-15 36q-15 16 -36 16h-614q-64 0 -109 45t-45 109v1228q0 64 45 108q45 46 109 46h409q27 0 51 4q24 5 47 15q19 8 27 28 q4 9 4 19t-4 20q-8 20 -27 28q-9 4 -19 4t-20 -4q-14 -6 -28 -9q-16 -3 -31 -3h-409q-106 0 -182 -75q-74 -75 -74 -181v-1228zM382 2268q0 30 12 59q24 58 83 83q30 12 59 12q28 0 58 -12q10 -4 20 -4q36 0 71 -7t67 -20q58 -24 82 -83q12 -30 12 -59q0 -30 -12 -59 q-24 -58 -82 -83q-30 -12 -60 -12t-58 12q-10 4 -20 4q-36 0 -70 7t-67 20q-58 24 -83 83q-12 30 -12 59zM410 870v102h409q21 0 36 16q15 15 15 36t-15 36t-36 15h-409v103h409q65 0 109 -46t44 -108q0 -64 -44 -109q-45 -45 -109 -45h-409zM484 2268q0 -10 4 -20 q8 -20 28 -28q22 -10 48 -14q25 -4 50 -4q16 0 30 -4q14 -3 29 -8q9 -4 19 -4t20 4q20 8 28 28q4 10 4 20t-4 18q-8 20 -28 28q-23 10 -47 15q-25 5 -51 5q-15 0 -30 2q-15 3 -29 9q-9 4 -19 4t-20 -4q-20 -7 -28 -27q-4 -10 -4 -20z" />
<glyph unicode="&#xe9;" d="M51 410v1228q0 148 105 254q106 104 254 104h409q9 0 19 4q30 12 60 12q29 0 58 -12q60 -24 84 -82q12 -30 12 -60t-12 -58q-25 -58 -84 -84q-32 -14 -66 -20q-35 -6 -71 -6h-409q-22 0 -36 -16q-16 -14 -16 -36v-1228q0 -22 16 -36q14 -16 36 -16h614q62 0 108 -45 t46 -109t-46 -108q-46 -45 -108 -45h-614q-148 0 -254 105q-105 106 -105 254zM154 410q0 -106 74 -182q76 -74 182 -74h614q21 0 36 14t15 36t-15 36q-15 16 -36 16h-614q-64 0 -109 45t-45 109v1228q0 64 45 108q45 46 109 46h409q27 0 51 4q24 5 47 15q19 8 27 28 q4 9 4 19t-4 20q-8 20 -27 28q-9 4 -19 4t-20 -4q-14 -6 -28 -9q-16 -3 -31 -3h-409q-106 0 -182 -75q-74 -75 -74 -181v-1228zM382 2237q0 30 12 59q24 58 83 83q33 13 67 20t70 7q10 0 20 4q28 12 58 12t60 -12q58 -24 82 -83q12 -30 12 -59q0 -30 -12 -59 q-24 -58 -82 -83q-32 -13 -67 -20t-71 -7q-10 0 -20 -4q-30 -12 -58 -12q-30 0 -59 12q-59 24 -83 83q-12 30 -12 59zM410 870v102h409q21 0 36 16q15 15 15 36t-15 36t-36 15h-409v103h409q65 0 109 -46t44 -108q0 -64 -44 -109q-45 -45 -109 -45h-409zM484 2238 q0 -10 4 -20q8 -20 28 -28q10 -4 20 -4t19 4q14 6 29 8q15 4 30 4q26 0 51 4q24 4 47 14q20 8 28 28q4 10 4 20t-4 20q-8 20 -28 27q-10 4 -20 4t-19 -4q-15 -7 -29 -9q-15 -2 -30 -2q-26 0 -50 -5t-48 -15q-20 -8 -28 -28q-4 -10 -4 -18z" />
<glyph unicode="&#xea;" d="M51 410v1228q0 148 105 254q106 104 254 104h409q9 0 19 4q30 12 60 12q29 0 58 -12q60 -24 84 -82q12 -30 12 -60t-12 -58q-25 -58 -84 -84q-32 -14 -66 -20q-35 -6 -71 -6h-409q-22 0 -36 -16q-16 -14 -16 -36v-1228q0 -22 16 -36q14 -16 36 -16h614q62 0 108 -45 t46 -109t-46 -108q-46 -45 -108 -45h-614q-148 0 -254 105q-105 106 -105 254zM154 410q0 -106 74 -182q76 -74 182 -74h614q21 0 36 14t15 36t-15 36q-15 16 -36 16h-614q-64 0 -109 45t-45 109v1228q0 64 45 108q45 46 109 46h409q27 0 51 4q24 5 47 15q19 8 27 28 q4 9 4 19t-4 20q-8 20 -27 28q-9 4 -19 4t-20 -4q-14 -6 -28 -9q-16 -3 -31 -3h-409q-106 0 -182 -75q-74 -75 -74 -181v-1228zM382 2237q0 30 12 59q24 58 83 83q33 13 67 20t70 7t71 -7t67 -20q58 -24 82 -83q12 -30 12 -59q0 -30 -12 -59q-24 -58 -82 -83 q-30 -12 -60 -12t-58 12q-10 4 -20 4t-20 -4q-30 -12 -58 -12q-30 0 -59 12q-59 24 -83 83q-12 30 -12 59zM410 870v102h409q21 0 36 16q15 15 15 36t-15 36t-36 15h-409v103h409q65 0 109 -46t44 -108q0 -64 -44 -109q-45 -45 -109 -45h-409zM484 2238q0 -10 4 -20 q8 -20 28 -28q10 -4 20 -4t19 4q14 6 29 8q15 4 30 4q16 0 30 -4q14 -3 29 -8q9 -4 19 -4t20 4q20 8 28 28q4 10 4 20t-4 18q-8 20 -28 28q-23 10 -47 15q-25 5 -51 5t-50 -5t-48 -15q-20 -8 -28 -28q-4 -10 -4 -18z" />
<glyph unicode="&#xeb;" d="M51 410v1228q0 148 105 254q106 104 254 104h409q9 0 19 4q30 12 60 12q29 0 58 -12q60 -24 84 -82q12 -30 12 -60t-12 -58q-25 -58 -84 -84q-32 -14 -66 -20q-35 -6 -71 -6h-409q-22 0 -36 -16q-16 -14 -16 -36v-1228q0 -22 16 -36q14 -16 36 -16h614q62 0 108 -45 t46 -109t-46 -108q-46 -45 -108 -45h-614q-148 0 -254 105q-105 106 -105 254zM154 410q0 -106 74 -182q76 -74 182 -74h614q21 0 36 14t15 36t-15 36q-15 16 -36 16h-614q-64 0 -109 45t-45 109v1228q0 64 45 108q45 46 109 46h409q27 0 51 4q24 5 47 15q19 8 27 28 q4 9 4 19t-4 20q-8 20 -27 28q-9 4 -19 4t-20 -4q-14 -6 -28 -9q-16 -3 -31 -3h-409q-106 0 -182 -75q-74 -75 -74 -181v-1228zM256 2252q0 64 45 109t109 45t108 -45q45 -45 45 -109t-45 -108q-44 -45 -108 -45t-109 45q-45 44 -45 108zM358 2252q0 -22 16 -36 q14 -14 36 -14t36 14t14 36q0 20 -17 36q-15 16 -33 16q-22 0 -36 -16q-16 -14 -16 -36zM410 870v102h409q21 0 36 16q15 15 15 36t-15 36t-36 15h-409v103h409q65 0 109 -46t44 -108q0 -64 -44 -109q-45 -45 -109 -45h-409zM666 2252q0 64 44 109q45 45 109 45 q65 0 109 -45t44 -109t-44 -108q-44 -45 -109 -45t-109 45q-44 44 -44 108zM768 2252q0 -22 15 -36q14 -14 36 -14q21 0 36 14t15 36q0 20 -18 36q-16 16 -33 16q-22 0 -36 -16q-15 -14 -15 -36z" />
<glyph unicode="&#xec;" horiz-adv-x="614" d="M-16 2268q0 30 12 59q24 58 84 83q30 12 58 12q30 0 59 -12q9 -4 19 -4q36 0 72 -7q34 -7 66 -20q58 -24 83 -83q12 -30 12 -59q0 -30 -12 -59q-24 -58 -83 -83q-29 -12 -59 -12t-59 12q-10 4 -20 4q-36 0 -70 7t-66 20q-58 24 -84 83q-12 30 -12 59zM63 204v1639 q0 65 45 109q44 44 108 44t109 -44q45 -45 45 -109v-1639q0 -64 -45 -108q-45 -45 -109 -45t-108 45q-45 44 -45 108zM87 2268q0 -10 4 -20q7 -20 27 -28q23 -10 48 -14q24 -4 50 -4q15 0 31 -4q15 -3 29 -8q10 -4 19 -4t19 4q20 8 28 28q4 10 4 20t-4 18q-8 20 -28 28 q-22 10 -46 15q-26 5 -52 5q-15 0 -30 2q-14 3 -28 9q-10 4 -20 4t-20 -4q-20 -7 -27 -27q-4 -10 -4 -20zM166 204q0 -22 14 -36t36 -14t36 14q16 14 16 36v1639q0 21 -16 36q-14 15 -36 15t-36 -15t-14 -36v-1639z" />
<glyph unicode="&#xed;" horiz-adv-x="614" d="M-16 2237q0 30 12 59q24 58 84 83q32 13 66 20t70 7q10 0 20 4q30 12 59 12q30 0 59 -12q58 -24 83 -83q12 -30 12 -59q0 -30 -12 -59q-24 -58 -83 -83q-32 -13 -66 -20q-36 -7 -72 -7q-10 0 -19 -4q-29 -12 -59 -12q-28 0 -58 12q-60 24 -84 83q-12 30 -12 59zM63 204 v1639q0 65 45 109q44 44 108 44t109 -44q45 -45 45 -109v-1639q0 -64 -45 -108q-45 -45 -109 -45t-108 45q-45 44 -45 108zM87 2238q0 -10 4 -20q7 -20 27 -28q10 -4 20 -4t20 4q14 6 28 8q16 4 30 4q26 0 52 4q24 4 46 14q20 8 28 28q4 10 4 20t-4 20q-8 20 -28 27 q-10 4 -19 4t-19 -4q-14 -7 -29 -9q-17 -2 -31 -2q-26 0 -50 -5t-48 -15q-20 -8 -27 -28q-4 -10 -4 -18zM166 204q0 -22 14 -36t36 -14t36 14q16 14 16 36v1639q0 21 -16 36q-14 15 -36 15t-36 -15t-14 -36v-1639z" />
<glyph unicode="&#xee;" horiz-adv-x="614" d="M-16 2237q0 30 12 59q24 58 84 83q32 13 66 20t70 7t72 -7q34 -7 66 -20q58 -24 83 -83q12 -30 12 -59q0 -30 -12 -59q-24 -58 -83 -83q-30 -12 -59 -12q-30 0 -59 12q-10 4 -20 4t-19 -4q-29 -12 -59 -12q-28 0 -58 12q-60 24 -84 83q-12 30 -12 59zM63 204v1639 q0 65 45 109q44 44 108 44t109 -44q45 -45 45 -109v-1639q0 -64 -45 -108q-45 -45 -109 -45t-108 45q-45 44 -45 108zM87 2238q0 -10 4 -20q7 -20 27 -28q10 -4 20 -4t20 4q14 6 28 8q16 4 30 4q15 0 31 -4q15 -3 29 -8q10 -4 19 -4t19 4q20 8 28 28q4 10 4 20t-4 18 q-8 20 -28 28q-22 10 -46 15q-26 5 -52 5t-50 -5t-48 -15q-20 -8 -27 -28q-4 -10 -4 -18zM166 204q0 -22 14 -36t36 -14t36 14q16 14 16 36v1639q0 21 -16 36q-14 15 -36 15t-36 -15t-14 -36v-1639z" />
<glyph unicode="&#xef;" horiz-adv-x="614" d="M-154 2252q0 64 46 109t108 45t108 -45t46 -109t-46 -108q-46 -45 -108 -45t-108 45q-46 44 -46 108zM-51 2252q0 -22 15 -36t36 -14t36 14t15 36q1 20 -17 36q-16 16 -34 16q-21 0 -36 -16q-15 -14 -15 -36zM51 204v1639q0 65 45 109q44 44 108 44t109 -44 q45 -45 45 -109v-1639q0 -64 -45 -108q-45 -45 -109 -45t-108 45q-45 44 -45 108zM154 204q0 -22 14 -36t36 -14t36 14q16 14 16 36v1639q0 21 -16 36q-14 15 -36 15t-36 -15t-14 -36v-1639zM256 2252q0 64 45 109t109 45t108 -45q45 -45 45 -109t-45 -108q-44 -45 -108 -45 t-109 45q-45 44 -45 108zM358 2252q0 -22 16 -36q14 -14 36 -14t36 14t14 36q0 20 -17 36q-15 16 -33 16q-22 0 -36 -16q-16 -14 -16 -36z" />
<glyph unicode="&#xf0;" d="M35 331q0 31 12 59q4 10 4 20v529q45 -55 103 -93v-436q0 -16 -4 -31q-3 -15 -8 -29q-4 -10 -4 -19t4 -19q8 -20 28 -28q10 -4 20 -4t18 4q20 8 28 28q10 22 15 46q5 26 5 52v409h102v-409q0 -36 -7 -72q-7 -34 -20 -66q-24 -58 -83 -83q-29 -12 -59 -12t-59 12 q-58 24 -83 83q-12 30 -12 59zM51 1228v410q0 148 105 254q106 104 254 104h409q145 -2 249 -104q104 -105 104 -254h6v-1228q0 -148 -106 -254q-106 -105 -253 -105h-205q-64 0 -108 45q-46 44 -46 108t46 109q45 45 108 45h205q21 0 36 16q15 14 15 36v1228h-5 q1 22 -15 36q-14 16 -36 16h-404q-22 0 -36 -16q-16 -14 -16 -36v-410q0 -22 16 -36q14 -14 36 -14h204q64 0 108 -46q46 -46 46 -108q0 -64 -46 -109q-45 -45 -108 -45h-204q-148 0 -254 105q-105 105 -105 253zM154 1228q0 -106 74 -180q76 -76 182 -76h204q22 0 36 16 q16 15 16 36t-16 36q-14 15 -36 15h-204q-64 0 -109 45q-45 44 -45 108v410q0 64 45 108q45 46 109 46h409q59 -2 103 -46q44 -45 45 -108h5v-1228q0 -64 -44 -109q-45 -45 -109 -45h-205q-21 0 -36 -16q-15 -14 -15 -36t15 -36t36 -14h205q106 0 181 74q75 76 75 182v1228 h-5q0 106 -75 181t-181 75h-404q-106 0 -182 -75q-74 -75 -74 -181v-410z" />
<glyph unicode="&#xf1;" d="M51 204v1434q0 148 105 254q106 104 254 104h409q145 -2 249 -104q104 -105 104 -254h6v-1434q0 -64 -46 -108q-46 -45 -108 -45q-64 0 -109 45q-45 44 -45 108v1434h-5q1 22 -15 36q-14 16 -36 16h-404q-22 0 -36 -16q-16 -14 -16 -36v-1434q0 -64 -45 -108 q-45 -45 -109 -45t-108 45q-45 44 -45 108zM154 204q0 -22 14 -36t36 -14t36 14q16 14 16 36v1434q0 64 45 108q45 46 109 46h409q59 -2 103 -46q44 -45 45 -108h5v-1434q0 -22 16 -36q14 -14 36 -14q21 0 36 14t15 36v1434h-5q0 106 -75 181t-181 75h-404q-106 0 -182 -75 q-74 -75 -74 -181v-1434zM177 2237q0 30 12 59q24 58 83 83q32 13 66 20q36 7 72 7h409q9 0 19 4q30 12 60 12q29 0 58 -12q60 -24 84 -83q12 -30 12 -59q0 -30 -12 -59q-25 -58 -84 -83q-32 -13 -66 -20q-35 -7 -71 -7h-409q-10 0 -20 -4q-28 -12 -59 -12q-30 0 -59 12 q-59 24 -83 83q-12 30 -12 59zM280 2238q0 -10 4 -20q8 -20 28 -28q10 -4 19 -4t19 4q14 6 29 8q15 4 31 4h409q27 0 51 4t47 14q19 8 27 28q4 10 4 20t-4 20q-8 20 -27 27q-9 4 -19 4t-20 -4q-14 -7 -28 -9q-16 -2 -31 -2h-409q-26 0 -52 -5q-24 -5 -46 -15q-20 -8 -28 -28 q-4 -10 -4 -18z" />
<glyph unicode="&#xf2;" d="M51 410v1228q0 36 7 71t20 67q24 58 83 82q30 12 59 12q30 0 59 -12q58 -24 83 -82q12 -30 12 -60t-12 -58q-4 -10 -4 -20v-1228q0 -22 16 -36q14 -16 36 -16h409q21 0 36 16q15 14 15 36v1228h-5q1 22 -15 36q-14 16 -36 16h-200q-64 0 -108 44q-46 45 -46 109 q0 65 46 109q45 44 108 44h205q145 -2 249 -104q104 -105 104 -254h6v-1228q0 -148 -106 -254q-106 -105 -253 -105h-409q-148 0 -254 105q-105 106 -105 254zM154 410q0 -106 74 -182q76 -74 182 -74h409q106 0 181 74q75 76 75 182v1228h-5q0 106 -75 181t-181 75h-200 q-21 0 -36 -15t-15 -36q0 -22 15 -36q15 -15 36 -15h205q59 -2 103 -46q44 -45 45 -108h5v-1228q0 -64 -44 -109q-45 -45 -109 -45h-409q-64 0 -109 45t-45 109v1228q0 16 2 30q3 14 9 29q4 9 4 19t-4 20q-7 20 -27 28q-10 4 -20 4t-20 -4q-20 -8 -28 -28q-10 -23 -14 -47 q-4 -25 -4 -51v-1228zM382 2268q0 30 12 59q24 58 83 83q30 12 59 12q28 0 58 -12q10 -4 20 -4q36 0 71 -7t67 -20q58 -24 82 -83q12 -30 12 -59q0 -30 -12 -59q-24 -58 -82 -83q-30 -12 -60 -12t-58 12q-10 4 -20 4q-36 0 -70 7t-67 20q-58 24 -83 83q-12 30 -12 59z M484 2268q0 -10 4 -20q8 -20 28 -28q22 -10 48 -14q25 -4 50 -4q16 0 30 -4q14 -3 29 -8q9 -4 19 -4t20 4q20 8 28 28q4 10 4 20t-4 18q-8 20 -28 28q-23 10 -47 15q-25 5 -51 5q-15 0 -30 2q-15 3 -29 9q-9 4 -19 4t-20 -4q-20 -7 -28 -27q-4 -10 -4 -20z" />
<glyph unicode="&#xf3;" d="M51 410v1228q0 36 7 71t20 67q24 58 83 82q30 12 59 12q30 0 59 -12q58 -24 83 -82q12 -30 12 -60t-12 -58q-4 -10 -4 -20v-1228q0 -22 16 -36q14 -16 36 -16h409q21 0 36 16q15 14 15 36v1228h-5q1 22 -15 36q-14 16 -36 16h-200q-64 0 -108 44q-46 45 -46 109 q0 65 46 109q45 44 108 44h205q145 -2 249 -104q104 -105 104 -254h6v-1228q0 -148 -106 -254q-106 -105 -253 -105h-409q-148 0 -254 105q-105 106 -105 254zM154 410q0 -106 74 -182q76 -74 182 -74h409q106 0 181 74q75 76 75 182v1228h-5q0 106 -75 181t-181 75h-200 q-21 0 -36 -15t-15 -36q0 -22 15 -36q15 -15 36 -15h205q59 -2 103 -46q44 -45 45 -108h5v-1228q0 -64 -44 -109q-45 -45 -109 -45h-409q-64 0 -109 45t-45 109v1228q0 16 2 30q3 14 9 29q4 9 4 19t-4 20q-7 20 -27 28q-10 4 -20 4t-20 -4q-20 -8 -28 -28q-10 -23 -14 -47 q-4 -25 -4 -51v-1228zM382 2237q0 30 12 59q24 58 83 83q33 13 67 20t70 7q10 0 20 4q28 12 58 12t60 -12q58 -24 82 -83q12 -30 12 -59q0 -30 -12 -59q-24 -58 -82 -83q-32 -13 -67 -20t-71 -7q-10 0 -20 -4q-30 -12 -58 -12q-30 0 -59 12q-59 24 -83 83q-12 30 -12 59z M484 2238q0 -10 4 -20q8 -20 28 -28q10 -4 20 -4t19 4q14 6 29 8q15 4 30 4q26 0 51 4q24 4 47 14q20 8 28 28q4 10 4 20t-4 20q-8 20 -28 27q-10 4 -20 4t-19 -4q-15 -7 -29 -9q-15 -2 -30 -2q-26 0 -50 -5t-48 -15q-20 -8 -28 -28q-4 -10 -4 -18z" />
<glyph unicode="&#xf4;" d="M51 410v1228q0 36 7 71t20 67q24 58 83 82q30 12 59 12q30 0 59 -12q58 -24 83 -82q12 -30 12 -60t-12 -58q-4 -10 -4 -20v-1228q0 -22 16 -36q14 -16 36 -16h409q21 0 36 16q15 14 15 36v1228h-5q1 22 -15 36q-14 16 -36 16h-200q-64 0 -108 44q-46 45 -46 109 q0 65 46 109q45 44 108 44h205q145 -2 249 -104q104 -105 104 -254h6v-1228q0 -148 -106 -254q-106 -105 -253 -105h-409q-148 0 -254 105q-105 106 -105 254zM154 410q0 -106 74 -182q76 -74 182 -74h409q106 0 181 74q75 76 75 182v1228h-5q0 106 -75 181t-181 75h-200 q-21 0 -36 -15t-15 -36q0 -22 15 -36q15 -15 36 -15h205q59 -2 103 -46q44 -45 45 -108h5v-1228q0 -64 -44 -109q-45 -45 -109 -45h-409q-64 0 -109 45t-45 109v1228q0 16 2 30q3 14 9 29q4 9 4 19t-4 20q-7 20 -27 28q-10 4 -20 4t-20 -4q-20 -8 -28 -28q-10 -23 -14 -47 q-4 -25 -4 -51v-1228zM382 2237q0 30 12 59q24 58 83 83q33 13 67 20t70 7t71 -7t67 -20q58 -24 82 -83q12 -30 12 -59q0 -30 -12 -59q-24 -58 -82 -83q-30 -12 -60 -12t-58 12q-10 4 -20 4t-20 -4q-30 -12 -58 -12q-30 0 -59 12q-59 24 -83 83q-12 30 -12 59zM484 2238 q0 -10 4 -20q8 -20 28 -28q10 -4 20 -4t19 4q14 6 29 8q15 4 30 4q16 0 30 -4q14 -3 29 -8q9 -4 19 -4t20 4q20 8 28 28q4 10 4 20t-4 18q-8 20 -28 28q-23 10 -47 15q-25 5 -51 5t-50 -5t-48 -15q-20 -8 -28 -28q-4 -10 -4 -18z" />
<glyph unicode="&#xf5;" d="M51 410v1228q0 36 7 71t20 67q24 58 83 82q30 12 59 12q30 0 59 -12q58 -24 83 -82q12 -30 12 -60t-12 -58q-4 -10 -4 -20v-1228q0 -22 16 -36q14 -16 36 -16h409q21 0 36 16q15 14 15 36v1228h-5q1 22 -15 36q-14 16 -36 16h-200q-64 0 -108 44q-46 45 -46 109 q0 65 46 109q45 44 108 44h205q145 -2 249 -104q104 -105 104 -254h6v-1228q0 -148 -106 -254q-106 -105 -253 -105h-409q-148 0 -254 105q-105 106 -105 254zM154 410q0 -106 74 -182q76 -74 182 -74h409q106 0 181 74q75 76 75 182v1228h-5q0 106 -75 181t-181 75h-200 q-21 0 -36 -15t-15 -36q0 -22 15 -36q15 -15 36 -15h205q59 -2 103 -46q44 -45 45 -108h5v-1228q0 -64 -44 -109q-45 -45 -109 -45h-409q-64 0 -109 45t-45 109v1228q0 16 2 30q3 14 9 29q4 9 4 19t-4 20q-7 20 -27 28q-10 4 -20 4t-20 -4q-20 -8 -28 -28q-10 -23 -14 -47 q-4 -25 -4 -51v-1228zM177 2237q0 30 12 59q24 58 83 83q32 13 66 20q36 7 72 7h409q9 0 19 4q30 12 60 12q29 0 58 -12q60 -24 84 -83q12 -30 12 -59q0 -30 -12 -59q-25 -58 -84 -83q-32 -13 -66 -20q-35 -7 -71 -7h-409q-10 0 -20 -4q-28 -12 -59 -12q-30 0 -59 12 q-59 24 -83 83q-12 30 -12 59zM280 2238q0 -10 4 -20q8 -20 28 -28q10 -4 19 -4t19 4q14 6 29 8q15 4 31 4h409q27 0 51 4t47 14q19 8 27 28q4 10 4 20t-4 20q-8 20 -27 27q-9 4 -19 4t-20 -4q-14 -7 -28 -9q-16 -2 -31 -2h-409q-26 0 -52 -5q-24 -5 -46 -15q-20 -8 -28 -28 q-4 -10 -4 -18z" />
<glyph unicode="&#xf6;" d="M51 410v1228q0 36 7 71t20 67q24 58 83 82q30 12 59 12q30 0 59 -12q58 -24 83 -82q12 -30 12 -60t-12 -58q-4 -10 -4 -20v-1228q0 -22 16 -36q14 -16 36 -16h409q21 0 36 16q15 14 15 36v1228h-5q1 22 -15 36q-14 16 -36 16h-200q-64 0 -108 44q-46 45 -46 109 q0 65 46 109q45 44 108 44h205q145 -2 249 -104q104 -105 104 -254h6v-1228q0 -148 -106 -254q-106 -105 -253 -105h-409q-148 0 -254 105q-105 106 -105 254zM154 410q0 -106 74 -182q76 -74 182 -74h409q106 0 181 74q75 76 75 182v1228h-5q0 106 -75 181t-181 75h-200 q-21 0 -36 -15t-15 -36q0 -22 15 -36q15 -15 36 -15h205q59 -2 103 -46q44 -45 45 -108h5v-1228q0 -64 -44 -109q-45 -45 -109 -45h-409q-64 0 -109 45t-45 109v1228q0 16 2 30q3 14 9 29q4 9 4 19t-4 20q-7 20 -27 28q-10 4 -20 4t-20 -4q-20 -8 -28 -28q-10 -23 -14 -47 q-4 -25 -4 -51v-1228zM256 2252q0 64 45 109t109 45t108 -45q45 -45 45 -109t-45 -108q-44 -45 -108 -45t-109 45q-45 44 -45 108zM358 2252q0 -22 16 -36q14 -14 36 -14t36 14t14 36q0 20 -17 36q-15 16 -33 16q-22 0 -36 -16q-16 -14 -16 -36zM666 2252q0 64 44 109 q45 45 109 45q65 0 109 -45t44 -109t-44 -108q-44 -45 -109 -45t-109 45q-44 44 -44 108zM768 2252q0 -22 15 -36q14 -14 36 -14q21 0 36 14t15 36q0 20 -18 36q-16 16 -33 16q-22 0 -36 -16q-15 -14 -15 -36z" />
<glyph unicode="&#xf7;" d="M51 1024q0 62 45 108q44 46 108 46h820q62 0 108 -46t46 -108q0 -64 -46 -109t-108 -45h-820q-64 0 -108 45q-45 46 -45 109zM154 1024q0 -22 14 -36q14 -16 36 -16h820q21 0 36 16q15 15 15 36t-15 36t-36 15h-820q-22 0 -36 -15t-14 -36zM460 614q0 64 46 108 q45 46 108 46q64 0 108 -46q46 -45 46 -108q0 -64 -46 -108q-44 -46 -108 -46t-108 46q-46 45 -46 108zM460 1434q0 64 46 108q45 45 108 45q64 0 108 -45q46 -44 46 -108t-46 -109q-44 -45 -108 -45t-108 45q-46 45 -46 109zM563 614q0 -21 15 -36t36 -15q22 0 36 15 q16 15 16 36q0 20 -18 36q-16 16 -34 16q-21 0 -36 -16q-15 -14 -15 -36zM563 1434q0 -22 15 -36q15 -16 36 -16q22 0 36 16q16 14 16 36q0 20 -18 36q-16 14 -34 14q-21 0 -36 -14t-15 -36z" />
<glyph unicode="&#xf8;" d="M51 410v409q0 147 105 253q106 106 254 106h409q21 0 36 14t15 36v410h-5q1 22 -15 36q-14 16 -36 16h-200q-64 0 -108 44q-46 45 -46 109q0 65 46 109q45 44 108 44h205q145 -2 249 -104q104 -105 104 -254h6v-410q0 -148 -106 -253t-253 -105h-409q-22 0 -36 -15 q-16 -15 -16 -36v-409q0 -22 16 -36q14 -16 36 -16h409q21 0 36 16q15 14 15 36v409h102v-409q0 -64 -44 -109q-45 -45 -109 -45h-409q-64 0 -109 45t-45 109v409q0 65 45 109t109 44h409q106 0 181 76q75 74 75 180v410h-5q0 106 -75 181t-181 75h-200q-21 0 -36 -15 t-15 -36q0 -22 15 -36q15 -15 36 -15h205q59 -2 103 -46q44 -45 45 -108h5v-410q0 -64 -44 -108q-45 -45 -109 -45h-409q-106 0 -182 -75q-74 -75 -74 -181v-409q0 -106 74 -182q76 -74 182 -74h409q106 0 181 74q75 76 75 182v409q1 11 -1 25q48 32 88 78q8 -24 12 -50 t4 -53v-409q0 -148 -106 -254q-106 -105 -253 -105h-409q-148 0 -254 105q-105 106 -105 254zM51 1228v410q0 36 7 71t20 67q24 58 83 82q30 12 59 12q30 0 59 -12q58 -24 83 -82q12 -30 12 -60t-12 -58q-4 -10 -4 -20v-410h-102v410q0 16 2 30q3 14 9 29q4 9 4 19t-4 20 q-7 20 -27 28q-10 4 -20 4t-20 -4q-20 -8 -28 -28q-10 -23 -14 -47q-4 -25 -4 -51v-410v-25q-48 -33 -88 -77q-8 24 -12 50t-3 52z" />
<glyph unicode="&#xf9;" d="M51 410v1433q0 65 45 109q44 44 108 44t109 -44q45 -45 45 -109v-1433q0 -22 16 -36q14 -16 36 -16h409q21 0 36 16q15 14 15 36v1433q0 65 45 109q46 44 109 44q62 0 108 -44q46 -45 46 -109v-1433q0 -148 -106 -254q-106 -105 -253 -105h-409q-148 0 -254 105 q-105 106 -105 254zM154 410q0 -106 74 -182q76 -74 182 -74h409q106 0 181 74q75 76 75 182v1433q0 21 -15 36t-36 15q-22 0 -36 -15q-16 -15 -16 -36v-1433q0 -64 -44 -109q-45 -45 -109 -45h-409q-64 0 -109 45t-45 109v1433q0 21 -16 36q-14 15 -36 15t-36 -15t-14 -36 v-1433zM382 2268q0 30 12 59q24 58 83 83q30 12 59 12q28 0 58 -12q10 -4 20 -4q36 0 71 -7t67 -20q58 -24 82 -83q12 -30 12 -59q0 -30 -12 -59q-24 -58 -82 -83q-30 -12 -60 -12t-58 12q-10 4 -20 4q-36 0 -70 7t-67 20q-58 24 -83 83q-12 30 -12 59zM484 2268 q0 -10 4 -20q8 -20 28 -28q22 -10 48 -14q25 -4 50 -4q16 0 30 -4q14 -3 29 -8q9 -4 19 -4t20 4q20 8 28 28q4 10 4 20t-4 18q-8 20 -28 28q-23 10 -47 15q-25 5 -51 5q-15 0 -30 2q-15 3 -29 9q-9 4 -19 4t-20 -4q-20 -7 -28 -27q-4 -10 -4 -20z" />
<glyph unicode="&#xfa;" d="M51 410v1433q0 65 45 109q44 44 108 44t109 -44q45 -45 45 -109v-1433q0 -22 16 -36q14 -16 36 -16h409q21 0 36 16q15 14 15 36v1433q0 65 45 109q46 44 109 44q62 0 108 -44q46 -45 46 -109v-1433q0 -148 -106 -254q-106 -105 -253 -105h-409q-148 0 -254 105 q-105 106 -105 254zM154 410q0 -106 74 -182q76 -74 182 -74h409q106 0 181 74q75 76 75 182v1433q0 21 -15 36t-36 15q-22 0 -36 -15q-16 -15 -16 -36v-1433q0 -64 -44 -109q-45 -45 -109 -45h-409q-64 0 -109 45t-45 109v1433q0 21 -16 36q-14 15 -36 15t-36 -15t-14 -36 v-1433zM382 2237q0 30 12 59q24 58 83 83q33 13 67 20t70 7q10 0 20 4q28 12 58 12t60 -12q58 -24 82 -83q12 -30 12 -59q0 -30 -12 -59q-24 -58 -82 -83q-32 -13 -67 -20t-71 -7q-10 0 -20 -4q-30 -12 -58 -12q-30 0 -59 12q-59 24 -83 83q-12 30 -12 59zM484 2238 q0 -10 4 -20q8 -20 28 -28q10 -4 20 -4t19 4q14 6 29 8q15 4 30 4q26 0 51 4q24 4 47 14q20 8 28 28q4 10 4 20t-4 20q-8 20 -28 27q-10 4 -20 4t-19 -4q-15 -7 -29 -9q-15 -2 -30 -2q-26 0 -50 -5t-48 -15q-20 -8 -28 -28q-4 -10 -4 -18z" />
<glyph unicode="&#xfb;" d="M51 410v1433q0 65 45 109q44 44 108 44t109 -44q45 -45 45 -109v-1433q0 -22 16 -36q14 -16 36 -16h409q21 0 36 16q15 14 15 36v1433q0 65 45 109q46 44 109 44q62 0 108 -44q46 -45 46 -109v-1433q0 -148 -106 -254q-106 -105 -253 -105h-409q-148 0 -254 105 q-105 106 -105 254zM154 410q0 -106 74 -182q76 -74 182 -74h409q106 0 181 74q75 76 75 182v1433q0 21 -15 36t-36 15q-22 0 -36 -15q-16 -15 -16 -36v-1433q0 -64 -44 -109q-45 -45 -109 -45h-409q-64 0 -109 45t-45 109v1433q0 21 -16 36q-14 15 -36 15t-36 -15t-14 -36 v-1433zM382 2237q0 30 12 59q24 58 83 83q33 13 67 20t70 7t71 -7t67 -20q58 -24 82 -83q12 -30 12 -59q0 -30 -12 -59q-24 -58 -82 -83q-30 -12 -60 -12t-58 12q-10 4 -20 4t-20 -4q-30 -12 -58 -12q-30 0 -59 12q-59 24 -83 83q-12 30 -12 59zM484 2238q0 -10 4 -20 q8 -20 28 -28q10 -4 20 -4t19 4q14 6 29 8q15 4 30 4q16 0 30 -4q14 -3 29 -8q9 -4 19 -4t20 4q20 8 28 28q4 10 4 20t-4 18q-8 20 -28 28q-23 10 -47 15q-25 5 -51 5t-50 -5t-48 -15q-20 -8 -28 -28q-4 -10 -4 -18z" />
<glyph unicode="&#xfc;" d="M51 410v1433q0 65 45 109q44 44 108 44t109 -44q45 -45 45 -109v-1433q0 -22 16 -36q14 -16 36 -16h409q21 0 36 16q15 14 15 36v1433q0 65 45 109q46 44 109 44q62 0 108 -44q46 -45 46 -109v-1433q0 -148 -106 -254q-106 -105 -253 -105h-409q-148 0 -254 105 q-105 106 -105 254zM154 410q0 -106 74 -182q76 -74 182 -74h409q106 0 181 74q75 76 75 182v1433q0 21 -15 36t-36 15q-22 0 -36 -15q-16 -15 -16 -36v-1433q0 -64 -44 -109q-45 -45 -109 -45h-409q-64 0 -109 45t-45 109v1433q0 21 -16 36q-14 15 -36 15t-36 -15t-14 -36 v-1433zM256 2252q0 64 45 109t109 45t108 -45q45 -45 45 -109t-45 -108q-44 -45 -108 -45t-109 45q-45 44 -45 108zM358 2252q0 -22 16 -36q14 -14 36 -14t36 14t14 36q0 20 -17 36q-15 16 -33 16q-22 0 -36 -16q-16 -14 -16 -36zM666 2252q0 64 44 109q45 45 109 45 q65 0 109 -45t44 -109t-44 -108q-44 -45 -109 -45t-109 45q-44 44 -44 108zM768 2252q0 -22 15 -36q14 -14 36 -14q21 0 36 14t15 36q0 20 -18 36q-16 16 -33 16q-22 0 -36 -16q-15 -14 -15 -36z" />
<glyph unicode="&#xfd;" d="M51 1228v615q0 65 45 109q44 44 108 44t109 -44q45 -45 45 -109v-615q0 -22 16 -36q14 -14 36 -14q148 0 253 -106t105 -253v-615q0 -64 -46 -108q-44 -45 -108 -45t-108 45q-46 44 -46 108v615q0 21 -14 36t-36 15q-148 0 -254 105q-105 105 -105 253zM154 1228 q0 -106 74 -180q76 -76 182 -76q64 0 108 -44q45 -45 45 -109v-615q0 -22 15 -36t36 -14q22 0 36 14q16 14 16 36v615q0 106 -76 181q-74 75 -180 75q-64 0 -109 45q-45 44 -45 108v615q0 21 -16 36q-14 15 -36 15t-36 -15t-14 -36v-615zM382 2237q0 30 12 59q24 58 83 83 q33 13 67 20t70 7q10 0 20 4q28 12 58 12t60 -12q58 -24 82 -83q12 -30 12 -59q0 -30 -12 -59q-24 -58 -82 -83q-32 -13 -67 -20t-71 -7q-10 0 -20 -4q-30 -12 -58 -12q-30 0 -59 12q-59 24 -83 83q-12 30 -12 59zM484 2238q0 -10 4 -20q8 -20 28 -28q10 -4 20 -4t19 4 q14 6 29 8q15 4 30 4q26 0 51 4q24 4 47 14q20 8 28 28q4 10 4 20t-4 20q-8 20 -28 27q-10 4 -20 4t-19 -4q-15 -7 -29 -9q-15 -2 -30 -2q-26 0 -50 -5t-48 -15q-20 -8 -28 -28q-4 -10 -4 -18zM716 1162q24 8 50 12t53 4q21 0 36 14t15 36v615q0 65 45 109q46 44 109 44 q62 0 108 -44q46 -45 46 -109v-615q0 -148 -106 -253t-253 -105v102q106 0 181 76q75 74 75 180v615q0 21 -15 36t-36 15q-22 0 -36 -15q-16 -15 -16 -36v-615q0 -64 -44 -108q-45 -45 -109 -45q-11 1 -25 -1q-32 48 -78 88z" />
<glyph unicode="&#xfe;" d="M51 204v1639q0 65 45 109q44 44 108 44t109 -44q45 -45 45 -109v-1639q0 -64 -45 -108q-45 -45 -109 -45t-108 45q-45 44 -45 108zM154 204q0 -22 14 -36t36 -14t36 14q16 14 16 36v1639q0 21 -16 36q-14 15 -36 15t-36 -15t-14 -36v-1639zM410 460v103h409q106 0 181 75 t75 181v409h-5q0 106 -75 182q-75 74 -181 74h-404v103h409q145 -2 249 -105q104 -106 104 -254h6v-409q0 -147 -106 -253t-253 -106h-409zM410 666v102h409q21 0 36 15q15 14 15 36v409h-5q1 22 -15 36q-14 16 -36 16h-404v102h409q59 -2 103 -45q44 -45 45 -109h5v-409 q0 -65 -44 -109q-45 -44 -109 -44h-409z" />
<glyph unicode="&#xff;" d="M51 1228v615q0 65 45 109q44 44 108 44t109 -44q45 -45 45 -109v-615q0 -22 16 -36q14 -14 36 -14q148 0 253 -106t105 -253v-615q0 -64 -46 -108q-44 -45 -108 -45t-108 45q-46 44 -46 108v615q0 21 -14 36t-36 15q-148 0 -254 105q-105 105 -105 253zM154 1228 q0 -106 74 -180q76 -76 182 -76q64 0 108 -44q45 -45 45 -109v-615q0 -22 15 -36t36 -14q22 0 36 14q16 14 16 36v615q0 106 -76 181q-74 75 -180 75q-64 0 -109 45q-45 44 -45 108v615q0 21 -16 36q-14 15 -36 15t-36 -15t-14 -36v-615zM256 2252q0 64 45 109t109 45 t108 -45q45 -45 45 -109t-45 -108q-44 -45 -108 -45t-109 45q-45 44 -45 108zM358 2252q0 -22 16 -36q14 -14 36 -14t36 14t14 36q0 20 -17 36q-15 16 -33 16q-22 0 -36 -16q-16 -14 -16 -36zM666 2252q0 64 44 109q45 45 109 45q65 0 109 -45t44 -109t-44 -108 q-44 -45 -109 -45t-109 45q-44 44 -44 108zM716 1162q24 8 50 12t53 4q21 0 36 14t15 36v615q0 65 45 109q46 44 109 44q62 0 108 -44q46 -45 46 -109v-615q0 -148 -106 -253t-253 -105v102q106 0 181 76q75 74 75 180v615q0 21 -15 36t-36 15q-22 0 -36 -15 q-16 -15 -16 -36v-615q0 -64 -44 -108q-45 -45 -109 -45q-11 1 -25 -1q-32 48 -78 88zM768 2252q0 -22 15 -36q14 -14 36 -14q21 0 36 14t15 36q0 20 -18 36q-16 16 -33 16q-22 0 -36 -16q-15 -14 -15 -36z" />
<glyph unicode="&#x152;" horiz-adv-x="2252" d="M51 410v1228q0 36 7 71t20 67q24 58 83 82q30 12 59 12q30 0 59 -12q58 -24 83 -82q12 -30 12 -60t-12 -58q-4 -10 -4 -20v-1228q0 -22 16 -36q14 -16 36 -16h409v-102h-409q-64 0 -109 45t-45 109v1228q0 16 2 30q3 14 9 29q4 9 4 19t-4 20q-7 20 -27 28q-10 4 -20 4 t-20 -4q-20 -8 -28 -28q-10 -23 -14 -47q-4 -25 -4 -51v-1228q0 -106 74 -182q76 -74 182 -74h409h25q32 -48 78 -88q-24 -8 -50 -12t-53 -3h-409q-148 0 -254 105q-105 106 -105 254zM460 1843q0 65 46 109q45 44 108 44h205q147 0 253 -104q106 -105 106 -254v-1228 q0 -22 14 -36q14 -16 36 -16h615q65 0 109 -45t44 -109t-44 -108q-45 -45 -109 -45h-615q-148 0 -253 105q-105 106 -105 254v1228q0 22 -15 36q-15 16 -36 16h-205q-64 0 -108 44q-46 45 -46 109zM563 1843q0 -22 15 -36q15 -15 36 -15h205q65 0 109 -46q44 -45 44 -108 v-1228q0 -106 76 -182q74 -74 180 -74h615q21 0 36 14t15 36t-15 36q-15 16 -36 16h-615q-64 0 -108 45q-45 45 -45 109v1228q0 106 -75 181t-181 75h-205q-21 0 -36 -15t-15 -36zM1126 1982q24 7 50 11q26 3 52 3h410q10 0 20 4q28 12 58 12t60 -12q58 -24 82 -82 q12 -30 12 -60t-12 -58q-24 -58 -82 -84q-32 -14 -67 -20t-71 -6h-410v102h410q26 0 51 4q24 5 47 15q20 8 28 28q4 9 4 19t-4 20q-8 20 -28 28q-10 4 -20 4t-19 -4q-15 -6 -29 -9q-15 -3 -30 -3h-410q-12 0 -25 -1q-32 48 -77 89zM1228 870v102h410q22 0 36 16q16 15 16 36 t-16 36q-14 15 -36 15h-410v103h410q64 0 108 -46q46 -46 46 -108q0 -64 -46 -109q-45 -45 -108 -45h-410z" />
<glyph unicode="&#x153;" horiz-adv-x="2252" d="M51 410v1228q0 36 7 71t20 67q24 58 83 82q30 12 59 12q30 0 59 -12q58 -24 83 -82q12 -30 12 -60t-12 -58q-4 -10 -4 -20v-1228q0 -22 16 -36q14 -16 36 -16h409v-102h-409q-64 0 -109 45t-45 109v1228q0 16 2 30q3 14 9 29q4 9 4 19t-4 20q-7 20 -27 28q-10 4 -20 4 t-20 -4q-20 -8 -28 -28q-10 -23 -14 -47q-4 -25 -4 -51v-1228q0 -106 74 -182q76 -74 182 -74h409h25q32 -48 78 -88q-24 -8 -50 -12t-53 -3h-409q-148 0 -254 105q-105 106 -105 254zM460 1843q0 65 46 109q45 44 108 44h205q147 0 253 -104q106 -105 106 -254v-1228 q0 -22 14 -36q14 -16 36 -16h615q65 0 109 -45t44 -109t-44 -108q-45 -45 -109 -45h-615q-148 0 -253 105q-105 106 -105 254v1228q0 22 -15 36q-15 16 -36 16h-205q-64 0 -108 44q-46 45 -46 109zM563 1843q0 -22 15 -36q15 -15 36 -15h205q65 0 109 -46q44 -45 44 -108 v-1228q0 -106 76 -182q74 -74 180 -74h615q21 0 36 14t15 36t-15 36q-15 16 -36 16h-615q-64 0 -108 45q-45 45 -45 109v1228q0 106 -75 181t-181 75h-205q-21 0 -36 -15t-15 -36zM1126 1982q24 7 50 11q26 3 52 3h410q10 0 20 4q28 12 58 12t60 -12q58 -24 82 -82 q12 -30 12 -60t-12 -58q-24 -58 -82 -84q-32 -14 -67 -20t-71 -6h-410v102h410q26 0 51 4q24 5 47 15q20 8 28 28q4 9 4 19t-4 20q-8 20 -28 28q-10 4 -20 4t-19 -4q-15 -6 -29 -9q-15 -3 -30 -3h-410q-12 0 -25 -1q-32 48 -77 89zM1228 870v102h410q22 0 36 16q16 15 16 36 t-16 36q-14 15 -36 15h-410v103h410q64 0 108 -46q46 -46 46 -108q0 -64 -46 -109q-45 -45 -108 -45h-410z" />
<glyph unicode="&#x178;" d="M51 1228v615q0 65 45 109q44 44 108 44t109 -44q45 -45 45 -109v-615q0 -22 16 -36q14 -14 36 -14q148 0 253 -106t105 -253v-615q0 -64 -46 -108q-44 -45 -108 -45t-108 45q-46 44 -46 108v615q0 21 -14 36t-36 15q-148 0 -254 105q-105 105 -105 253zM154 1228 q0 -106 74 -180q76 -76 182 -76q64 0 108 -44q45 -45 45 -109v-615q0 -22 15 -36t36 -14q22 0 36 14q16 14 16 36v615q0 106 -76 181q-74 75 -180 75q-64 0 -109 45q-45 44 -45 108v615q0 21 -16 36q-14 15 -36 15t-36 -15t-14 -36v-615zM256 2252q0 64 45 109t109 45 t108 -45q45 -45 45 -109t-45 -108q-44 -45 -108 -45t-109 45q-45 44 -45 108zM358 2252q0 -22 16 -36q14 -14 36 -14t36 14t14 36q0 20 -17 36q-15 16 -33 16q-22 0 -36 -16q-16 -14 -16 -36zM666 2252q0 64 44 109q45 45 109 45q65 0 109 -45t44 -109t-44 -108 q-44 -45 -109 -45t-109 45q-44 44 -44 108zM716 1162q24 8 50 12t53 4q21 0 36 14t15 36v615q0 65 45 109q46 44 109 44q62 0 108 -44q46 -45 46 -109v-615q0 -148 -106 -253t-253 -105v102q106 0 181 76q75 74 75 180v615q0 21 -15 36t-36 15q-22 0 -36 -15 q-16 -15 -16 -36v-615q0 -64 -44 -108q-45 -45 -109 -45q-11 1 -25 -1q-32 48 -78 88zM768 2252q0 -22 15 -36q14 -14 36 -14q21 0 36 14t15 36q0 20 -18 36q-16 16 -33 16q-22 0 -36 -16q-15 -14 -15 -36z" />
<glyph unicode="&#x2000;" horiz-adv-x="1211" />
<glyph unicode="&#x2001;" horiz-adv-x="2422" />
<glyph unicode="&#x2002;" horiz-adv-x="1211" />
<glyph unicode="&#x2003;" horiz-adv-x="2422" />
<glyph unicode="&#x2004;" horiz-adv-x="807" />
<glyph unicode="&#x2005;" horiz-adv-x="605" />
<glyph unicode="&#x2006;" horiz-adv-x="403" />
<glyph unicode="&#x2007;" horiz-adv-x="403" />
<glyph unicode="&#x2008;" horiz-adv-x="302" />
<glyph unicode="&#x2009;" horiz-adv-x="484" />
<glyph unicode="&#x200a;" horiz-adv-x="134" />
<glyph unicode="&#x2010;" d="M51 1024q0 62 45 108q44 46 108 46h820q62 0 108 -46t46 -108q0 -64 -46 -109t-108 -45h-820q-64 0 -108 45q-45 46 -45 109zM154 1024q0 -22 14 -36q14 -16 36 -16h820q21 0 36 16q15 15 15 36t-15 36t-36 15h-820q-22 0 -36 -15t-14 -36z" />
<glyph unicode="&#x2011;" d="M51 1024q0 62 45 108q44 46 108 46h820q62 0 108 -46t46 -108q0 -64 -46 -109t-108 -45h-820q-64 0 -108 45q-45 46 -45 109zM154 1024q0 -22 14 -36q14 -16 36 -16h820q21 0 36 16q15 15 15 36t-15 36t-36 15h-820q-22 0 -36 -15t-14 -36z" />
<glyph unicode="&#x2012;" d="M51 1024q0 62 45 108q44 46 108 46h820q62 0 108 -46t46 -108q0 -64 -46 -109t-108 -45h-820q-64 0 -108 45q-45 46 -45 109zM154 1024q0 -22 14 -36q14 -16 36 -16h820q21 0 36 16q15 15 15 36t-15 36t-36 15h-820q-22 0 -36 -15t-14 -36z" />
<glyph unicode="&#x2013;" horiz-adv-x="1330" d="M51 1024q0 62 41 108q40 46 98 46h745q56 0 98 -46t42 -108q0 -64 -42 -109t-98 -45h-745q-58 0 -98 45q-41 46 -41 109zM145 1024q0 -22 12 -36q13 -16 33 -16h745q19 0 33 16q13 15 13 36t-13 36q-14 15 -33 15h-745q-20 0 -33 -15q-12 -15 -12 -36z" />
<glyph unicode="&#x2014;" horiz-adv-x="1843" d="M51 1024q0 62 45 108q44 46 108 46h1230q64 0 108 -46q45 -46 45 -108q0 -64 -45 -109q-44 -45 -108 -45h-1230q-64 0 -108 45q-45 46 -45 109zM154 1024q0 -22 14 -36q14 -16 36 -16h1230q22 0 36 16q14 15 14 36t-14 36t-36 15h-1230q-22 0 -36 -15t-14 -36z" />
<glyph unicode="&#x2018;" horiz-adv-x="614" d="M51 1434v409q0 65 45 109q44 44 108 44t109 -44q45 -45 45 -109v-409q0 -64 -45 -109t-109 -45t-108 45q-45 45 -45 109zM154 1434q0 -22 14 -36q14 -16 36 -16t36 16q16 14 16 36v409q0 21 -16 36q-14 15 -36 15t-36 -15t-14 -36v-409z" />
<glyph unicode="&#x2019;" horiz-adv-x="614" d="M51 1434v409q0 65 45 109q44 44 108 44t109 -44q45 -45 45 -109v-409q0 -64 -45 -109t-109 -45t-108 45q-45 45 -45 109zM154 1434q0 -22 14 -36q14 -16 36 -16t36 16q16 14 16 36v409q0 21 -16 36q-14 15 -36 15t-36 -15t-14 -36v-409z" />
<glyph unicode="&#x201a;" horiz-adv-x="614" d="M51 -204v408q0 64 45 109q44 45 108 45t109 -45t45 -109v-408q0 -64 -45 -109t-109 -45t-108 45q-45 45 -45 109zM154 204v-408q0 -22 14 -36q14 -16 36 -16t36 16q16 14 16 36v408q0 22 -16 36q-14 16 -36 16t-36 -16q-14 -14 -14 -36z" />
<glyph unicode="&#x201c;" d="M51 1434v409q0 65 45 109q44 44 108 44t109 -44q45 -45 45 -109v-409q0 -64 -45 -109t-109 -45t-108 45q-45 45 -45 109zM154 1434q0 -22 14 -36q14 -16 36 -16t36 16q16 14 16 36v409q0 21 -16 36q-14 15 -36 15t-36 -15t-14 -36v-409zM666 1434v409q0 65 44 109 q45 44 109 44q65 0 109 -44q44 -45 44 -109v-409q0 -64 -44 -109t-109 -45t-109 45t-44 109zM768 1434q0 -22 15 -36q14 -16 36 -16q21 0 36 16q15 14 15 36v409q0 21 -15 36t-36 15q-22 0 -36 -15q-15 -15 -15 -36v-409z" />
<glyph unicode="&#x201d;" d="M51 1434v409q0 65 45 109q44 44 108 44t109 -44q45 -45 45 -109v-409q0 -64 -45 -109t-109 -45t-108 45q-45 45 -45 109zM154 1434q0 -22 14 -36q14 -16 36 -16t36 16q16 14 16 36v409q0 21 -16 36q-14 15 -36 15t-36 -15t-14 -36v-409zM666 1434v409q0 65 44 109 q45 44 109 44q65 0 109 -44q44 -45 44 -109v-409q0 -64 -44 -109t-109 -45t-109 45t-44 109zM768 1434q0 -22 15 -36q14 -16 36 -16q21 0 36 16q15 14 15 36v409q0 21 -15 36t-36 15q-22 0 -36 -15q-15 -15 -15 -36v-409z" />
<glyph unicode="&#x201e;" d="M51 -204v408q0 64 45 109q44 45 108 45t109 -45t45 -109v-408q0 -64 -45 -109t-109 -45t-108 45q-45 45 -45 109zM154 204v-408q0 -22 14 -36q14 -16 36 -16t36 16q16 14 16 36v408q0 22 -16 36q-14 16 -36 16t-36 -16q-14 -14 -14 -36zM666 -204v408q0 64 44 109 q45 45 109 45q65 0 109 -45t44 -109v-408q0 -64 -44 -109t-109 -45t-109 45t-44 109zM768 204v-408q0 -22 15 -36q14 -16 36 -16q21 0 36 16q15 14 15 36v408q0 22 -15 36q-15 16 -36 16q-22 0 -36 -16q-15 -14 -15 -36z" />
<glyph unicode="&#x2022;" horiz-adv-x="1024" d="M51 1228q0 148 105 254q104 103 248 105h6q145 -2 248 -105q105 -106 105 -254h5q0 -148 -105 -253t-253 -105t-254 105q-105 105 -105 253zM154 1228q0 -106 74 -180q76 -76 182 -76t180 76q76 74 76 180h-6q0 106 -74 182q-74 74 -179 74t-179 -74q-74 -76 -74 -182z M256 1228q0 64 45 109q43 43 103 45h6q60 -2 103 -45q45 -45 45 -109h5q0 -64 -45 -108q-44 -45 -108 -45t-109 45q-45 44 -45 108zM358 1228q0 -22 16 -36q14 -14 36 -14t36 14t14 36h-5q0 22 -15 36q-14 14 -34 16q-20 0 -32 -16q-16 -14 -16 -36z" />
<glyph unicode="&#x2026;" horiz-adv-x="2252" d="M51 204q0 64 45 109q44 45 108 45t109 -45t45 -109t-45 -108q-45 -45 -109 -45t-108 45q-45 44 -45 108zM154 204q0 -22 14 -36t36 -14t36 14q16 14 16 36q0 20 -18 36q-16 16 -34 16q-22 0 -36 -16q-14 -14 -14 -36zM870 204q0 64 45 109q46 45 109 45q62 0 108 -45 t46 -109t-46 -108q-46 -45 -108 -45q-64 0 -109 45q-45 44 -45 108zM972 204q0 -22 16 -36q14 -14 36 -14q21 0 36 14t15 36q1 20 -17 36q-16 16 -34 16q-22 0 -36 -16q-16 -14 -16 -36zM1690 204q0 64 44 109q45 45 109 45q65 0 109 -45t44 -109t-44 -108q-44 -45 -109 -45 t-109 45q-44 44 -44 108zM1792 204q0 -22 15 -36q14 -14 36 -14q21 0 36 14t15 36q0 20 -18 36q-16 16 -33 16q-22 0 -36 -16q-15 -14 -15 -36z" />
<glyph unicode="&#x202f;" horiz-adv-x="484" />
<glyph unicode="&#x2039;" d="M51 1024q0 62 45 108q44 46 108 46q22 0 36 14q16 14 16 36q0 148 104 254q106 105 254 105q10 0 20 4q28 12 58 12t60 -12q58 -24 82 -83q12 -30 12 -59q0 -30 -12 -59q-24 -58 -82 -83q-32 -15 -67 -21t-71 -6q-21 0 -36 -16q-15 -14 -15 -36q0 -148 -105 -253 q-106 -105 -254 -105q-64 0 -108 45q-45 46 -45 109zM154 1024q0 -22 14 -36q14 -16 36 -16q106 0 182 76q74 74 74 180q0 64 46 109q45 45 108 45q26 0 51 5q24 5 47 15q20 8 28 28q4 10 4 18q0 10 -4 20q-8 20 -28 28q-10 4 -20 4t-19 -4q-15 -6 -29 -8q-15 -4 -30 -4 q-106 0 -181 -74q-75 -76 -75 -182q0 -64 -45 -108q-45 -45 -109 -45q-22 0 -36 -15t-14 -36zM256 819h102q0 -106 75 -181t181 -75q16 0 30 -3q14 -2 29 -8q9 -4 19 -4t20 4q20 8 28 28q4 10 4 19q0 10 -4 19q-8 20 -28 28q-23 10 -47 14q-25 6 -51 6q-64 0 -108 44 q-46 45 -46 109v25q48 32 88 78q8 -24 12 -50t3 -53q0 -22 15 -36q15 -15 36 -15q36 0 71 -7t67 -21q58 -24 82 -82q12 -30 12 -60t-12 -58q-24 -58 -82 -84q-30 -12 -60 -12t-58 12q-10 4 -20 4q-148 0 -254 106q-104 105 -104 253z" />
<glyph unicode="&#x203a;" d="M86 598q0 30 12 60q24 58 84 82q32 14 66 21q35 7 71 7q21 0 36 15q15 14 15 36q0 147 105 253t253 106q64 0 109 -46t45 -108q0 -64 -45 -109t-109 -45q-22 0 -36 -15t-14 -36q0 -147 -106 -253t-253 -106q-9 0 -19 -4q-30 -12 -60 -12t-58 12q-58 24 -84 84 q-12 30 -12 58zM86 1449q0 30 12 59q24 58 84 83q30 12 58 12q30 0 60 -12q9 -4 19 -4q147 0 253 -105q106 -106 106 -254h-103q0 106 -75 182q-75 74 -181 74q-15 0 -31 4q-14 3 -28 8q-10 4 -20 4t-19 -4q-20 -8 -28 -28q-3 -10 -3 -20t3 -18q8 -20 28 -28q23 -10 47 -15 q25 -5 51 -5q65 0 109 -45t44 -109q0 -12 2 -25q-49 -33 -89 -77q-8 24 -11 50q-4 26 -4 52q0 22 -15 36q-15 16 -36 16q-36 0 -71 6q-34 7 -66 21q-58 24 -84 83q-12 30 -12 59zM190 599q0 -9 3 -19q8 -20 28 -28q9 -4 19 -4t20 4q14 6 28 8q16 3 31 3q106 0 181 75t75 181 q0 65 45 109q44 44 108 44q22 0 36 16q16 15 16 36t-16 36q-14 15 -36 15q-106 0 -180 -75q-76 -75 -76 -181q0 -65 -44 -109q-45 -44 -109 -44q-26 0 -51 -6q-24 -5 -47 -14q-20 -8 -28 -28q-3 -10 -3 -19z" />
<glyph unicode="&#x205f;" horiz-adv-x="605" />
<glyph unicode="&#x20ac;" d="M51 716q0 64 45 109q44 45 108 45v-102q-22 0 -36 -16q-14 -14 -14 -36t14 -36t36 -14v-103q-64 0 -108 45q-45 44 -45 108zM51 1228q0 64 45 109q44 45 108 45v-102q-22 0 -36 -16q-14 -14 -14 -36t14 -36t36 -14v-103q-64 0 -108 45q-45 44 -45 108zM256 410v1228 q0 148 104 254q106 104 254 104h410q62 0 108 -44q46 -45 46 -109q0 -65 -46 -109t-108 -44h-410q-21 0 -36 -16q-15 -14 -15 -36v-1228q0 -22 15 -36q15 -16 36 -16h410q62 0 108 -45t46 -109t-46 -108q-46 -45 -108 -45h-410q-148 0 -254 105q-104 106 -104 254zM358 410 q0 -106 75 -182q75 -74 181 -74h410q21 0 36 14t15 36t-15 36q-15 16 -36 16h-410q-64 0 -108 45q-46 45 -46 109v1228q0 64 46 108q45 46 108 46h410q21 0 36 15q15 14 15 36q0 21 -15 36t-36 15h-410q-106 0 -181 -75t-75 -181v-1228zM614 563v103h205q21 0 36 14t15 36 t-15 36q-15 16 -36 16h-205v102h205q65 0 109 -45t44 -109t-44 -108q-45 -45 -109 -45h-205zM614 1075v103h205q21 0 36 14t15 36t-15 36q-15 16 -36 16h-205v102h205q65 0 109 -45t44 -109t-44 -108q-45 -45 -109 -45h-205z" />
<glyph unicode="&#x2122;" d="M51 410v1228q0 148 105 254q106 104 254 104h409q145 -2 249 -104q104 -105 104 -254h6v-1228q0 -148 -106 -254q-106 -105 -253 -105h-409q-148 0 -254 105q-105 106 -105 254zM154 410q0 -106 74 -182q76 -74 182 -74h409q106 0 181 74q75 76 75 182v1228h-5 q0 106 -75 181t-181 75h-404q-106 0 -182 -75q-74 -75 -74 -181v-1228zM256 410v1228q0 64 45 108q45 46 109 46h409q59 -2 103 -46q44 -45 45 -108h5v-1228q0 -64 -44 -109q-45 -45 -109 -45h-409q-64 0 -109 45t-45 109zM358 410q0 -22 16 -36q14 -16 36 -16h409 q21 0 36 16q15 14 15 36v1228h-5q1 22 -15 36q-14 16 -36 16h-404q-22 0 -36 -16q-16 -14 -16 -36v-1228z" />
<glyph unicode="&#x25fc;" horiz-adv-x="1997" d="M0 0v1998h1998v-1998h-1998z" />
</font>
</defs>
</svg>
